<?xml version="1.0" encoding="UTF-8" standalone="no"?>
<!DOCTYPE svg PUBLIC "-//W3C//DTD SVG 1.1//EN" "http://www.w3.org/Graphics/SVG/1.1/DTD/svg11.dtd">
<svg width="100%" height="100%" viewBox="0 0 130 121" version="1.1" xmlns="http://www.w3.org/2000/svg" xmlns:xlink="http://www.w3.org/1999/xlink" xml:space="preserve" xmlns:serif="http://www.serif.com/" style="fill-rule:evenodd;clip-rule:evenodd;stroke-linejoin:round;stroke-miterlimit:2;">
    <g transform="matrix(1,0,0,1,-536.047,-28.6174)">
        <g id="Layer_8" transform="matrix(3,0,0,3,654,0)">
            <g transform="matrix(1.54206,0,0,1.54206,-147.739,-4.03344)">
                <path d="M74.696,34.802L80.098,34.802C80.172,34.752 86.551,28.324 86.551,28.324C86.621,28.259 86.705,28.211 86.794,28.183C86.951,28.117 87.13,28.113 87.293,28.179C88.824,28.804 90.635,28.535 91.955,27.328C92.896,26.469 93.412,25.3 93.491,24.103L91.372,26.039C91.196,26.199 90.947,26.251 90.722,26.174L87.904,25.204C87.684,25.129 87.521,24.942 87.477,24.714L86.89,21.698C86.847,21.476 86.922,21.247 87.09,21.094C87.09,21.094 89.263,19.111 89.263,19.111C88.109,19.039 86.927,19.424 85.992,20.279C85.992,20.279 85.992,20.28 85.992,20.28C84.722,21.44 84.225,23.166 84.537,24.765C84.58,24.987 84.505,25.216 84.338,25.369L74.696,34.802ZM86.649,28.268L86.618,28.294C86.628,28.285 86.638,28.276 86.649,28.268ZM86.682,28.245L86.656,28.262C86.665,28.256 86.673,28.25 86.682,28.245ZM86.95,28.154L86.939,28.155L86.95,28.154ZM86.965,28.153C86.97,28.153 86.975,28.153 86.979,28.153C86.984,28.153 86.989,28.153 86.994,28.153L86.965,28.153Z" style="fill:rgb(116,186,220);"/>
            </g>
            <g id="Dribbble-Light-Preview">
            </g>
            <g transform="matrix(1.54206,0,0,1.54206,-227.464,-41.3487)">
                <path d="M124,39L124,35C124,35 148,35 148,35L148,39L124,39Z" style="fill:rgb(182,221,230);"/>
            </g>
            <g transform="matrix(0.333333,0,0,0.333333,-171.333,0)">
                <path d="M468.106,130.393L473.855,124.459C482.631,127.349 492.631,125.539 500.046,118.764C500.046,118.764 500.046,118.764 500.046,118.764C507.517,111.938 510.464,101.798 508.618,92.4C508.409,91.334 507.64,90.463 506.609,90.123C505.577,89.783 504.442,90.026 503.639,90.759L490.551,102.715C490.551,102.715 480.843,99.377 480.843,99.377C480.843,99.377 478.782,88.788 478.782,88.788C478.782,88.788 491.948,76.771 491.948,76.771C492.731,76.056 493.08,74.982 492.866,73.944C492.653,72.906 491.908,72.057 490.907,71.709C482.045,68.634 471.857,70.401 464.342,77.279C457.33,83.691 454.302,93.024 455.491,101.926C455.491,101.925 440.487,116.822 426.567,130.393L403.299,130.393L403.299,63.627L518.327,63.627L518.327,130.393L468.106,130.393Z" style="fill:rgb(226,243,238);"/>
            </g>
            <g transform="matrix(1.54206,0,0,1.54206,-91.7477,-32.6541)">
                <path d="M39.336,51.362L35,51.362C34.448,51.362 34,50.914 34,50.362L34,28.362C34,27.809 34.448,27.362 35,27.362L61,27.362C61.552,27.362 62,27.809 62,28.362L62,50.362C62,50.914 61.552,51.362 61,51.362L46.297,51.362L48.297,49.362L60,49.362L60,35.362L36,35.362L36,49.362L41.039,49.362L39.336,51.362ZM36,33.362L36,29.362C36,29.362 60,29.362 60,29.362L60,33.362L36,33.362Z"/>
            </g>
            <g transform="matrix(1.54206,0,0,1.54206,-147.804,-4.03344)">
                <path d="M72.772,34.802C75.405,32.388 83.201,24.648 83.201,24.648C82.944,22.724 83.599,20.706 85.114,19.32C86.739,17.834 88.941,17.452 90.857,18.116C91.073,18.192 91.234,18.375 91.28,18.599C91.326,18.824 91.251,19.056 91.082,19.211C91.082,19.211 88.236,21.808 88.236,21.808C88.236,21.808 88.681,24.097 88.681,24.097C88.681,24.097 90.78,24.819 90.78,24.819L93.609,22.234C93.782,22.076 94.028,22.023 94.251,22.097C94.474,22.17 94.64,22.358 94.685,22.589C95.084,24.62 94.447,26.812 92.832,28.288C92.832,28.288 92.832,28.288 92.832,28.288C91.229,29.752 89.068,30.144 87.171,29.519L82.053,34.802L80.098,34.802C80.172,34.752 86.551,28.324 86.551,28.324C86.621,28.259 86.705,28.211 86.794,28.183C86.951,28.117 87.13,28.113 87.293,28.179C88.824,28.804 90.635,28.535 91.955,27.328C92.896,26.469 93.412,25.3 93.491,24.103L91.372,26.039C91.196,26.199 90.947,26.251 90.722,26.174L87.904,25.204C87.684,25.129 87.521,24.942 87.477,24.714L86.89,21.698C86.847,21.476 86.922,21.247 87.09,21.094C87.09,21.094 89.263,19.111 89.263,19.111C88.109,19.039 86.927,19.424 85.992,20.279C85.992,20.279 85.992,20.28 85.992,20.28C84.722,21.44 84.225,23.166 84.537,24.765C84.58,24.987 84.505,25.216 84.338,25.369L74.696,34.802L72.772,34.802ZM86.649,28.268L86.618,28.294C86.628,28.285 86.638,28.276 86.649,28.268ZM86.682,28.245L86.656,28.262C86.665,28.256 86.673,28.25 86.682,28.245ZM86.95,28.154L86.939,28.155L86.95,28.154ZM86.965,28.153C86.97,28.153 86.975,28.153 86.979,28.153C86.984,28.153 86.989,28.153 86.994,28.153L86.965,28.153Z"/>
            </g>
            <g transform="matrix(0.333333,0,0,0.333333,-218,0)">
                <path d="M598.2,103.584L579.491,124.456C576.803,124.456 574.618,122.271 574.618,119.584L574.618,118.127C572.962,117.438 571.408,116.526 569.998,115.417L568.709,116.163C566.466,117.457 563.352,116.619 562.058,114.384L559.622,110.169C558.287,107.854 559.091,104.851 561.403,103.511L562.633,102.799C562.371,101.004 562.371,99.179 562.633,97.383L561.403,96.672C559.09,95.334 558.286,92.33 559.622,90.016L562.056,85.803C563.349,83.564 566.458,82.726 568.709,84.02L569.998,84.765C571.409,83.658 572.963,82.747 574.618,82.058L574.618,80.601C574.618,77.914 576.803,75.729 579.491,75.729L584.363,75.729C587.051,75.729 589.236,77.914 589.236,80.601L589.236,82.058C590.892,82.747 592.446,83.659 593.855,84.768L595.144,84.022C597.393,82.723 600.504,83.564 601.798,85.806L598.2,103.584ZM581.649,92.273C576.84,92.273 572.936,96.177 572.936,100.986C572.936,105.795 576.84,109.699 581.649,109.699C586.457,109.699 590.362,105.795 590.362,100.986C590.362,96.177 586.457,92.273 581.649,92.273Z" style="fill-rule:nonzero;"/>
            </g>
            <g transform="matrix(0.231637,0,0,0.333333,-44.9265,11.3333)">
                <path d="M70.056,6L74.345,6L77.626,20L74.46,20L73.884,17.22L73.884,17.26L70.286,17.26L69.711,20L66.775,20L70.056,6ZM73.51,15.36L72.1,8.44L72.042,8.44L70.661,15.36L73.51,15.36Z" style="fill-rule:nonzero;"/>
                <path d="M79.151,6L83.986,6C85.559,6 86.739,6.293 87.526,6.88C88.313,7.467 88.706,8.327 88.706,9.46L88.706,16.54C88.706,17.673 88.313,18.533 87.526,19.12C86.739,19.707 85.559,20 83.986,20L79.151,20L79.151,6ZM83.928,18C84.447,18 84.845,17.893 85.123,17.68C85.401,17.467 85.54,17.12 85.54,16.64L85.54,9.36C85.54,8.88 85.401,8.533 85.123,8.32C84.845,8.107 84.447,8 83.928,8L82.317,8L82.317,18L83.928,18Z" style="fill-rule:nonzero;"/>
                <path d="M90.836,6L95.354,6L97.369,16.02L97.427,16.02L99.441,6L103.96,6L103.96,20L100.967,20L100.967,9.4L100.909,9.4L98.607,20L95.959,20L93.656,9.4L93.599,9.4L93.599,20L90.836,20L90.836,6Z" style="fill-rule:nonzero;"/>
                <rect x="106.32" y="6" width="3.166" height="14" style="fill-rule:nonzero;"/>
                <path d="M111.846,6L115.817,6L118.897,14.38L118.955,14.38L118.955,6L121.775,6L121.775,20L118.523,20L114.724,9.78L114.666,9.78L114.666,20L111.846,20L111.846,6Z" style="fill-rule:nonzero;"/>
                <path d="M131.215,8L127.905,8L127.905,6L137.691,6L137.691,8L134.381,8L134.381,20L131.215,20L131.215,8Z" style="fill-rule:nonzero;"/>
                <path d="M143.677,20.2C142.123,20.2 140.933,19.893 140.108,19.28C139.283,18.667 138.871,17.8 138.871,16.68L138.871,9.32C138.871,8.2 139.283,7.333 140.108,6.72C140.933,6.107 142.123,5.8 143.677,5.8C145.231,5.8 146.421,6.107 147.246,6.72C148.071,7.333 148.484,8.2 148.484,9.32L148.484,16.68C148.484,17.8 148.071,18.667 147.246,19.28C146.421,19.893 145.231,20.2 143.677,20.2ZM143.677,18.2C144.771,18.2 145.318,17.74 145.318,16.82L145.318,9.18C145.318,8.26 144.771,7.8 143.677,7.8C142.583,7.8 142.037,8.26 142.037,9.18L142.037,16.82C142.037,17.74 142.583,18.2 143.677,18.2Z" style="fill-rule:nonzero;"/>
                <path d="M155.189,20.2C153.635,20.2 152.446,19.893 151.621,19.28C150.796,18.667 150.383,17.8 150.383,16.68L150.383,9.32C150.383,8.2 150.796,7.333 151.621,6.72C152.446,6.107 153.635,5.8 155.189,5.8C156.744,5.8 157.933,6.107 158.758,6.72C159.583,7.333 159.996,8.2 159.996,9.32L159.996,16.68C159.996,17.8 159.583,18.667 158.758,19.28C157.933,19.893 156.744,20.2 155.189,20.2ZM155.189,18.2C156.283,18.2 156.83,17.74 156.83,16.82L156.83,9.18C156.83,8.26 156.283,7.8 155.189,7.8C154.096,7.8 153.549,8.26 153.549,9.18L153.549,16.82C153.549,17.74 154.096,18.2 155.189,18.2Z" style="fill-rule:nonzero;"/>
                <path d="M162.126,6L165.291,6L165.291,18L170.501,18L170.501,20L162.126,20L162.126,6Z" style="fill-rule:nonzero;"/>
            </g>
        </g>
    </g>
</svg>
