<?xml version="1.0" encoding="UTF-8" standalone="no"?>
<!DOCTYPE svg PUBLIC "-//W3C//DTD SVG 1.1//EN" "http://www.w3.org/Graphics/SVG/1.1/DTD/svg11.dtd">
<svg width="100%" height="100%" viewBox="0 0 130 121" version="1.1" xmlns="http://www.w3.org/2000/svg" xmlns:xlink="http://www.w3.org/1999/xlink" xml:space="preserve" xmlns:serif="http://www.serif.com/" style="fill-rule:evenodd;clip-rule:evenodd;stroke-linejoin:round;stroke-miterlimit:2;">
    <g transform="matrix(1,0,0,1,-396.047,-28.6174)">
        <g id="Layer_8" transform="matrix(3,0,0,3,654,0)">
            <g transform="matrix(1.54206,0,0,1.54206,-274.131,-41.3487)">
                <path d="M124,39L124,35C124,35 148,35 148,35L148,39L124,39Z" style="fill:rgb(182,221,230);"/>
            </g>
            <g transform="matrix(1.54206,0,0,1.54206,-138.414,-32.6541)">
                <path d="M39.336,51.362L35,51.362C34.448,51.362 34,50.914 34,50.362L34,28.362C34,27.809 34.448,27.362 35,27.362L61,27.362C61.552,27.362 62,27.809 62,28.362L62,50.362C62,50.914 61.552,51.362 61,51.362L46.297,51.362L48.297,49.362L60,49.362L60,35.362L36,35.362L36,49.362L41.039,49.362L39.336,51.362ZM36,33.362L36,29.362C36,29.362 60,29.362 60,29.362L60,33.362L36,33.362Z"/>
            </g>
            <g transform="matrix(1.54206,0,0,1.54206,-194.47,-4.03344)">
                <path d="M72.772,34.802C75.405,32.388 83.201,24.648 83.201,24.648C82.944,22.724 83.599,20.706 85.114,19.32C86.739,17.834 88.941,17.452 90.857,18.116C91.073,18.192 91.234,18.375 91.28,18.599C91.326,18.824 91.251,19.056 91.082,19.211C91.082,19.211 88.236,21.808 88.236,21.808C88.236,21.808 88.681,24.097 88.681,24.097C88.681,24.097 90.78,24.819 90.78,24.819L93.609,22.234C93.782,22.076 94.028,22.023 94.251,22.097C94.474,22.17 94.64,22.358 94.685,22.589C95.084,24.62 94.447,26.812 92.832,28.288C92.832,28.288 92.832,28.288 92.832,28.288C91.229,29.752 89.068,30.144 87.171,29.519L82.053,34.802L80.098,34.802C80.172,34.752 86.551,28.324 86.551,28.324C86.621,28.259 86.705,28.211 86.794,28.183C86.951,28.117 87.13,28.113 87.293,28.179C88.824,28.804 90.635,28.535 91.955,27.328C92.896,26.469 93.412,25.3 93.491,24.103L91.372,26.039C91.196,26.199 90.947,26.251 90.722,26.174L87.904,25.204C87.684,25.129 87.521,24.942 87.477,24.714L86.89,21.698C86.847,21.476 86.922,21.247 87.09,21.094C87.09,21.094 89.263,19.111 89.263,19.111C88.109,19.039 86.927,19.424 85.992,20.279C85.992,20.279 85.992,20.28 85.992,20.28C84.722,21.44 84.225,23.166 84.537,24.765C84.58,24.987 84.505,25.216 84.338,25.369L74.696,34.802L72.772,34.802ZM86.649,28.268L86.618,28.294C86.628,28.285 86.638,28.276 86.649,28.268ZM86.682,28.245L86.656,28.262C86.665,28.256 86.673,28.25 86.682,28.245ZM86.95,28.154L86.939,28.155L86.95,28.154ZM86.965,28.153C86.97,28.153 86.975,28.153 86.979,28.153C86.984,28.153 86.989,28.153 86.994,28.153L86.965,28.153Z"/>
            </g>
            <g transform="matrix(1.54206,0,0,1.54206,-194.47,-4.03344)">
                <path d="M74.696,34.802L80.098,34.802C80.172,34.752 86.551,28.324 86.551,28.324C86.621,28.259 86.705,28.211 86.794,28.183C86.951,28.117 87.13,28.113 87.293,28.179C88.824,28.804 90.635,28.535 91.955,27.328C92.896,26.469 93.412,25.3 93.491,24.103L91.372,26.039C91.196,26.199 90.947,26.251 90.722,26.174L87.904,25.204C87.684,25.129 87.521,24.942 87.477,24.714L86.89,21.698C86.847,21.476 86.922,21.247 87.09,21.094C87.09,21.094 89.263,19.111 89.263,19.111C88.109,19.039 86.927,19.424 85.992,20.279C85.992,20.279 85.992,20.28 85.992,20.28C84.722,21.44 84.225,23.166 84.537,24.765C84.58,24.987 84.505,25.216 84.338,25.369L74.696,34.802ZM86.649,28.268L86.618,28.294C86.628,28.285 86.638,28.276 86.649,28.268ZM86.682,28.245L86.656,28.262C86.665,28.256 86.673,28.25 86.682,28.245ZM86.95,28.154L86.939,28.155L86.95,28.154ZM86.965,28.153C86.97,28.153 86.975,28.153 86.979,28.153C86.984,28.153 86.989,28.153 86.994,28.153L86.965,28.153Z" style="fill:rgb(116,186,220);"/>
            </g>
            <g transform="matrix(0.333333,0,0,0.333333,-218,0)">
                <path d="M468.106,130.393L473.855,124.459C482.631,127.349 492.631,125.539 500.046,118.764C500.046,118.764 500.046,118.764 500.046,118.764C507.517,111.938 510.464,101.798 508.618,92.4C508.409,91.334 507.64,90.463 506.609,90.123C505.577,89.783 504.442,90.026 503.639,90.759L490.551,102.715C490.551,102.715 480.843,99.377 480.843,99.377C480.843,99.377 478.782,88.788 478.782,88.788C478.782,88.788 491.948,76.771 491.948,76.771C492.731,76.056 493.08,74.982 492.866,73.944C492.653,72.906 491.908,72.057 490.907,71.709C482.045,68.634 471.857,70.401 464.342,77.279C457.33,83.691 454.302,93.024 455.491,101.926C455.491,101.925 440.487,116.822 426.567,130.393L405.299,130.393L405.299,65.627L516.327,65.627L516.327,130.393L468.106,130.393Z" style="fill:rgb(226,243,238);"/>
            </g>
            <g id="Dribbble-Light-Preview">
            </g>
            <g transform="matrix(0.231637,0,0,0.333333,-91.8921,11.3333)">
                <path d="M64.012,6L67.178,6L67.178,11.7L70.574,11.7L70.574,6L73.74,6L73.74,20L70.574,20L70.574,13.7L67.178,13.7L67.178,20L64.012,20L64.012,6Z" style="fill-rule:nonzero;"/>
                <rect x="76.1" y="6" width="3.166" height="14" style="fill-rule:nonzero;"/>
                <path d="M81.626,6L86.461,6C88.035,6 89.215,6.293 90.001,6.88C90.788,7.467 91.181,8.327 91.181,9.46L91.181,16.54C91.181,17.673 90.788,18.533 90.001,19.12C89.215,19.707 88.035,20 86.461,20L81.626,20L81.626,6ZM86.404,18C86.922,18 87.32,17.893 87.598,17.68C87.876,17.467 88.015,17.12 88.015,16.64L88.015,9.36C88.015,8.88 87.876,8.533 87.598,8.32C87.32,8.107 86.922,8 86.404,8L84.792,8L84.792,18L86.404,18Z" style="fill-rule:nonzero;"/>
                <path d="M93.311,6L98.146,6C99.719,6 100.899,6.293 101.686,6.88C102.473,7.467 102.866,8.327 102.866,9.46L102.866,16.54C102.866,17.673 102.473,18.533 101.686,19.12C100.899,19.707 99.719,20 98.146,20L93.311,20L93.311,6ZM98.089,18C98.607,18 99.005,17.893 99.283,17.68C99.561,17.467 99.7,17.12 99.7,16.64L99.7,9.36C99.7,8.88 99.561,8.533 99.283,8.32C99.005,8.107 98.607,8 98.089,8L96.477,8L96.477,18L98.089,18Z" style="fill-rule:nonzero;"/>
                <path d="M104.996,6L113.63,6L113.63,8L108.162,8L108.162,11.7L112.508,11.7L112.508,13.7L108.162,13.7L108.162,18L113.63,18L113.63,20L104.996,20L104.996,6Z" style="fill-rule:nonzero;"/>
                <path d="M115.443,6L119.415,6L122.495,14.38L122.552,14.38L122.552,6L125.373,6L125.373,20L122.12,20L118.321,9.78L118.264,9.78L118.264,20L115.443,20L115.443,6Z" style="fill-rule:nonzero;"/>
                <path d="M134.813,8L131.503,8L131.503,6L141.288,6L141.288,8L137.979,8L137.979,20L134.813,20L134.813,8Z" style="fill-rule:nonzero;"/>
                <path d="M147.275,20.2C145.721,20.2 144.531,19.893 143.706,19.28C142.881,18.667 142.468,17.8 142.468,16.68L142.468,9.32C142.468,8.2 142.881,7.333 143.706,6.72C144.531,6.107 145.721,5.8 147.275,5.8C148.829,5.8 150.019,6.107 150.844,6.72C151.669,7.333 152.081,8.2 152.081,9.32L152.081,16.68C152.081,17.8 151.669,18.667 150.844,19.28C150.019,19.893 148.829,20.2 147.275,20.2ZM147.275,18.2C148.368,18.2 148.915,17.74 148.915,16.82L148.915,9.18C148.915,8.26 148.368,7.8 147.275,7.8C146.181,7.8 145.634,8.26 145.634,9.18L145.634,16.82C145.634,17.74 146.181,18.2 147.275,18.2Z" style="fill-rule:nonzero;"/>
                <path d="M158.787,20.2C157.233,20.2 156.043,19.893 155.218,19.28C154.393,18.667 153.981,17.8 153.981,16.68L153.981,9.32C153.981,8.2 154.393,7.333 155.218,6.72C156.043,6.107 157.233,5.8 158.787,5.8C160.341,5.8 161.531,6.107 162.356,6.72C163.181,7.333 163.593,8.2 163.593,9.32L163.593,16.68C163.593,17.8 163.181,18.667 162.356,19.28C161.531,19.893 160.341,20.2 158.787,20.2ZM158.787,18.2C159.881,18.2 160.428,17.74 160.428,16.82L160.428,9.18C160.428,8.26 159.881,7.8 158.787,7.8C157.693,7.8 157.147,8.26 157.147,9.18L157.147,16.82C157.147,17.74 157.693,18.2 158.787,18.2Z" style="fill-rule:nonzero;"/>
                <path d="M165.723,6L168.889,6L168.889,18L174.098,18L174.098,20L165.723,20L165.723,6Z" style="fill-rule:nonzero;"/>
            </g>
        </g>
        <g>
            <g transform="matrix(0.428409,0,0,0.369365,410.001,76.3297)">
                <g transform="matrix(1.11114,0,0,1,-0.000227902,0)">
                    <path d="M88.497,13.886C89.632,12.76 90.271,11.226 90.271,9.627C90.271,6.336 89.664,3.628 86.373,3.628C84.774,3.628 83.24,4.267 82.114,5.402L69.455,18.061C62.998,14.106 55.572,12.009 48,12.002C25.841,12.002 12.319,27.704 1.011,44.672C-0.334,46.682 -0.334,49.318 1.011,51.328C5.532,58.36 10.836,64.857 16.821,70.695L5.993,81.524C4.858,82.649 4.219,84.184 4.219,85.782C4.219,89.073 6.927,91.781 10.218,91.781C11.816,91.781 13.351,91.142 14.476,90.007L88.497,13.886ZM13.268,48C25.326,30.792 35.274,24.002 48,24.002C52.383,23.991 56.713,24.963 60.672,26.845L25.301,62.215C20.799,57.915 16.765,53.15 13.268,48Z" style="fill-rule:nonzero;"/>
                </g>
                <g transform="matrix(4.25766,0,0,4.93826,-958.18,-406.153)">
                    <path d="M236.559,88.932C237.792,88.932 238.855,89.669 239.329,90.726C239.499,91.105 235.053,94.699 234.513,94.205C233.906,93.651 233.526,92.852 233.526,91.966C233.526,90.292 234.885,88.932 236.559,88.932Z"/>
                </g>
                <g transform="matrix(1,0,0,1,4.66843,1.58291)">
                    <path d="M94.989,44.672C92.566,41.036 90.008,37.497 87.318,34.119L78.772,42.665C80.073,44.332 81.385,46.078 82.732,48C71.176,64.492 58.66,68.635 46.676,69.183L35.7,80.159C38.791,80.887 41.954,81.266 45.129,81.29C67.288,81.29 83.681,68.296 94.989,51.328C96.334,49.318 96.334,46.682 94.989,44.672Z" style="fill-rule:nonzero;"/>
                </g>
            </g>
        </g>
    </g>
</svg>
