<?xml version="1.0" encoding="UTF-8" standalone="no"?>
<!DOCTYPE svg PUBLIC "-//W3C//DTD SVG 1.1//EN" "http://www.w3.org/Graphics/SVG/1.1/DTD/svg11.dtd">
<svg width="100%" height="100%" viewBox="0 0 130 121" version="1.1" xmlns="http://www.w3.org/2000/svg" xmlns:xlink="http://www.w3.org/1999/xlink" xml:space="preserve" xmlns:serif="http://www.serif.com/" style="fill-rule:evenodd;clip-rule:evenodd;stroke-linejoin:round;stroke-miterlimit:2;">
    <g transform="matrix(1,0,0,1,-1124.9,-28.6174)">
        <g id="Layer_8" transform="matrix(3,0,0,3,654,0)">
            <g id="Dribbble-Light-Preview">
            </g>
        </g>
        <g id="Ebene1">
            <g transform="matrix(4.79283,0,0,4.62617,538.988,-124.046)">
                <path d="M124,39L124,35C124,35 148,35 148,35L148,39L124,39Z" style="fill:rgb(182,221,230);"/>
            </g>
            <g transform="matrix(4.62617,0,0,4.62617,563.075,-123.046)">
                <path d="M148,40.135L148,55L122.703,55L122.703,40.135L148,40.135Z" style="fill:rgb(226,243,238);"/>
            </g>
            <g transform="matrix(4.62617,0,0,4.62617,967.615,-97.9624)">
                <path d="M40.742,51.362L35,51.362C34.448,51.362 34,50.914 34,50.362L34,28.362C34,27.809 34.448,27.362 35,27.362L61,27.362C61.552,27.362 62,27.809 62,28.362L62,50.362C62,50.914 61.552,51.362 61,51.362L50.461,51.362L52.406,49.362L60,49.362L60,35.362L36,35.362L36,49.362L39.446,49.362L40.742,51.362ZM36,33.362L36,29.362C36,29.362 60,29.362 60,29.362L60,33.362L36,33.362Z"/>
            </g>
            <g transform="matrix(0.793859,0,0,1,1096.95,34)">
                <path d="M83.027,8L80.13,8L80.13,6L88.696,6L88.696,8L85.798,8L85.798,20L83.027,20L83.027,8Z" style="fill-rule:nonzero;"/>
                <path d="M90.031,6L97.589,6L97.589,8L92.802,8L92.802,11.7L96.606,11.7L96.606,13.7L92.802,13.7L92.802,18L97.589,18L97.589,20L90.031,20L90.031,6Z" style="fill-rule:nonzero;"/>
                <path d="M99.176,6L103.131,6L104.895,16.02L104.945,16.02L106.709,6L110.664,6L110.664,20L108.044,20L108.044,9.4L107.994,9.4L105.978,20L103.66,20L101.645,9.4L101.595,9.4L101.595,20L99.176,20L99.176,6Z" style="fill-rule:nonzero;"/>
                <path d="M112.73,6L116.811,6C118.189,6 119.222,6.293 119.91,6.88C120.599,7.467 120.943,8.327 120.943,9.46L120.943,10.84C120.943,11.973 120.599,12.833 119.91,13.42C119.222,14.007 118.189,14.3 116.811,14.3L115.501,14.3L115.501,20L112.73,20L112.73,6ZM116.811,12.3C117.265,12.3 117.605,12.2 117.832,12C118.059,11.8 118.172,11.46 118.172,10.98L118.172,9.32C118.172,8.84 118.059,8.5 117.832,8.3C117.605,8.1 117.265,8 116.811,8L115.501,8L115.501,12.3L116.811,12.3Z" style="fill-rule:nonzero;"/>
                <path d="M122.455,6L125.226,6L125.226,18L129.786,18L129.786,20L122.455,20L122.455,6Z" style="fill-rule:nonzero;"/>
                <path d="M133.364,6L137.117,6L139.989,20L137.218,20L136.714,17.22L136.714,17.26L133.565,17.26L133.061,20L130.491,20L133.364,6ZM136.387,15.36L135.152,8.44L135.102,8.44L133.893,15.36L136.387,15.36Z" style="fill-rule:nonzero;"/>
                <path d="M142.332,8L139.435,8L139.435,6L148.001,6L148.001,8L145.104,8L145.104,20L142.332,20L142.332,8Z" style="fill-rule:nonzero;"/>
                <path d="M149.336,6L156.894,6L156.894,8L152.107,8L152.107,11.7L155.912,11.7L155.912,13.7L152.107,13.7L152.107,18L156.894,18L156.894,20L149.336,20L149.336,6Z" style="fill-rule:nonzero;"/>
            </g>
            <g transform="matrix(3,0,0,3,150,5.68434e-14)">
                <path d="M349.39,42.233C349.113,43.258 348.648,44.038 347.989,44.563C347.311,45.104 346.431,45.373 345.356,45.374C345.352,45.375 345.348,45.374 345.345,45.374C344.897,45.374 344.464,45.327 344.074,45.26C344.499,44.666 344.665,43.892 344.805,43.206C344.805,43.206 344.805,43.206 344.805,43.206C344.974,42.373 345.127,41.563 345.702,40.984C346.064,40.62 346.595,40.353 347.397,40.224L349.39,42.233Z" style="fill:rgb(226,243,238);fill-rule:nonzero;"/>
            </g>
            <g transform="matrix(3,0,0,3,150,5.68434e-14)">
                <path d="M351.12,44.887C348.866,47.121 345.87,48.35 342.682,48.35L342.679,48.35C340.634,48.35 337.995,47.497 336.212,46.108C335.053,45.207 334.253,44.081 334.253,42.807C334.252,41.125 335.148,40.477 336.084,39.783C336.084,39.783 336.084,39.783 336.084,39.783C337.051,39.066 338.131,38.244 338.13,36.523C338.13,36.523 338.13,36.523 338.13,36.523C338.13,34.803 337.05,33.98 336.083,33.263C335.146,32.569 334.25,31.92 334.249,30.238C334.249,28.272 336.075,26.929 337.152,26.296C338.8,25.327 340.965,24.7 342.67,24.7L342.671,24.7C345.274,24.701 347.748,25.516 349.825,27.059C351.703,28.455 353.145,30.402 353.926,32.582C354.79,34.99 354.71,37.027 354.426,38.62C354.004,40.981 352.866,43.155 351.12,44.887L351.12,44.887Z" style="fill:rgb(182,221,230);fill-rule:nonzero;"/>
            </g>
            <g transform="matrix(3,0,0,3,150,5.68434e-14)">
                <path d="M349.39,42.233C349.113,43.258 348.648,44.038 347.989,44.563C347.311,45.104 346.431,45.373 345.356,45.374C345.352,45.375 345.348,45.374 345.345,45.374C344.897,45.374 344.464,45.327 344.074,45.26C344.499,44.666 344.665,43.892 344.805,43.206C344.805,43.206 344.805,43.206 344.805,43.206C344.974,42.373 345.127,41.563 345.702,40.984C346.064,40.62 346.595,40.353 347.397,40.224L349.39,42.233Z" style="fill:rgb(226,243,238);fill-rule:nonzero;"/>
            </g>
            <g transform="matrix(3,0,0,3,150,5.68434e-14)">
                <path d="M357.056,33.664C354.921,36.208 352.336,39.065 350.209,41.237L348.426,39.44C350.355,37.52 352.83,35.23 355.139,33.226C355.408,32.993 355.675,32.762 355.939,32.537C358.618,30.252 360.022,29.258 360.739,28.825C360.311,29.546 359.326,30.96 357.056,33.664Z" style="fill:rgb(116,186,220);fill-rule:nonzero;"/>
            </g>
            <path d="M1170.35,130.5C1169.62,131.416 1168.51,131.942 1167.33,131.942C1166.44,131.942 1165.61,131.652 1164.92,131.105C1164.11,130.468 1163.61,129.56 1163.49,128.548C1163.38,127.54 1163.67,126.547 1164.31,125.753C1165.04,124.838 1166.14,124.313 1167.33,124.313C1168.21,124.313 1169.05,124.603 1169.74,125.15C1170.55,125.787 1171.05,126.695 1171.17,127.708C1171.28,128.715 1170.99,129.706 1170.35,130.5ZM1196.12,94.752C1196.46,93.787 1197.15,93.011 1198.08,92.567C1198.62,92.314 1199.18,92.186 1199.76,92.186C1201.24,92.186 1202.61,93.036 1203.25,94.353C1203.69,95.264 1203.75,96.292 1203.42,97.247C1203.08,98.213 1202.38,98.99 1201.45,99.434C1200.92,99.687 1200.36,99.814 1199.78,99.814C1198.3,99.814 1196.93,98.963 1196.29,97.645C1195.84,96.735 1195.78,95.708 1196.12,94.752ZM1162.3,93.549C1161.65,92.753 1161.37,91.758 1161.48,90.749C1161.59,89.738 1162.1,88.832 1162.9,88.198C1163.59,87.651 1164.43,87.363 1165.31,87.363C1166.5,87.363 1167.6,87.888 1168.34,88.801C1168.98,89.594 1169.27,90.586 1169.15,91.594C1169.04,92.608 1168.53,93.517 1167.73,94.155C1167.04,94.701 1166.21,94.99 1165.32,94.99C1164.14,94.99 1163.03,94.464 1162.3,93.549ZM1180.38,83.288C1180.79,81.54 1182.33,80.319 1184.14,80.319C1184.43,80.319 1184.72,80.352 1185.01,80.417C1186.02,80.646 1186.88,81.252 1187.43,82.123C1187.97,82.981 1188.14,83.996 1187.92,84.979C1187.52,86.697 1185.94,87.944 1184.16,87.944C1183.87,87.944 1183.57,87.912 1183.29,87.847C1182.28,87.619 1181.42,87.014 1180.87,86.143C1180.33,85.285 1180.16,84.272 1180.38,83.288Z" style="fill:rgb(226,243,238);fill-rule:nonzero;"/>
            <path d="M1236.26,82.43C1235.9,82.069 1235.27,81.631 1234.26,81.631C1233.76,81.631 1232.84,81.596 1230.05,83.303C1227.45,84.893 1223.09,88.072 1215.62,94.433C1215.53,94.504 1215.45,94.575 1215.37,94.646C1212.62,87.934 1208.01,81.963 1202.14,77.597C1195.13,72.393 1186.79,69.64 1178.02,69.638L1178.01,69.638C1172.08,69.638 1164.87,71.705 1159.2,75.041C1152.13,79.195 1148.29,84.782 1148.29,90.715C1148.29,90.715 1148.29,90.715 1148.29,90.715C1148.29,97.922 1152.33,100.952 1155.59,103.374C1157.98,105.147 1159.93,106.504 1159.93,109.571C1159.93,112.638 1157.98,113.994 1155.6,115.764C1155.6,115.764 1155.6,115.764 1155.6,115.764C1152.33,118.185 1148.3,121.214 1148.3,128.422C1148.3,134.354 1152.15,139.942 1159.21,144.099C1164.89,147.439 1172.1,148.998 1178.03,149L1178.05,149C1188.8,149 1198.9,145.363 1206.5,137.829C1213.95,130.443 1218.12,120.67 1218.29,110.247C1220.75,107.447 1223.13,104.665 1225.31,102.04C1229.12,97.446 1232.05,93.656 1234.02,90.775C1235.64,88.403 1236.69,86.571 1236.97,85.171C1237.2,84.044 1236.97,83.15 1236.26,82.43ZM1203.36,134.661C1196.6,141.362 1187.61,144.051 1178.05,144.051L1178.04,144.051C1171.9,144.049 1163.99,142.49 1158.63,138.325C1155.16,135.62 1152.76,132.242 1152.76,128.42C1152.76,123.375 1155.44,121.43 1158.25,119.348C1158.25,119.348 1158.25,119.348 1158.25,119.348C1161.15,117.199 1164.39,114.733 1164.39,109.57C1164.39,109.57 1164.39,109.57 1164.39,109.57C1164.39,104.408 1161.15,101.941 1158.25,99.79C1155.44,97.707 1152.75,95.76 1152.75,90.714C1152.75,84.817 1158.22,80.788 1161.46,78.888C1166.4,75.981 1172.89,74.099 1178.01,74.099L1178.01,74.099C1185.82,74.102 1193.24,76.549 1199.48,81.178C1205.11,85.364 1209.43,91.207 1211.78,97.745C1204.91,103.758 1197.52,110.631 1191.96,116.2C1188.15,116.729 1185.64,118.08 1183.94,119.797C1181.36,122.396 1180.62,125.866 1180.04,128.727C1180.04,128.727 1180.04,128.727 1180.04,128.727C1179.81,129.875 1179.6,130.845 1179.34,131.648C1179.07,132.483 1178.76,133.122 1178.27,133.563C1177.8,133.99 1177.15,134.213 1176.26,134.285C1176.26,134.285 1176.26,134.285 1176.26,134.285C1175.23,134.367 1174.4,135.143 1174.24,136.161C1174.08,137.179 1174.63,138.175 1175.59,138.569L1186.04,140.585C1189.94,140.585 1193.28,139.63 1195.98,137.765C1195.98,137.765 1195.98,137.765 1195.98,137.765C1199.26,135.496 1201.52,131.922 1202.66,127.124C1205.93,123.819 1209.6,119.919 1213.28,115.86C1212.01,122.942 1208.6,129.465 1203.36,134.661L1203.36,134.661ZM1198.17,126.698C1197.34,129.775 1195.94,132.114 1193.97,133.69C1191.93,135.313 1189.29,136.118 1186.07,136.123C1186.06,136.124 1186.05,136.123 1186.04,136.123C1184.69,136.123 1183.39,135.982 1182.22,135.781C1183.5,133.999 1184,131.676 1184.41,129.617C1184.41,129.617 1184.41,129.617 1184.41,129.617C1184.92,127.12 1185.38,124.689 1187.11,122.953C1188.19,121.86 1189.79,121.06 1192.19,120.672L1198.17,126.698ZM1171.75,122.615C1170.49,121.626 1168.93,121.082 1167.33,121.082C1165.16,121.082 1163.14,122.046 1161.79,123.727C1160.6,125.198 1160.07,127.039 1160.28,128.91C1160.49,130.785 1161.43,132.465 1162.91,133.64C1164.16,134.629 1165.73,135.173 1167.33,135.173C1169.5,135.173 1171.52,134.207 1172.87,132.525C1174.05,131.056 1174.59,129.217 1174.38,127.347C1174.17,125.472 1173.23,123.791 1171.75,122.615ZM1170.35,130.5C1169.62,131.416 1168.51,131.942 1167.33,131.942C1166.44,131.942 1165.61,131.652 1164.92,131.105C1164.11,130.468 1163.61,129.56 1163.49,128.548C1163.38,127.54 1163.67,126.547 1164.31,125.753C1165.04,124.838 1166.14,124.313 1167.33,124.313C1168.21,124.313 1169.05,124.603 1169.74,125.15C1170.55,125.787 1171.05,126.695 1171.17,127.708C1171.28,128.715 1170.99,129.706 1170.35,130.5ZM1221.17,100.993C1214.76,108.624 1207.01,117.194 1200.63,123.71L1195.28,118.32C1201.07,112.559 1208.49,105.691 1215.42,99.679C1216.22,98.978 1217.03,98.287 1217.82,97.612C1225.86,90.757 1230.07,87.773 1232.22,86.475C1230.93,88.637 1227.98,92.881 1221.17,100.993ZM1199.78,103.046C1200.85,103.046 1201.88,102.813 1202.85,102.351C1204.56,101.531 1205.85,100.097 1206.47,98.312C1207.09,96.539 1206.98,94.631 1206.15,92.941C1204.98,90.519 1202.47,88.954 1199.76,88.954C1198.69,88.954 1197.66,89.188 1196.69,89.65C1194.98,90.468 1193.69,91.901 1193.07,93.686C1192.45,95.46 1192.56,97.369 1193.38,99.059C1194.56,101.481 1197.07,103.046 1199.78,103.046ZM1196.12,94.752C1196.46,93.787 1197.15,93.011 1198.08,92.567C1198.62,92.314 1199.18,92.186 1199.76,92.186C1201.24,92.186 1202.61,93.036 1203.25,94.353C1203.69,95.264 1203.75,96.292 1203.42,97.247C1203.08,98.213 1202.38,98.99 1201.45,99.434C1200.92,99.687 1200.36,99.814 1199.78,99.814C1198.3,99.814 1196.93,98.963 1196.29,97.645C1195.84,96.735 1195.78,95.708 1196.12,94.752ZM1169.74,96.688C1171.22,95.512 1172.15,93.831 1172.36,91.956C1172.58,90.086 1172.04,88.247 1170.86,86.775C1169.5,85.095 1167.48,84.131 1165.31,84.131C1163.72,84.131 1162.15,84.674 1160.9,85.661C1159.41,86.835 1158.48,88.513 1158.27,90.387C1158.06,92.259 1158.59,94.101 1159.78,95.575C1161.13,97.257 1163.15,98.222 1165.32,98.222C1166.92,98.222 1168.49,97.677 1169.74,96.688ZM1162.3,93.549C1161.65,92.753 1161.37,91.758 1161.48,90.749C1161.59,89.738 1162.1,88.832 1162.9,88.198C1163.59,87.651 1164.43,87.363 1165.31,87.363C1166.5,87.363 1167.6,87.888 1168.34,88.801C1168.98,89.594 1169.27,90.586 1169.15,91.594C1169.04,92.608 1168.53,93.517 1167.73,94.155C1167.04,94.701 1166.21,94.99 1165.32,94.99C1164.14,94.99 1163.03,94.464 1162.3,93.549ZM1182.58,90.999C1183.1,91.117 1183.63,91.176 1184.16,91.176C1187.48,91.176 1190.33,88.926 1191.07,85.702C1191.49,83.874 1191.16,81.991 1190.16,80.401C1189.16,78.799 1187.58,77.685 1185.73,77.265C1185.2,77.147 1184.67,77.086 1184.14,77.086C1180.82,77.086 1177.98,79.339 1177.24,82.563C1176.81,84.39 1177.13,86.272 1178.13,87.863C1179.14,89.468 1180.72,90.582 1182.58,90.999ZM1180.38,83.288C1180.79,81.54 1182.33,80.319 1184.14,80.319C1184.43,80.319 1184.72,80.352 1185.01,80.417C1186.02,80.646 1186.88,81.252 1187.43,82.123C1187.97,82.981 1188.14,83.996 1187.92,84.979C1187.52,86.697 1185.94,87.944 1184.16,87.944C1183.87,87.944 1183.57,87.912 1183.29,87.847C1182.28,87.619 1181.42,87.014 1180.87,86.143C1180.33,85.285 1180.16,84.272 1180.38,83.288Z" style="fill-rule:nonzero;"/>
        </g>
    </g>
</svg>
