<?xml version="1.0" encoding="UTF-8" standalone="no"?>
<!DOCTYPE svg PUBLIC "-//W3C//DTD SVG 1.1//EN" "http://www.w3.org/Graphics/SVG/1.1/DTD/svg11.dtd">
<svg width="100%" height="100%" viewBox="0 0 130 121" version="1.1" xmlns="http://www.w3.org/2000/svg" xmlns:xlink="http://www.w3.org/1999/xlink" xml:space="preserve" xmlns:serif="http://www.serif.com/" style="fill-rule:evenodd;clip-rule:evenodd;stroke-linejoin:round;stroke-miterlimit:10;">
    <g transform="matrix(1,0,0,1,-241,-28.6174)">
        <g id="Layer_8" transform="matrix(3,0,0,3,654,0)">
            <g transform="matrix(1.54206,0,0,1.54206,-140.751,3.3709)">
                <path d="M5,9L7,9L7,7L5,7L5,9Z"/>
            </g>
            <g transform="matrix(1.54206,0,0,1.54206,-140.751,3.3709)">
                <path d="M8,9L10,9L10,7L8,7L8,9Z"/>
            </g>
            <g transform="matrix(1.54206,0,0,1.54206,-140.751,3.3709)">
                <path d="M11,9L13,9L13,7L11,7L11,9Z"/>
            </g>
            <g transform="matrix(1.54206,0,0,1.54206,-325.798,-41.3487)">
                <path d="M123,57L149,57C149.552,57 150,56.552 150,56L150,34C150,33.448 149.552,33 149,33L123,33C122.448,33 122,33.448 122,34L122,56C122,56.552 122.448,57 123,57ZM148,41L148,55L124,55L124,41L148,41ZM124,39L124,35C124,35 148,35 148,35L148,39L124,39Z"/>
            </g>
            <g id="Dribbble-Light-Preview">
            </g>
            <g transform="matrix(1.54206,0,0,1.54206,-325.798,-41.3487)">
                <path d="M148,41L148,55L124,55L124,41L148,41Z" style="fill:rgb(226,243,238);"/>
            </g>
            <g transform="matrix(-1.19587,0,0,1.08439,-97.0643,19.2697)">
                <rect x="3" y="5" width="26" height="22" style="fill:rgb(116,186,220);fill-rule:nonzero;stroke:black;stroke-width:2px;"/>
            </g>
            <g transform="matrix(-1.16273,0,0,1.08439,-97.2631,26.9364)">
                <path d="M6,10.037L26.118,10.037L26.118,12.111L6,12.111L6,10.037Z"/>
            </g>
            <g transform="matrix(-1.08668,0,0,1.08439,-97.7194,22.603)">
                <path d="M6,10.073L19.149,10.073L19.149,12.075L6,12.075L6,10.073Z"/>
            </g>
            <g transform="matrix(-1.08668,0,0,1.08439,-97.7194,17.9364)">
                <path d="M6,10.073L19.149,10.073L19.149,12.075L6,12.075L6,10.073Z"/>
            </g>
            <g transform="matrix(-1.16273,0,0,1.08439,-97.2631,31.2697)">
                <path d="M6,10.037L26.118,10.037L26.118,12.111L6,12.111L6,10.037Z"/>
            </g>
            <g transform="matrix(1.54206,0,0,1.54206,-325.798,-41.3487)">
                <path d="M124,39L124,35C124,35 148,35 148,35L148,39L124,39Z" style="fill:rgb(182,221,230);"/>
            </g>
            <g transform="matrix(0.305166,0,0,0.333333,-152.282,11.3333)">
                <path d="M63.182,6L65.498,6L66.568,16.76L66.612,16.76L67.748,6L70.369,6L71.505,16.76L71.549,16.76L72.619,6L74.695,6L73.144,20L70.151,20L69.058,10.56L69.015,10.56L67.922,20L64.733,20L63.182,6Z" style="fill-rule:nonzero;"/>
                <path d="M78.125,14.04L75.219,6L77.775,6L79.413,11.14L79.457,11.14L81.096,6L83.433,6L80.528,14.04L80.528,20L78.125,20L78.125,14.04Z" style="fill-rule:nonzero;"/>
                <path d="M87.3,20.2C86.135,20.2 85.254,19.897 84.657,19.29C84.059,18.683 83.761,17.813 83.761,16.68L83.761,15.88L86.033,15.88L86.033,16.84C86.033,17.747 86.448,18.2 87.278,18.2C87.686,18.2 87.995,18.09 88.206,17.87C88.418,17.65 88.523,17.293 88.523,16.8C88.523,16.213 88.378,15.697 88.086,15.25C87.795,14.803 87.256,14.267 86.47,13.64C85.479,12.84 84.788,12.117 84.394,11.47C84.001,10.823 83.805,10.093 83.805,9.28C83.805,8.173 84.11,7.317 84.722,6.71C85.334,6.103 86.222,5.8 87.387,5.8C88.538,5.8 89.408,6.103 89.998,6.71C90.588,7.317 90.883,8.187 90.883,9.32L90.883,9.9L88.611,9.9L88.611,9.18C88.611,8.7 88.509,8.35 88.305,8.13C88.101,7.91 87.802,7.8 87.409,7.8C86.608,7.8 86.208,8.247 86.208,9.14C86.208,9.647 86.357,10.12 86.655,10.56C86.954,11 87.496,11.533 88.283,12.16C89.288,12.96 89.98,13.687 90.358,14.34C90.737,14.993 90.926,15.76 90.926,16.64C90.926,17.787 90.617,18.667 89.998,19.28C89.379,19.893 88.48,20.2 87.3,20.2Z" style="fill-rule:nonzero;"/>
                <rect x="92.303" y="6" width="2.403" height="14" style="fill-rule:nonzero;"/>
                <path d="M95.929,6L98.245,6L99.315,16.76L99.359,16.76L100.495,6L103.116,6L104.252,16.76L104.296,16.76L105.367,6L107.442,6L105.891,20L102.898,20L101.806,10.56L101.762,10.56L100.67,20L97.48,20L95.929,6Z" style="fill-rule:nonzero;"/>
                <path d="M110.872,14.04L107.966,6L110.522,6L112.161,11.14L112.204,11.14L113.843,6L116.18,6L113.275,14.04L113.275,20L110.872,20L110.872,14.04Z" style="fill-rule:nonzero;"/>
                <path d="M120.287,20.2C119.122,20.2 118.234,19.897 117.622,19.29C117.01,18.683 116.705,17.813 116.705,16.68L116.705,9.32C116.705,8.187 117.01,7.317 117.622,6.71C118.234,6.103 119.122,5.8 120.287,5.8C121.452,5.8 122.341,6.103 122.953,6.71C123.564,7.317 123.87,8.187 123.87,9.32L123.87,10.52L121.598,10.52L121.598,9.18C121.598,8.26 121.183,7.8 120.353,7.8C119.523,7.8 119.108,8.26 119.108,9.18L119.108,16.84C119.108,17.747 119.523,18.2 120.353,18.2C121.183,18.2 121.598,17.747 121.598,16.84L121.598,14.1L120.397,14.1L120.397,12.1L123.87,12.1L123.87,16.68C123.87,17.813 123.564,18.683 122.953,19.29C122.341,19.897 121.452,20.2 120.287,20.2Z" style="fill-rule:nonzero;"/>
                <path d="M128.917,6L135.47,6L135.47,8L131.32,8L131.32,11.7L134.618,11.7L134.618,13.7L131.32,13.7L131.32,18L135.47,18L135.47,20L128.917,20L128.917,6Z" style="fill-rule:nonzero;"/>
                <path d="M136.847,6L140.517,6C141.711,6 142.607,6.293 143.204,6.88C143.801,7.467 144.099,8.327 144.099,9.46L144.099,16.54C144.099,17.673 143.801,18.533 143.204,19.12C142.607,19.707 141.711,20 140.517,20L136.847,20L136.847,6ZM140.473,18C140.866,18 141.168,17.893 141.38,17.68C141.591,17.467 141.696,17.12 141.696,16.64L141.696,9.36C141.696,8.88 141.591,8.533 141.38,8.32C141.168,8.107 140.866,8 140.473,8L139.25,8L139.25,18L140.473,18Z" style="fill-rule:nonzero;"/>
                <rect x="145.716" y="6" width="2.403" height="14" style="fill-rule:nonzero;"/>
                <path d="M151.789,8L149.277,8L149.277,6L156.705,6L156.705,8L154.192,8L154.192,20L151.789,20L151.789,8Z" style="fill-rule:nonzero;"/>
                <path d="M161.249,20.2C160.069,20.2 159.166,19.893 158.54,19.28C157.913,18.667 157.6,17.8 157.6,16.68L157.6,9.32C157.6,8.2 157.913,7.333 158.54,6.72C159.166,6.107 160.069,5.8 161.249,5.8C162.428,5.8 163.331,6.107 163.958,6.72C164.584,7.333 164.897,8.2 164.897,9.32L164.897,16.68C164.897,17.8 164.584,18.667 163.958,19.28C163.331,19.893 162.428,20.2 161.249,20.2ZM161.249,18.2C162.079,18.2 162.494,17.74 162.494,16.82L162.494,9.18C162.494,8.26 162.079,7.8 161.249,7.8C160.418,7.8 160.003,8.26 160.003,9.18L160.003,16.82C160.003,17.74 160.418,18.2 161.249,18.2Z" style="fill-rule:nonzero;"/>
                <path d="M166.514,6L170.074,6C171.312,6 172.215,6.263 172.783,6.79C173.351,7.317 173.635,8.127 173.635,9.22L173.635,10.08C173.635,11.533 173.111,12.453 172.062,12.84L172.062,12.88C172.645,13.04 173.056,13.367 173.297,13.86C173.537,14.353 173.657,15.013 173.657,15.84L173.657,18.3C173.657,18.7 173.672,19.023 173.701,19.27C173.73,19.517 173.803,19.76 173.919,20L171.473,20C171.385,19.773 171.327,19.56 171.298,19.36C171.269,19.16 171.254,18.8 171.254,18.28L171.254,15.72C171.254,15.08 171.141,14.633 170.915,14.38C170.69,14.127 170.3,14 169.747,14L168.917,14L168.917,20L166.514,20L166.514,6ZM169.79,12C170.271,12 170.631,11.887 170.872,11.66C171.112,11.433 171.232,11.053 171.232,10.52L171.232,9.44C171.232,8.933 171.134,8.567 170.937,8.34C170.741,8.113 170.431,8 170.009,8L168.917,8L168.917,12L169.79,12Z" style="fill-rule:nonzero;"/>
            </g>
            <g transform="matrix(0.325513,0,0,0.264376,-198.621,-9.50486)">
                <path d="M240.548,170.824L235.831,170.824L233.956,165.105L225.372,165.105L223.6,170.824L219,170.824L227.364,145.645L231.949,145.645L240.548,170.824ZM232.564,160.862L229.605,151.519L226.705,160.862L232.564,160.862Z" style="fill-rule:nonzero;"/>
            </g>
        </g>
    </g>
</svg>
