<?xml version="1.0" encoding="UTF-8" standalone="no"?>
<!DOCTYPE svg PUBLIC "-//W3C//DTD SVG 1.1//EN" "http://www.w3.org/Graphics/SVG/1.1/DTD/svg11.dtd">
<svg width="100%" height="100%" viewBox="0 0 130 121" version="1.1" xmlns="http://www.w3.org/2000/svg" xmlns:xlink="http://www.w3.org/1999/xlink" xml:space="preserve" xmlns:serif="http://www.serif.com/" style="fill-rule:evenodd;clip-rule:evenodd;stroke-linejoin:round;stroke-miterlimit:2;">
    <g transform="matrix(1,0,0,1,-825.047,-28.6174)">
        <g id="Layer_8" transform="matrix(3,0,0,3,654,0)">
            <g id="Dribbble-Light-Preview">
            </g>
        </g>
        <g>
            <g transform="matrix(4.62617,0,0,4.62617,260.607,-124.046)">
                <path d="M124,39L124,35C124,35 148,35 148,35L148,39L124,39Z" style="fill:rgb(182,221,230);"/>
            </g>
            <g transform="matrix(1,0,0,1,429,2.84217e-14)">
                <path d="M518.327,132.393L403.299,132.393L403.299,63.627L518.327,63.627L518.327,132.393Z" style="fill:rgb(226,243,238);"/>
            </g>
            <g transform="matrix(4.62617,0,0,4.62617,667.757,-97.9624)">
                <path d="M39.336,51.362L35,51.362C34.448,51.362 34,50.914 34,50.362L34,28.362C34,27.809 34.448,27.362 35,27.362L61,27.362C61.552,27.362 62,27.809 62,28.362L62,50.362C62,50.914 61.552,51.362 61,51.362L46.297,51.362L48.297,49.362L60,49.362L60,35.362L36,35.362L36,49.362L41.039,49.362L39.336,51.362ZM36,33.362L36,29.362C36,29.362 60,29.362 60,29.362L60,33.362L36,33.362Z"/>
            </g>
            <g transform="matrix(4.62617,0,0,4.62617,493.589,-12.1003)">
                <path d="M72.772,34.802C75.405,32.388 83.201,24.648 83.201,24.648C82.944,22.724 83.599,20.706 85.114,19.32C86.739,17.834 88.941,17.452 90.857,18.116C91.073,18.192 91.234,18.375 91.28,18.599C91.326,18.824 91.251,19.056 91.082,19.211C91.082,19.211 88.236,21.808 88.236,21.808C88.236,21.808 88.681,24.097 88.681,24.097C88.681,24.097 90.78,24.819 90.78,24.819L93.609,22.234C93.782,22.076 94.028,22.023 94.251,22.097C94.474,22.17 94.64,22.358 94.685,22.589C95.084,24.62 94.447,26.812 92.832,28.288C92.832,28.288 92.832,28.288 92.832,28.288C91.229,29.752 89.068,30.144 87.171,29.519L82.053,34.802L80.098,34.802C80.172,34.752 86.551,28.324 86.551,28.324C86.621,28.259 86.705,28.211 86.794,28.183C86.951,28.117 87.13,28.113 87.293,28.179C88.824,28.804 90.635,28.535 91.955,27.328C92.896,26.469 93.412,25.3 93.491,24.103L91.372,26.039C91.196,26.199 90.947,26.251 90.722,26.174L87.904,25.204C87.684,25.129 87.521,24.942 87.477,24.714L86.89,21.698C86.847,21.476 86.922,21.247 87.09,21.094C87.09,21.094 89.263,19.111 89.263,19.111C88.109,19.039 86.927,19.424 85.992,20.279C85.992,20.279 85.992,20.28 85.992,20.28C84.722,21.44 84.225,23.166 84.537,24.765C84.58,24.987 84.505,25.216 84.338,25.369L74.696,34.802L72.772,34.802ZM86.649,28.268L86.618,28.294C86.628,28.285 86.638,28.276 86.649,28.268ZM86.682,28.245L86.656,28.262C86.665,28.256 86.673,28.25 86.682,28.245ZM86.95,28.154L86.939,28.155L86.95,28.154ZM86.965,28.153C86.97,28.153 86.975,28.153 86.979,28.153C86.984,28.153 86.989,28.153 86.994,28.153L86.965,28.153Z"/>
            </g>
            <g transform="matrix(4.62617,0,0,4.62617,493.589,-12.1003)">
                <path d="M74.696,34.802L80.098,34.802C80.172,34.752 86.551,28.324 86.551,28.324C86.621,28.259 86.705,28.211 86.794,28.183C86.951,28.117 87.13,28.113 87.293,28.179C88.824,28.804 90.635,28.535 91.955,27.328C92.896,26.469 93.412,25.3 93.491,24.103L91.372,26.039C91.196,26.199 90.947,26.251 90.722,26.174L87.904,25.204C87.684,25.129 87.521,24.942 87.477,24.714L86.89,21.698C86.847,21.476 86.922,21.247 87.09,21.094C87.09,21.094 89.263,19.111 89.263,19.111C88.109,19.039 86.927,19.424 85.992,20.279C85.992,20.279 85.992,20.28 85.992,20.28C84.722,21.44 84.225,23.166 84.537,24.765C84.58,24.987 84.505,25.216 84.338,25.369L74.696,34.802ZM86.649,28.268L86.618,28.294C86.628,28.285 86.638,28.276 86.649,28.268ZM86.682,28.245L86.656,28.262C86.665,28.256 86.673,28.25 86.682,28.245ZM86.95,28.154L86.939,28.155L86.95,28.154ZM86.965,28.153C86.97,28.153 86.975,28.153 86.979,28.153C86.984,28.153 86.989,28.153 86.994,28.153L86.965,28.153Z" style="fill:rgb(116,186,220);"/>
            </g>
            <g transform="matrix(0.797961,0,0,1,795.098,34)">
                <path d="M63.773,6L67.934,6C69.354,6 70.39,6.263 71.042,6.79C71.693,7.317 72.019,8.127 72.019,9.22L72.019,9.78C72.019,10.5 71.873,11.087 71.581,11.54C71.288,11.993 70.841,12.32 70.24,12.52L70.24,12.56C71.61,12.933 72.295,13.907 72.295,15.48L72.295,16.68C72.295,17.76 71.94,18.583 71.23,19.15C70.52,19.717 69.479,20 68.109,20L63.773,20L63.773,6ZM67.608,11.7C68.159,11.7 68.573,11.587 68.849,11.36C69.124,11.133 69.262,10.753 69.262,10.22L69.262,9.44C69.262,8.933 69.149,8.567 68.924,8.34C68.698,8.113 68.343,8 67.859,8L66.53,8L66.53,11.7L67.608,11.7ZM68.109,18C68.594,18 68.953,17.897 69.187,17.69C69.421,17.483 69.538,17.127 69.538,16.62L69.538,15.4C69.538,14.76 69.4,14.317 69.124,14.07C68.849,13.823 68.393,13.7 67.758,13.7L66.53,13.7L66.53,18L68.109,18Z" style="fill-rule:nonzero;"/>
                <path d="M76.029,6L79.764,6L82.621,20L79.864,20L79.363,17.22L79.363,17.26L76.23,17.26L75.729,20L73.172,20L76.029,6ZM79.037,15.36L77.809,8.44L77.759,8.44L76.556,15.36L79.037,15.36Z" style="fill-rule:nonzero;"/>
                <path d="M87.784,20.2C86.464,20.2 85.458,19.9 84.764,19.3C84.071,18.7 83.724,17.853 83.724,16.76L83.724,9.24C83.724,8.147 84.071,7.3 84.764,6.7C85.458,6.1 86.464,5.8 87.784,5.8C89.104,5.8 90.111,6.1 90.805,6.7C91.498,7.3 91.845,8.147 91.845,9.24L91.845,10.72L89.238,10.72L89.238,9.1C89.238,8.233 88.779,7.8 87.86,7.8C86.941,7.8 86.481,8.233 86.481,9.1L86.481,16.92C86.481,17.773 86.941,18.2 87.86,18.2C88.779,18.2 89.238,17.773 89.238,16.92L89.238,14.78L91.845,14.78L91.845,16.76C91.845,17.853 91.498,18.7 90.805,19.3C90.111,19.9 89.104,20.2 87.784,20.2Z" style="fill-rule:nonzero;"/>
                <path d="M93.499,6L96.256,6L96.256,11.9L99.765,6L102.522,6L99.239,11.14L102.572,20L99.69,20L97.359,13.76L96.256,15.54L96.256,20L93.499,20L93.499,6Z" style="fill-rule:nonzero;"/>
                <path d="M103.875,6L111.395,6L111.395,8L106.632,8L106.632,11.7L110.417,11.7L110.417,13.7L106.632,13.7L106.632,18L111.395,18L111.395,20L103.875,20L103.875,6Z" style="fill-rule:nonzero;"/>
                <path d="M112.974,6L116.432,6L119.114,14.38L119.164,14.38L119.164,6L121.621,6L121.621,20L118.788,20L115.48,9.78L115.43,9.78L115.43,20L112.974,20L112.974,6Z" style="fill-rule:nonzero;"/>
                <path d="M123.676,6L127.887,6C129.257,6 130.284,6.293 130.969,6.88C131.654,7.467 131.997,8.327 131.997,9.46L131.997,16.54C131.997,17.673 131.654,18.533 130.969,19.12C130.284,19.707 129.257,20 127.887,20L123.676,20L123.676,6ZM127.836,18C128.288,18 128.634,17.893 128.877,17.68C129.119,17.467 129.24,17.12 129.24,16.64L129.24,9.36C129.24,8.88 129.119,8.533 128.877,8.32C128.634,8.107 128.288,8 127.836,8L126.433,8L126.433,18L127.836,18Z" style="fill-rule:nonzero;"/>
                <path d="M140.017,8L137.135,8L137.135,6L145.657,6L145.657,8L142.774,8L142.774,20L140.017,20L140.017,8Z" style="fill-rule:nonzero;"/>
                <path d="M150.87,20.2C149.517,20.2 148.481,19.893 147.762,19.28C147.044,18.667 146.684,17.8 146.684,16.68L146.684,9.32C146.684,8.2 147.044,7.333 147.762,6.72C148.481,6.107 149.517,5.8 150.87,5.8C152.224,5.8 153.26,6.107 153.978,6.72C154.697,7.333 155.056,8.2 155.056,9.32L155.056,16.68C155.056,17.8 154.697,18.667 153.978,19.28C153.26,19.893 152.224,20.2 150.87,20.2ZM150.87,18.2C151.823,18.2 152.299,17.74 152.299,16.82L152.299,9.18C152.299,8.26 151.823,7.8 150.87,7.8C149.918,7.8 149.441,8.26 149.441,9.18L149.441,16.82C149.441,17.74 149.918,18.2 150.87,18.2Z" style="fill-rule:nonzero;"/>
                <path d="M160.896,20.2C159.542,20.2 158.506,19.893 157.788,19.28C157.069,18.667 156.71,17.8 156.71,16.68L156.71,9.32C156.71,8.2 157.069,7.333 157.788,6.72C158.506,6.107 159.542,5.8 160.896,5.8C162.249,5.8 163.285,6.107 164.004,6.72C164.722,7.333 165.081,8.2 165.081,9.32L165.081,16.68C165.081,17.8 164.722,18.667 164.004,19.28C163.285,19.893 162.249,20.2 160.896,20.2ZM160.896,18.2C161.848,18.2 162.324,17.74 162.324,16.82L162.324,9.18C162.324,8.26 161.848,7.8 160.896,7.8C159.943,7.8 159.467,8.26 159.467,9.18L159.467,16.82C159.467,17.74 159.943,18.2 160.896,18.2Z" style="fill-rule:nonzero;"/>
                <path d="M166.936,6L169.693,6L169.693,18L174.23,18L174.23,20L166.936,20L166.936,6Z" style="fill-rule:nonzero;"/>
            </g>
        </g>
    </g>
</svg>
