<?xml version="1.0" encoding="UTF-8" standalone="no"?>
<!DOCTYPE svg PUBLIC "-//W3C//DTD SVG 1.1//EN" "http://www.w3.org/Graphics/SVG/1.1/DTD/svg11.dtd">
<svg width="100%" height="100%" viewBox="0 0 130 121" version="1.1" xmlns="http://www.w3.org/2000/svg" xmlns:xlink="http://www.w3.org/1999/xlink" xml:space="preserve" xmlns:serif="http://www.serif.com/" style="fill-rule:evenodd;clip-rule:evenodd;stroke-linejoin:round;stroke-miterlimit:2;">
    <g transform="matrix(1,0,0,1,-972.467,-28.6174)">
        <g id="Layer_8" transform="matrix(3,0,0,3,654,0)">
            <g id="Dribbble-Light-Preview">
            </g>
            <g transform="matrix(1.59761,0,0,1.54206,-89.3375,-41.3487)">
                <path d="M124,39L124,35C124,35 148,35 148,35L148,39L124,39Z" style="fill:rgb(182,221,230);"/>
            </g>
            <g transform="matrix(1.54206,0,0,1.54206,-80.9751,-41.0154)">
                <path d="M148,40.135L148,55L122.703,55L122.703,40.135L148,40.135Z" style="fill:rgb(226,243,238);"/>
            </g>
            <g transform="matrix(1.54206,0,0,1.54206,53.7259,-32.6541)">
                <path d="M41.391,51.362L35,51.362C34.448,51.362 34,50.914 34,50.362L34,28.362C34,27.809 34.448,27.362 35,27.362L61,27.362C61.552,27.362 62,27.809 62,28.362L62,50.362C62,50.914 61.552,51.362 61,51.362L55,51.362L55,49.362L60,49.362L60,35.362L36,35.362L36,49.362L41.391,49.362L41.391,51.362ZM36,33.362L36,29.362C36,29.362 60,29.362 60,29.362L60,33.362L36,33.362Z"/>
            </g>
            <g transform="matrix(0.980426,0,-0.00628378,0.892275,-43.6953,14.5112)">
                <path d="M166.014,30.481C165.904,30.488 165.794,30.513 165.686,30.557C164.248,31.147 163.106,32.495 162.86,34.037C162.856,34.062 162.853,34.087 162.851,34.112C162.8,34.715 162.817,35.441 163.056,36.069C163.882,38.246 165.985,39.516 168.126,39.347C168.211,39.346 168.301,39.342 168.395,39.334L185.536,39.379C185.536,39.379 186.025,39.379 186.025,39.379C186.066,39.379 186.106,39.377 186.147,39.372C189.412,38.98 191.036,34.873 189.33,31.981C189.331,31.982 185.298,22.04 184.042,19.058C185.064,18.726 185.968,18.045 186.506,17.114C186.519,17.092 186.53,17.069 186.541,17.046C186.801,16.507 187.041,15.827 187.041,15.152C187.041,12.298 184.775,9.982 182.031,9.982C181.944,9.982 181.861,9.992 181.781,10.013C181.701,9.992 181.618,9.982 181.532,9.982L165.063,9.982C164.948,9.982 164.834,9.986 164.721,9.994C164.669,9.986 164.617,9.982 164.564,9.982L164.065,9.982C164.024,9.982 163.984,9.984 163.943,9.989C160.668,10.382 158.944,14.376 160.76,17.281C161.104,18.153 163.866,25.132 166.014,30.481ZM166.746,32.298C166.665,32.366 166.573,32.423 166.47,32.466C165.691,32.785 165.052,33.494 164.903,34.334C164.878,34.647 164.864,35.017 164.985,35.337C165.418,36.477 166.44,37.21 167.545,37.29C167.623,37.276 167.718,37.276 167.83,37.294C167.832,37.295 167.834,37.295 167.837,37.296C168.075,37.288 168.314,37.249 168.551,37.178C168.565,37.126 168.55,37.054 168.542,36.964C168.52,36.706 168.428,36.391 168.263,36.001C167.936,35.231 167.394,33.903 166.746,32.298ZM181.928,19.284L168.391,19.284C166.672,19.555 166.227,17.534 166.946,17.263C166.946,17.263 167.361,16.909 167.547,16.573C168.004,15.74 168.147,14.45 167.156,13.185C167.151,13.179 167.146,13.173 167.142,13.167C166.637,12.492 165.856,12.018 165.063,12.018C163.416,12.018 162.088,13.439 162.088,15.152L162.088,15.155C162.154,15.535 162.295,15.91 162.521,16.254C162.559,16.312 162.591,16.374 162.616,16.438C162.616,16.438 168.642,31.681 170.138,35.205C170.497,36.053 170.609,36.724 170.575,37.255L185.507,37.343C185.513,37.343 185.52,37.343 185.526,37.343C185.526,37.343 185.959,37.343 185.964,37.342C186.841,37.212 187.464,36.564 187.771,35.773C188.111,34.9 188.081,33.84 187.552,32.976C187.526,32.932 187.502,32.887 187.483,32.84L181.928,19.284ZM181.781,11.987C181.701,12.008 181.618,12.018 181.532,12.018L168.827,12.018C170.28,13.937 170.118,15.886 169.486,17.248L182.629,17.248C183.459,17.248 184.296,16.838 184.727,16.12C184.861,15.838 185.005,15.497 185.005,15.152C185.005,13.439 183.678,12.018 182.031,12.018C181.944,12.018 181.861,12.008 181.781,11.987Z"/>
            </g>
            <g transform="matrix(0.980426,0,-0.00628378,0.892275,-43.6953,14.5112)">
                <path d="M166.746,32.298C166.665,32.366 166.573,32.423 166.47,32.466C165.691,32.785 165.052,33.494 164.903,34.334C164.878,34.647 164.864,35.017 164.985,35.337C165.418,36.477 166.44,37.21 167.545,37.29C167.623,37.276 167.718,37.276 167.83,37.294C167.832,37.295 167.834,37.295 167.837,37.296C168.075,37.288 168.314,37.249 168.551,37.178C168.565,37.126 168.55,37.054 168.542,36.964C168.52,36.706 168.428,36.391 168.263,36.001C167.936,35.231 167.394,33.903 166.746,32.298ZM181.781,11.987C181.701,12.008 181.618,12.018 181.532,12.018L168.827,12.018C170.28,13.937 170.118,15.886 169.486,17.248L182.629,17.248C183.459,17.248 184.296,16.838 184.727,16.12C184.861,15.838 185.005,15.497 185.005,15.152C185.005,13.439 183.678,12.018 182.031,12.018C181.944,12.018 181.861,12.008 181.781,11.987Z" style="fill:rgb(116,186,220);"/>
            </g>
            <g transform="matrix(0.980426,0,-0.00628378,0.892275,-43.6953,14.5112)">
                <path d="M181.928,19.284L168.391,19.284C166.672,19.555 166.227,17.534 166.946,17.263C166.946,17.263 167.361,16.909 167.547,16.573C168.004,15.74 168.147,14.45 167.156,13.185C167.151,13.179 167.146,13.173 167.142,13.167C166.637,12.492 165.856,12.018 165.063,12.018C163.416,12.018 162.088,13.439 162.088,15.152L162.088,15.155C162.154,15.535 162.295,15.91 162.521,16.254C162.559,16.312 162.591,16.374 162.616,16.438C162.616,16.438 168.642,31.681 170.138,35.205C170.497,36.053 170.609,36.724 170.575,37.255L185.507,37.343C185.513,37.343 185.52,37.343 185.526,37.343C185.526,37.343 185.959,37.343 185.964,37.342C186.841,37.212 187.464,36.564 187.771,35.773C188.111,34.9 188.081,33.84 187.552,32.976C187.526,32.932 187.502,32.887 187.483,32.84L181.928,19.284Z" style="fill:rgb(182,221,230);"/>
            </g>
            <g transform="matrix(0.26462,0,0,0.333333,96.3715,11.3333)">
                <rect x="64.195" y="6" width="2.771" height="14" style="fill-rule:nonzero;"/>
                <path d="M69.032,6L72.509,6L75.205,14.38L75.255,14.38L75.255,6L77.724,6L77.724,20L74.877,20L71.552,9.78L71.501,9.78L71.501,20L69.032,20L69.032,6Z" style="fill-rule:nonzero;"/>
                <rect x="79.79" y="6" width="2.771" height="14" style="fill-rule:nonzero;"/>
                <path d="M86.794,8L83.896,8L83.896,6L92.462,6L92.462,8L89.565,8L89.565,20L86.794,20L86.794,8Z" style="fill-rule:nonzero;"/>
                <rect x="93.797" y="6" width="2.771" height="14" style="fill-rule:nonzero;"/>
                <path d="M100.776,6L104.53,6L107.402,20L104.63,20L104.127,17.22L104.127,17.26L100.977,17.26L100.474,20L97.904,20L100.776,6ZM103.799,15.36L102.565,8.44L102.514,8.44L101.305,15.36L103.799,15.36Z" style="fill-rule:nonzero;"/>
                <path d="M108.737,6L111.508,6L111.508,18L116.068,18L116.068,20L108.737,20L108.737,6Z" style="fill-rule:nonzero;"/>
                <rect x="117.403" y="6" width="2.771" height="14" style="fill-rule:nonzero;"/>
                <path d="M121.686,18.04L126.826,8L121.938,8L121.938,6L129.799,6L129.799,7.96L124.659,18L129.799,18L129.799,20L121.686,20L121.686,18.04Z" style="fill-rule:nonzero;"/>
                <path d="M133.502,6L137.256,6L140.128,20L137.357,20L136.853,17.22L136.853,17.26L133.704,17.26L133.2,20L130.63,20L133.502,6ZM136.525,15.36L135.291,8.44L135.24,8.44L134.031,15.36L136.525,15.36Z" style="fill-rule:nonzero;"/>
                <path d="M142.471,8L139.574,8L139.574,6L148.139,6L148.139,8L145.242,8L145.242,20L142.471,20L142.471,8Z" style="fill-rule:nonzero;"/>
                <rect x="149.475" y="6" width="2.771" height="14" style="fill-rule:nonzero;"/>
                <path d="M158.318,20.2C156.957,20.2 155.916,19.893 155.194,19.28C154.471,18.667 154.11,17.8 154.11,16.68L154.11,9.32C154.11,8.2 154.471,7.333 155.194,6.72C155.916,6.107 156.957,5.8 158.318,5.8C159.678,5.8 160.719,6.107 161.442,6.72C162.164,7.333 162.525,8.2 162.525,9.32L162.525,16.68C162.525,17.8 162.164,18.667 161.442,19.28C160.719,19.893 159.678,20.2 158.318,20.2ZM158.318,18.2C159.275,18.2 159.754,17.74 159.754,16.82L159.754,9.18C159.754,8.26 159.275,7.8 158.318,7.8C157.36,7.8 156.882,8.26 156.882,9.18L156.882,16.82C156.882,17.74 157.36,18.2 158.318,18.2Z" style="fill-rule:nonzero;"/>
                <path d="M164.389,6L167.866,6L170.562,14.38L170.612,14.38L170.612,6L173.081,6L173.081,20L170.234,20L166.909,9.78L166.858,9.78L166.858,20L164.389,20L164.389,6Z" style="fill-rule:nonzero;"/>
            </g>
        </g>
        <g>
            <g transform="matrix(0.348937,0,0.0680635,0.300846,1019.42,97.5943)">
                <g transform="matrix(1.11114,0,0,1,-0.000227902,0)">
                    <path d="M88.497,13.886C89.632,12.76 90.271,11.226 90.271,9.627C90.271,6.336 89.664,3.628 86.373,3.628C84.774,3.628 83.24,4.267 82.114,5.402L69.455,18.061C62.998,14.106 55.572,12.009 48,12.002C25.841,12.002 12.319,27.704 1.011,44.672C-0.334,46.682 -0.334,49.318 1.011,51.328C5.532,58.36 10.836,64.857 16.821,70.695L5.993,81.524C4.858,82.649 4.219,84.184 4.219,85.782C4.219,89.073 6.927,91.781 10.218,91.781C11.816,91.781 13.351,91.142 14.476,90.007L88.497,13.886ZM13.268,48C25.326,30.792 35.274,24.002 48,24.002C52.383,23.991 56.713,24.963 60.672,26.845L25.301,62.215C20.799,57.915 16.765,53.15 13.268,48Z" style="fill-rule:nonzero;"/>
                </g>
                <g transform="matrix(4.25766,0,0,4.93826,-958.18,-406.153)">
                    <path d="M236.559,88.932C237.792,88.932 238.855,89.669 239.329,90.726C239.499,91.105 235.053,94.699 234.513,94.205C233.906,93.651 233.526,92.852 233.526,91.966C233.526,90.292 234.885,88.932 236.559,88.932Z"/>
                </g>
                <g transform="matrix(1,0,0,1,4.66843,1.58291)">
                    <path d="M94.989,44.672C92.566,41.036 90.008,37.497 87.318,34.119L78.772,42.665C80.073,44.332 81.385,46.078 82.732,48C71.176,64.492 58.66,68.635 46.676,69.183L35.7,80.159C38.791,80.887 41.954,81.266 45.129,81.29C67.288,81.29 83.681,68.296 94.989,51.328C96.334,49.318 96.334,46.682 94.989,44.672Z" style="fill-rule:nonzero;"/>
                </g>
            </g>
        </g>
    </g>
</svg>
