<?xml version="1.0" encoding="UTF-8" standalone="no"?>
<!DOCTYPE svg PUBLIC "-//W3C//DTD SVG 1.1//EN" "http://www.w3.org/Graphics/SVG/1.1/DTD/svg11.dtd">
<svg width="100%" height="100%" viewBox="0 0 130 121" version="1.1" xmlns="http://www.w3.org/2000/svg" xmlns:xlink="http://www.w3.org/1999/xlink" xml:space="preserve" xmlns:serif="http://www.serif.com/" style="fill-rule:evenodd;clip-rule:evenodd;stroke-linejoin:round;stroke-miterlimit:2;">
    <g transform="matrix(1,0,0,1,-681.467,-28.6174)">
        <g id="Layer_8" transform="matrix(3,0,0,3,654,0)">
            <g transform="matrix(1.56983,0,0,1.54206,-182.575,-41.3487)">
                <path d="M124,39L124,35C124,35 148,35 148,35L148,39L124,39Z" style="fill:rgb(182,221,230);"/>
            </g>
            <g transform="matrix(1.54206,0,0,1.54206,-177.651,-41.0154)">
                <path d="M148,40.135L148,55L122.703,55L122.703,40.135L148,40.135Z" style="fill:rgb(226,243,238);"/>
            </g>
            <g transform="matrix(1.54206,0,0,1.54206,-43.2741,-32.6541)">
                <path d="M41.391,51.362L35,51.362C34.448,51.362 34,50.914 34,50.362L34,28.362C34,27.809 34.448,27.362 35,27.362L61,27.362C61.552,27.362 62,27.809 62,28.362L62,50.362C62,50.914 61.552,51.362 61,51.362L55,51.362L55,49.362L60,49.362L60,35.362L36,35.362L36,49.362L41.391,49.362L41.391,51.362ZM36,33.362L36,29.362C36,29.362 60,29.362 60,29.362L60,33.362L36,33.362Z"/>
            </g>
            <g transform="matrix(0.980426,0,-0.00628378,0.892275,-140.695,14.5112)">
                <path d="M166.014,30.481C165.904,30.488 165.794,30.513 165.686,30.557C164.248,31.147 163.106,32.495 162.86,34.037C162.856,34.062 162.853,34.087 162.851,34.112C162.8,34.715 162.817,35.441 163.056,36.069C163.882,38.246 165.985,39.516 168.126,39.347C168.211,39.346 168.301,39.342 168.395,39.334L185.534,39.006C185.534,39.006 186.023,39.006 186.023,39.006C186.064,39.006 186.104,39.003 186.144,38.998C189.41,38.607 191.034,34.5 189.328,31.607C189.329,31.609 185.298,22.04 184.042,19.058C185.064,18.726 185.968,18.045 186.506,17.114C186.519,17.092 186.53,17.069 186.541,17.046C186.801,16.507 187.041,15.827 187.041,15.152C187.041,12.298 184.775,9.982 182.031,9.982C181.944,9.982 181.861,9.992 181.781,10.013C181.701,9.992 181.618,9.982 181.532,9.982L165.063,9.982C164.948,9.982 164.834,9.986 164.721,9.994C164.669,9.986 164.617,9.982 164.564,9.982L164.065,9.982C164.024,9.982 163.984,9.984 163.943,9.989C160.668,10.382 158.944,14.376 160.76,17.281C161.104,18.153 163.866,25.132 166.014,30.481ZM166.746,32.298C166.665,32.366 166.573,32.423 166.47,32.466C165.691,32.785 165.052,33.494 164.903,34.334C164.878,34.647 164.864,35.017 164.985,35.337C165.418,36.477 166.44,37.21 167.545,37.29C167.623,37.276 167.718,37.276 167.83,37.294C167.832,37.295 167.834,37.295 167.837,37.296C168.075,37.288 168.314,37.249 168.551,37.178C168.565,37.126 168.55,37.054 168.542,36.964C168.52,36.706 168.428,36.391 168.263,36.001C167.936,35.231 167.394,33.903 166.746,32.298ZM181.928,19.284L168.391,19.284C166.672,19.555 166.227,17.534 166.946,17.263C166.946,17.263 167.361,16.909 167.547,16.573C168.004,15.74 168.147,14.45 167.156,13.185C167.151,13.179 167.146,13.173 167.142,13.167C166.637,12.492 165.856,12.018 165.063,12.018C163.416,12.018 162.088,13.439 162.088,15.152L162.088,15.155C162.154,15.535 162.295,15.91 162.521,16.254C162.559,16.312 162.591,16.374 162.616,16.438C162.616,16.438 168.642,31.681 170.138,35.205C170.497,36.053 170.609,36.724 170.575,37.255L185.505,36.969C185.511,36.969 185.517,36.969 185.524,36.969C185.524,36.969 185.956,36.969 185.961,36.969C186.838,36.838 187.461,36.19 187.769,35.4C188.109,34.526 188.078,33.466 187.55,32.602C187.523,32.559 187.5,32.513 187.48,32.466L181.928,19.284ZM181.781,11.987C181.701,12.008 181.618,12.018 181.532,12.018L168.827,12.018C170.28,13.937 170.118,15.886 169.486,17.248L182.629,17.248C183.459,17.248 184.296,16.838 184.727,16.12C184.861,15.838 185.005,15.497 185.005,15.152C185.005,13.439 183.678,12.018 182.031,12.018C181.944,12.018 181.861,12.008 181.781,11.987Z"/>
            </g>
            <g transform="matrix(0.980426,0,-0.00628378,0.892275,-140.695,14.5112)">
                <path d="M166.746,32.298C166.665,32.366 166.573,32.423 166.47,32.466C165.691,32.785 165.052,33.494 164.903,34.334C164.878,34.647 164.864,35.017 164.985,35.337C165.418,36.477 166.44,37.21 167.545,37.29C167.623,37.276 167.718,37.276 167.83,37.294C167.832,37.295 167.834,37.295 167.837,37.296C168.075,37.288 168.314,37.249 168.551,37.178C168.565,37.126 168.55,37.054 168.542,36.964C168.52,36.706 168.428,36.391 168.263,36.001C167.936,35.231 167.394,33.903 166.746,32.298ZM181.781,11.987C181.701,12.008 181.618,12.018 181.532,12.018L168.827,12.018C170.28,13.937 170.118,15.886 169.486,17.248L182.629,17.248C183.459,17.248 184.296,16.838 184.727,16.12C184.861,15.838 185.005,15.497 185.005,15.152C185.005,13.439 183.678,12.018 182.031,12.018C181.944,12.018 181.861,12.008 181.781,11.987Z" style="fill:rgb(116,186,220);"/>
            </g>
            <g transform="matrix(0.980426,0,-0.00628378,0.892275,-140.695,14.5112)">
                <path d="M181.928,19.284L168.391,19.284C166.672,19.555 166.227,17.534 166.946,17.263C166.946,17.263 167.361,16.909 167.547,16.573C168.004,15.74 168.147,14.45 167.156,13.185C167.151,13.179 167.146,13.173 167.142,13.167C166.637,12.492 165.856,12.018 165.063,12.018C163.416,12.018 162.088,13.439 162.088,15.152L162.088,15.155C162.154,15.535 162.295,15.91 162.521,16.254C162.559,16.312 162.591,16.374 162.616,16.438C162.616,16.438 168.642,31.681 170.138,35.205C170.497,36.053 170.609,36.724 170.575,37.255L185.505,36.969C185.511,36.969 185.517,36.969 185.524,36.969C185.524,36.969 185.956,36.969 185.961,36.969C186.838,36.838 187.461,36.19 187.769,35.4C188.109,34.526 188.078,33.466 187.55,32.602C187.523,32.559 187.5,32.513 187.48,32.466L181.928,19.284Z" style="fill:rgb(182,221,230);"/>
            </g>
            <g transform="matrix(0.825622,0,0.296314,0.682753,-1006.04,-2099.38)">
                <g id="Dribbble-Light-Preview">
                    <g id="icons">
                        <path id="code---1115-" serif:id="code-[#1115]" d="M129.204,3126.42C129.587,3126.03 129.587,3125.41 129.204,3125.02L129.191,3125.01C128.808,3124.62 128.187,3124.62 127.803,3125.01L124.288,3128.55C123.904,3128.94 123.904,3129.57 124.288,3129.95L127.803,3133.5C128.187,3133.89 128.808,3133.89 129.191,3133.5L129.204,3133.49C129.587,3133.1 129.587,3132.48 129.204,3132.09L127.09,3129.95C126.707,3129.57 126.707,3128.94 127.09,3128.55L129.204,3126.42ZM142.712,3128.55L139.197,3125.01C138.814,3124.62 138.192,3124.62 137.809,3125.01L137.796,3125.02C137.413,3125.41 137.413,3126.03 137.796,3126.42L139.911,3128.55C140.294,3128.94 140.294,3129.57 139.911,3129.95L137.796,3132.09C137.413,3132.48 137.413,3133.1 137.796,3133.49L137.809,3133.5C138.192,3133.89 138.814,3133.89 139.197,3133.5L142.712,3129.95C143.096,3129.57 143.096,3128.94 142.712,3128.55ZM136.809,3124.41L131.747,3135.24C131.583,3135.58 131.295,3136 130.924,3136L130.904,3136C130.183,3136 129.712,3135.02 130.031,3134.36L135.064,3123.63C135.228,3123.29 135.836,3123.03 135.836,3123.03L135.836,3123C136.818,3123 137.128,3123.75 136.809,3124.41Z"/>
                    </g>
                </g>
            </g>
            <g transform="matrix(0.231637,0,0,0.333333,3.18574,11.3333)">
                <path d="M88.102,20.2C86.567,20.2 85.406,19.897 84.619,19.29C83.833,18.683 83.439,17.813 83.439,16.68L83.439,15.88L86.432,15.88L86.432,16.84C86.432,17.747 86.979,18.2 88.073,18.2C88.61,18.2 89.018,18.09 89.296,17.87C89.574,17.65 89.713,17.293 89.713,16.8C89.713,16.213 89.522,15.697 89.138,15.25C88.754,14.803 88.044,14.267 87.008,13.64C85.703,12.84 84.792,12.117 84.274,11.47C83.756,10.823 83.497,10.093 83.497,9.28C83.497,8.173 83.9,7.317 84.706,6.71C85.511,6.103 86.682,5.8 88.217,5.8C89.733,5.8 90.879,6.103 91.656,6.71C92.433,7.317 92.822,8.187 92.822,9.32L92.822,9.9L89.829,9.9L89.829,9.18C89.829,8.7 89.694,8.35 89.426,8.13C89.157,7.91 88.764,7.8 88.246,7.8C87.19,7.8 86.663,8.247 86.663,9.14C86.663,9.647 86.859,10.12 87.253,10.56C87.646,11 88.361,11.533 89.397,12.16C90.721,12.96 91.632,13.687 92.131,14.34C92.63,14.993 92.879,15.76 92.879,16.64C92.879,17.787 92.472,18.667 91.656,19.28C90.841,19.893 89.656,20.2 88.102,20.2Z" style="fill-rule:nonzero;"/>
                <path d="M94.692,6L98.664,6L101.744,14.38L101.801,14.38L101.801,6L104.622,6L104.622,20L101.37,20L97.571,9.78L97.513,9.78L97.513,20L94.692,20L94.692,6Z" style="fill-rule:nonzero;"/>
                <rect x="106.982" y="6" width="3.166" height="14" style="fill-rule:nonzero;"/>
                <path d="M112.508,6L117.17,6C118.744,6 119.924,6.293 120.71,6.88C121.497,7.467 121.89,8.327 121.89,9.46L121.89,10.84C121.89,11.973 121.497,12.833 120.71,13.42C119.924,14.007 118.744,14.3 117.17,14.3L115.674,14.3L115.674,20L112.508,20L112.508,6ZM117.17,12.3C117.688,12.3 118.077,12.2 118.336,12C118.595,11.8 118.724,11.46 118.724,10.98L118.724,9.32C118.724,8.84 118.595,8.5 118.336,8.3C118.077,8.1 117.688,8 117.17,8L115.674,8L115.674,12.3L117.17,12.3Z" style="fill-rule:nonzero;"/>
                <path d="M123.617,6L128.28,6C129.853,6 131.033,6.293 131.82,6.88C132.606,7.467 133,8.327 133,9.46L133,10.84C133,11.973 132.606,12.833 131.82,13.42C131.033,14.007 129.853,14.3 128.28,14.3L126.783,14.3L126.783,20L123.617,20L123.617,6ZM128.28,12.3C128.798,12.3 129.186,12.2 129.445,12C129.704,11.8 129.834,11.46 129.834,10.98L129.834,9.32C129.834,8.84 129.704,8.5 129.445,8.3C129.186,8.1 128.798,8 128.28,8L126.783,8L126.783,12.3L128.28,12.3Z" style="fill-rule:nonzero;"/>
                <path d="M134.726,6L143.361,6L143.361,8L137.892,8L137.892,11.7L142.238,11.7L142.238,13.7L137.892,13.7L137.892,18L143.361,18L143.361,20L134.726,20L134.726,6Z" style="fill-rule:nonzero;"/>
                <path d="M147.649,8L144.339,8L144.339,6L154.125,6L154.125,8L150.815,8L150.815,20L147.649,20L147.649,8Z" style="fill-rule:nonzero;"/>
            </g>
        </g>
    </g>
</svg>
