<?xml version="1.0" encoding="UTF-8" standalone="no"?>
<!DOCTYPE svg PUBLIC "-//W3C//DTD SVG 1.1//EN" "http://www.w3.org/Graphics/SVG/1.1/DTD/svg11.dtd">
<svg width="100%" height="100%" viewBox="0 0 130 121" version="1.1" xmlns="http://www.w3.org/2000/svg" xmlns:xlink="http://www.w3.org/1999/xlink" xml:space="preserve" xmlns:serif="http://www.serif.com/" style="fill-rule:evenodd;clip-rule:evenodd;stroke-linejoin:round;stroke-miterlimit:2;">
    <g transform="matrix(1,0,0,1,-49.7432,-28.6174)">
        <g id="Layer_8" transform="matrix(3,0,0,3,654,0)">
            <g transform="matrix(1.54206,0,0,1.54206,-389.464,-41.3487)">
                <path d="M124,39L124,35C124,35 148,35 148,35L148,39L124,39Z" style="fill:rgb(182,221,230);"/>
            </g>
            <g transform="matrix(1.59761,0,0,1.63729,-397.686,-46.2535)">
                <path d="M148,41L148,55L124,55L124,41L148,41Z" style="fill:rgb(226,243,238);"/>
            </g>
            <g transform="matrix(0.0470071,0,0,0.0470071,-282.179,-59.1418)">
                <path d="M2413,1832.93L2330.29,1754.03L2226.52,1754.03C2211.33,1754.03 2199,1766.37 2199,1781.56L2199,1988.48C2199,2003.67 2211.33,2016 2226.52,2016L2385.48,2016C2400.67,2016 2413,2003.67 2413,1988.48L2413,1832.93ZM2330.7,1789.93L2382.85,1837.68L2330.44,1838L2330.7,1789.93Z"/>
            </g>
            <g transform="matrix(0.0470071,0,0,0.0470071,-282.179,-45.0996)">
                <path d="M2413,1832.93L2330.29,1754.03L2226.52,1754.03C2211.33,1754.03 2199,1766.37 2199,1781.56L2199,1988.48C2199,2003.67 2211.33,2016 2226.52,2016L2385.48,2016C2400.67,2016 2413,2003.67 2413,1988.48L2413,1832.93ZM2330.7,1789.93L2382.85,1837.68L2330.44,1838L2330.7,1789.93Z"/>
            </g>
            <g transform="matrix(-1.54206,0,0,1.54206,-105.811,-32.6541)">
                <path d="M41.066,51.362L35,51.362C34.448,51.362 34,50.914 34,50.362L34,28.362C34,27.809 34.448,27.362 35,27.362L61,27.362C61.552,27.362 62,27.809 62,28.362L62,50.362C62,50.914 61.552,51.362 61,51.362L46.945,51.362L47,49.362L60,49.362L60,35.362L36,35.362L36,49.362L41.039,49.362L41.066,51.362ZM36,33.362L36,29.362C36,29.362 60,29.362 60,29.362L60,33.362L36,33.362Z"/>
            </g>
            <g id="Dribbble-Light-Preview">
            </g>
            <g transform="matrix(0.193157,0,0,0.333333,-203.035,11.3333)">
                <path d="M65.262,6L70.853,6C72.74,6 74.155,6.293 75.098,6.88C76.042,7.467 76.513,8.327 76.513,9.46L76.513,10.84C76.513,11.973 76.042,12.833 75.098,13.42C74.155,14.007 72.74,14.3 70.853,14.3L69.058,14.3L69.058,20L65.262,20L65.262,6ZM70.853,12.3C71.474,12.3 71.94,12.2 72.251,12C72.562,11.8 72.717,11.46 72.717,10.98L72.717,9.32C72.717,8.84 72.562,8.5 72.251,8.3C71.94,8.1 71.474,8 70.853,8L69.058,8L69.058,12.3L70.853,12.3Z" style="fill-rule:nonzero;"/>
                <path d="M80.31,6L85.453,6L89.387,20L85.591,20L84.9,17.22L84.9,17.26L80.586,17.26L79.896,20L76.375,20L80.31,6ZM84.452,15.36L82.76,8.44L82.691,8.44L81.035,15.36L84.452,15.36Z" style="fill-rule:nonzero;"/>
                <path d="M96.532,20.2C94.691,20.2 93.287,19.897 92.321,19.29C91.354,18.683 90.871,17.813 90.871,16.68L90.871,9.32C90.871,8.187 91.354,7.317 92.321,6.71C93.287,6.103 94.691,5.8 96.532,5.8C98.372,5.8 99.776,6.103 100.742,6.71C101.709,7.317 102.192,8.187 102.192,9.32L102.192,10.52L98.602,10.52L98.602,9.18C98.602,8.26 97.947,7.8 96.635,7.8C95.324,7.8 94.668,8.26 94.668,9.18L94.668,16.84C94.668,17.747 95.324,18.2 96.635,18.2C97.947,18.2 98.602,17.747 98.602,16.84L98.602,14.1L96.704,14.1L96.704,12.1L102.192,12.1L102.192,16.68C102.192,17.813 101.709,18.683 100.742,19.29C99.776,19.897 98.372,20.2 96.532,20.2Z" style="fill-rule:nonzero;"/>
                <path d="M104.642,6L114.997,6L114.997,8L108.439,8L108.439,11.7L113.651,11.7L113.651,13.7L108.439,13.7L108.439,18L114.997,18L114.997,20L104.642,20L104.642,6Z" style="fill-rule:nonzero;"/>
                <path d="M125.662,8L121.692,8L121.692,6L133.427,6L133.427,8L129.458,8L129.458,20L125.662,20L125.662,8Z" style="fill-rule:nonzero;"/>
                <path d="M138.881,14.04L134.29,6L138.328,6L140.917,11.14L140.986,11.14L143.574,6L147.268,6L142.677,14.04L142.677,20L138.881,20L138.881,14.04Z" style="fill-rule:nonzero;"/>
                <path d="M148.993,6L154.585,6C156.471,6 157.886,6.293 158.83,6.88C159.773,7.467 160.245,8.327 160.245,9.46L160.245,10.84C160.245,11.973 159.773,12.833 158.83,13.42C157.886,14.007 156.471,14.3 154.585,14.3L152.79,14.3L152.79,20L148.993,20L148.993,6ZM154.585,12.3C155.206,12.3 155.672,12.2 155.982,12C156.293,11.8 156.448,11.46 156.448,10.98L156.448,9.32C156.448,8.84 156.293,8.5 155.982,8.3C155.672,8.1 155.206,8 154.585,8L152.79,8L152.79,12.3L154.585,12.3Z" style="fill-rule:nonzero;"/>
                <path d="M162.316,6L172.67,6L172.67,8L166.112,8L166.112,11.7L171.324,11.7L171.324,13.7L166.112,13.7L166.112,18L172.67,18L172.67,20L162.316,20L162.316,6Z" style="fill-rule:nonzero;"/>
            </g>
        </g>
        <g>
            <g transform="matrix(0.887599,0,0,0.887599,15.929,33.5244)">
                <g transform="matrix(0.158879,0,0,0.158879,-234.866,-242.17)">
                    <circle cx="1948" cy="2154" r="26"/>
                </g>
                <g transform="matrix(0.158879,0,0,0.158879,-234.866,-264.584)">
                    <circle cx="1948" cy="2154" r="26"/>
                </g>
                <g transform="matrix(0.158879,0,0,0.158879,-234.866,-253.377)">
                    <circle cx="1948" cy="2154" r="26"/>
                </g>
                <g transform="matrix(0.158879,0,0,0.158879,-234.866,-275.791)">
                    <circle cx="1948" cy="2154" r="26"/>
                </g>
                <g transform="matrix(0.158879,0,0,0.158879,-234.866,-298.206)">
                    <circle cx="1948" cy="2154" r="26"/>
                </g>
                <g transform="matrix(0.158879,0,0,0.158879,-234.866,-286.998)">
                    <circle cx="1948" cy="2154" r="26"/>
                </g>
                <g transform="matrix(0.158879,0,0,0.158879,-220.49,-242.17)">
                    <circle cx="1948" cy="2154" r="26"/>
                </g>
                <g transform="matrix(0.158879,0,0,0.158879,-220.22,-286.998)">
                    <circle cx="1948" cy="2154" r="26"/>
                </g>
                <g transform="matrix(0.158879,0,0,0.158879,-205.812,-242.17)">
                    <circle cx="1948" cy="2154" r="26"/>
                </g>
                <g transform="matrix(0.158879,0,0,0.158879,-205.542,-286.998)">
                    <circle cx="1948" cy="2154" r="26"/>
                </g>
            </g>
            <g transform="matrix(0.887599,0,0,0.887599,15.929,33.5244)">
                <g transform="matrix(0.158879,0,0,0.158879,-234.866,-237.663)">
                    <path d="M2398.82,1840.02L2323.2,1768.22L2233.61,1768.22C2218.42,1768.22 2213.18,1773.46 2213.18,1788.65L2213.18,1981.39C2213.18,1996.58 2218.42,2001.82 2233.61,2001.82L2378.39,2001.82C2393.58,2001.82 2398.82,1996.58 2398.82,1981.39L2398.82,1840.02Z" style="fill:rgb(116,186,220);"/>
                </g>
                <g transform="matrix(0.158879,0,0,0.158879,-237.119,-236.509)">
                    <path d="M2330.7,1775.75L2397.03,1837.68L2330.44,1838L2330.7,1775.75Z"/>
                </g>
            </g>
            <g transform="matrix(0.887599,0,0,0.887599,15.929,75.651)">
                <g transform="matrix(0.158879,0,0,0.158879,-234.866,-237.663)">
                    <path d="M2398.82,1840.02L2323.2,1768.22L2233.61,1768.22C2218.42,1768.22 2213.18,1773.46 2213.18,1788.65L2213.18,1981.39C2213.18,1996.58 2218.42,2001.82 2233.61,2001.82L2378.39,2001.82C2393.58,2001.82 2398.82,1996.58 2398.82,1981.39L2398.82,1840.02Z" style="fill:rgb(116,186,220);"/>
                </g>
                <g transform="matrix(0.158879,0,0,0.158879,-237.119,-236.509)">
                    <path d="M2330.7,1775.75L2397.03,1837.68L2330.44,1838L2330.7,1775.75Z"/>
                </g>
            </g>
        </g>
    </g>
</svg>
