<?xml version="1.0" encoding="UTF-8" standalone="no"?>
<!DOCTYPE svg PUBLIC "-//W3C//DTD SVG 1.1//EN" "http://www.w3.org/Graphics/SVG/1.1/DTD/svg11.dtd">
<svg width="100%" height="100%" viewBox="0 0 130 121" version="1.1" xmlns="http://www.w3.org/2000/svg" xmlns:xlink="http://www.w3.org/1999/xlink" xml:space="preserve" xmlns:serif="http://www.serif.com/" style="fill-rule:evenodd;clip-rule:evenodd;stroke-linejoin:round;stroke-miterlimit:2;">
    <g transform="matrix(1,0,0,1,-1272.9,-28.6174)">
        <g id="Layer_8" transform="matrix(3,0,0,3,654,0)">
            <g id="Dribbble-Light-Preview">
            </g>
            <g transform="matrix(1.59761,0,0,1.54206,10.5451,-41.3487)">
                <path d="M124,39L124,35C124,35 148,35 148,35L148,39L124,39Z" style="fill:rgb(182,221,230);"/>
            </g>
            <g transform="matrix(1.54206,0,0,1.54206,19.3582,-41.0154)">
                <path d="M148,40.135L148,55L122.703,55L122.703,40.135L148,40.135Z" style="fill:rgb(226,243,238);"/>
            </g>
            <g transform="matrix(1.54206,0,0,1.54206,153.872,-32.6541)">
                <path d="M46.579,51.362L35,51.362C34.448,51.362 34,50.914 34,50.362L34,28.362C34,27.809 34.448,27.362 35,27.362L61,27.362C61.552,27.362 62,27.809 62,28.362L62,50.362C62,50.914 61.552,51.362 61,51.362L49.812,51.362L49.812,49.362L60,49.362L60,35.362L36,35.362L36,49.362L46.579,49.362L46.579,51.362ZM36,33.362L36,29.362C36,29.362 60,29.362 60,29.362L60,33.362L36,33.362Z"/>
            </g>
            <g transform="matrix(0.093518,0,0,0.0879885,213.936,23.5)">
                <path d="M274.901,121.802L274.893,9.992C274.893,4.479 270.424,0.011 264.913,0.011L206.585,0.011C202.288,0.011 198.474,2.76 197.116,6.836L189.991,28.211L182.854,6.828C181.495,2.755 177.682,0.007 173.387,0.007L32.071,0L32.069,0C29.423,0 26.883,1.052 25.012,2.923C23.139,4.796 22.088,7.335 22.088,9.982L22.096,121.795C20.809,122.729 19.582,123.767 18.434,124.914C12.768,130.58 9.649,138.094 9.649,146.069L9.649,155.905C9.651,172.417 23.085,185.849 39.594,185.849L112.477,185.853L112.479,260.982C112.477,270.604 116.225,279.65 123.032,286.453C129.837,293.254 138.884,297 148.505,297L148.517,297C158.138,297 167.183,293.256 173.986,286.456C180.793,279.652 184.541,270.605 184.535,260.984L184.531,185.858L257.408,185.862C265.384,185.862 272.898,182.741 278.564,177.075C284.232,171.408 287.351,163.894 287.351,155.919L287.351,146.079C287.349,136.098 282.433,127.245 274.901,121.802ZM42.06,116.125L42.052,19.964L76.745,19.965L76.745,65.755C76.745,71.268 81.216,75.736 86.727,75.736C92.239,75.736 96.708,71.267 96.708,65.755L96.708,19.966L110.446,19.967L110.446,88.203C110.446,93.716 114.915,98.185 120.426,98.185C125.94,98.185 130.408,93.715 130.408,88.203L130.408,19.969L141.338,19.969L141.338,43.299C141.338,48.811 145.807,53.28 151.318,53.28C156.83,53.28 161.3,48.81 161.3,43.299L161.3,19.971L166.193,19.971L180.527,62.921C181.888,66.995 185.701,69.743 189.998,69.742C194.293,69.741 198.107,66.992 199.465,62.917L213.779,19.975L254.931,19.975L254.935,116.134L42.06,116.125ZM164.571,260.99C164.573,265.276 162.905,269.306 159.872,272.337C156.839,275.368 152.808,277.037 148.513,277.037L148.509,277.037C144.214,277.037 140.179,275.366 137.146,272.334C134.113,269.303 132.443,265.271 132.443,260.983L132.441,185.854L164.568,185.857L164.571,260.99ZM257.413,136.099C262.913,136.104 267.386,140.58 267.388,146.08L267.388,155.92C267.388,158.564 266.343,161.064 264.449,162.96C262.553,164.855 260.053,165.899 257.41,165.899L39.597,165.886C34.093,165.886 29.615,161.407 29.613,155.904L29.613,146.068C29.613,143.424 30.658,140.923 32.552,139.028C34.448,137.132 36.948,136.089 39.593,136.089L257.413,136.099Z" style="fill-rule:nonzero;"/>
            </g>
            <g transform="matrix(0.093518,0,0,0.0879885,213.936,23.5)">
                <path d="M42.06,116.125L42.052,19.964L76.745,19.965L76.745,65.755C76.745,71.268 81.216,75.736 86.727,75.736C92.239,75.736 96.708,71.267 96.708,65.755L96.708,19.966L110.446,19.967L110.446,88.203C110.446,93.716 114.915,98.185 120.426,98.185C125.94,98.185 130.408,93.715 130.408,88.203L130.408,19.969L141.338,19.969L141.338,43.299C141.338,48.811 145.807,53.28 151.318,53.28C156.83,53.28 161.3,48.81 161.3,43.299L161.3,19.971L166.193,19.971L180.527,62.921C181.888,66.995 185.701,69.743 189.998,69.742C194.293,69.741 198.107,66.992 199.465,62.917L213.779,19.975L254.931,19.975L254.935,116.134L42.06,116.125ZM164.571,260.99C164.573,265.276 162.905,269.306 159.872,272.337C156.839,275.368 152.808,277.037 148.513,277.037L148.509,277.037C144.214,277.037 140.179,275.366 137.146,272.334C134.113,269.303 132.443,265.271 132.443,260.983L132.441,185.854L164.568,185.857L164.571,260.99ZM257.413,136.099C262.913,136.104 267.386,140.58 267.388,146.08L267.388,155.92C267.388,158.564 266.343,161.064 264.449,162.96C262.553,164.855 260.053,165.899 257.41,165.899L39.597,165.886C34.093,165.886 29.615,161.407 29.613,155.904L29.613,146.068C29.613,143.424 30.658,140.923 32.552,139.028C34.448,137.132 36.948,136.089 39.593,136.089L257.413,136.099Z" style="fill:rgb(116,186,220);fill-rule:nonzero;"/>
            </g>
            <g transform="matrix(0.093518,0,0,0.0879885,213.936,23.5)">
                <path d="M257.413,136.099C262.913,136.104 267.386,140.58 267.388,146.08L267.388,155.92C267.388,158.564 266.343,161.064 264.449,162.96C262.553,164.855 260.053,165.899 257.41,165.899L39.597,165.886C34.093,165.886 29.615,161.407 29.613,155.904L29.613,146.068C29.613,143.424 30.658,140.923 32.552,139.028C34.448,137.132 36.948,136.089 39.593,136.089L257.413,136.099Z" style="fill:rgb(182,221,230);fill-rule:nonzero;"/>
            </g>
            <g transform="matrix(0.26462,0,0,0.333333,196.795,11.3333)">
                <path d="M69.259,6L73.013,6L75.885,20L73.113,20L72.61,17.22L72.61,17.26L69.46,17.26L68.957,20L66.387,20L69.259,6ZM72.282,15.36L71.048,8.44L70.997,8.44L69.788,15.36L72.282,15.36Z" style="fill-rule:nonzero;"/>
                <path d="M77.22,6L81.453,6C82.83,6 83.863,6.293 84.551,6.88C85.24,7.467 85.584,8.327 85.584,9.46L85.584,16.54C85.584,17.673 85.24,18.533 84.551,19.12C83.863,19.707 82.83,20 81.453,20L77.22,20L77.22,6ZM81.402,18C81.856,18 82.204,17.893 82.448,17.68C82.691,17.467 82.813,17.12 82.813,16.64L82.813,9.36C82.813,8.88 82.691,8.533 82.448,8.32C82.204,8.107 81.856,8 81.402,8L79.991,8L79.991,18L81.402,18Z" style="fill-rule:nonzero;"/>
                <path d="M87.449,6L91.404,6L93.167,16.02L93.218,16.02L94.981,6L98.937,6L98.937,20L96.317,20L96.317,9.4L96.266,9.4L94.251,20L91.933,20L89.917,9.4L89.867,9.4L89.867,20L87.449,20L87.449,6Z" style="fill-rule:nonzero;"/>
                <rect x="101.003" y="6" width="2.771" height="14" style="fill-rule:nonzero;"/>
                <path d="M105.84,6L109.316,6L112.012,14.38L112.062,14.38L112.062,6L114.531,6L114.531,20L111.685,20L108.359,9.78L108.309,9.78L108.309,20L105.84,20L105.84,6Z" style="fill-rule:nonzero;"/>
                <path d="M122.795,8L119.898,8L119.898,6L128.463,6L128.463,8L125.566,8L125.566,20L122.795,20L122.795,8Z" style="fill-rule:nonzero;"/>
                <path d="M129.799,6L132.57,6L132.57,11.7L135.543,11.7L135.543,6L138.314,6L138.314,20L135.543,20L135.543,13.7L132.57,13.7L132.57,20L129.799,20L129.799,6Z" style="fill-rule:nonzero;"/>
                <path d="M140.38,6L147.938,6L147.938,8L143.151,8L143.151,11.7L146.955,11.7L146.955,13.7L143.151,13.7L143.151,18L147.938,18L147.938,20L140.38,20L140.38,6Z" style="fill-rule:nonzero;"/>
                <path d="M149.525,6L153.48,6L155.244,16.02L155.294,16.02L157.058,6L161.013,6L161.013,20L158.393,20L158.393,9.4L158.343,9.4L156.327,20L154.01,20L151.994,9.4L151.944,9.4L151.944,20L149.525,20L149.525,6Z" style="fill-rule:nonzero;"/>
                <path d="M163.079,6L170.637,6L170.637,8L165.85,8L165.85,11.7L169.655,11.7L169.655,13.7L165.85,13.7L165.85,18L170.637,18L170.637,20L163.079,20L163.079,6Z" style="fill-rule:nonzero;"/>
            </g>
        </g>
    </g>
</svg>
