<?xml version="1.0" encoding="UTF-8" standalone="no"?><!DOCTYPE svg PUBLIC "-//W3C//DTD SVG 1.1//EN" "http://www.w3.org/Graphics/SVG/1.1/DTD/svg11.dtd"><svg width="100%" height="100%" viewBox="0 0 900 600" version="1.1" xmlns="http://www.w3.org/2000/svg" xmlns:xlink="http://www.w3.org/1999/xlink" xml:space="preserve" xmlns:serif="http://www.serif.com/" style="fill-rule:evenodd;clip-rule:evenodd;stroke-linecap:round;"><g id="g2649"><rect id="rect675" x="0" y="200" width="900" height="200" style="fill:#f5f2f2;"/><rect id="rect714" x="0" y="400" width="900" height="200" style="fill:#00298c;"/><rect id="rect713" x="0" y="0" width="900" height="200" style="fill:#de1818;"/></g><g id="g2527"><path id="path3501" d="M330.778,197.339c36.832,-13.103 77.67,-20.172 117.584,-20.273c39.914,-0.101 80.619,6.162 120.841,20.576l29.94,-60.402l-21.044,-36.658c0,-0 -37.545,15.421 -37.854,15.421c-0.308,0 -26.473,-28.796 -26.473,-28.796l-33.6,20.302l-31.552,-24.13l-29.679,23.758l-34.648,-20.027l-25.273,30.033l-37.882,-16.198l-20.281,36.323l29.921,60.071Z" style="fill:#fff;stroke:#e5141d;stroke-width:1.6px;"/><path id="path3503" d="M522.714,180.585l17.144,-60.607l36.714,-14.901l19.342,32.479l-27.771,56.805c-15.964,-6.378 -24.516,-9.111 -45.429,-13.776Z" style="fill:#00a7bd;stroke:#0084fd;stroke-width:0.4px;stroke-linecap:butt;"/><path id="path3505" d="M377.381,180.743l-16.025,-59.584l24.111,-29.594l34.308,19.808l5.79,62.634c-16.763,1.244 -28.88,2.836 -48.184,6.736Z" style="fill:none;"/><path id="path3507" d="M426.042,174.022l-5.79,-62.769l29.177,-23.193l30.483,23.137l-5.386,62.881c-16.797,-0.888 -28.792,-0.862 -48.484,-0.056Z" style="fill:#00a7bd;stroke:#0084fd;stroke-width:0.4px;stroke-linecap:butt;"/><path id="path3509" d="M332.221,194.325l-27.198,-57.53l18.176,-31.758l37.678,16.4l15.92,59.352c-17.202,3.558 -26.312,6.464 -44.576,13.536Z" style="fill:#00a7bd;stroke:#0084fd;stroke-opacity:0.99;stroke-width:0.4px;stroke-linecap:butt;"/><path id="path3511" d="M323.765,162.46c8.563,1.734 14.666,1.796 22.345,-0.31c9.174,-3.757 12.415,-8.814 15.402,-12.881c1.389,8.588 -0.063,16.37 -10.541,21.861c-9.405,4.335 -22.093,1.61 -27.206,-8.67Z" style="fill:#fff;stroke:#fff;stroke-width:0.4px;stroke-linecap:butt;"/><g id="g3513"><path id="path3515" d="M456.575,120.999l-1.642,0.402l0.064,2.973l-2.02,0.434l-1.413,2.621l0.872,0.81c0.045,0.088 -0.688,1.939 -0.656,1.939c0.031,-0 0.534,0.698 0.534,0.698l0.537,1.611l1.357,0.185l0.347,1.889l2.146,0.34l1.988,1.394l0.126,0.867l2.273,0.062l1.547,0.495l5.396,-0.619l0.726,-1.115l0.063,-1.517l2.904,-0.093l0.266,-2.42l1.538,0l-0.191,-2.724l1.283,0.113l-0.331,-1.306l-0.798,-1.063l-0.157,-1.672l-2.273,-2.229l-0.505,-2.911c0,-0 -1.452,-0.65 -1.452,-0.681c0,-0.031 -0.094,-1.951 -0.094,-1.951l1.641,-2.26l-0.158,-0.898l-1.515,-0.031l-1.136,0.929c-0,-0 -1.515,0.155 -1.515,0.185l0,0.682c0,-0 0.379,1.269 0.379,1.3c-0,0.031 -1.736,0 -1.736,0l-0.063,-2.012l-2.462,-1.208c0,-0 -2.304,1.548 -2.304,1.579c0,0.031 -0.126,1.796 -0.126,1.796l-1.105,0.31l-1.136,-1.673l-1.989,-0.743l-1.072,-0.061l-0.032,1.3l2.083,2.694l-0.189,1.579Z" style="fill:#faf703;fill-opacity:0.99;stroke:#544b20;stroke-opacity:0.99;stroke-width:0.4px;stroke-linecap:butt;"/><path id="path3517" d="M472.046,131.888l-0.447,-1.621" style="fill:none;stroke:#544b20;stroke-width:0.4px;stroke-linecap:butt;"/><path id="path3519" d="M473.295,129.216l-0.758,-1.094" style="fill:none;stroke:#544b20;stroke-width:0.4px;stroke-linecap:butt;"/><path id="path3521" d="M452.496,127.991l2.366,-0.132l0.446,2.102l0.803,0.7l0.134,3.854l0.759,0.306l0.223,-1.532l1.83,-0.131l0.357,3.108l-0.446,0.395l0.179,0.481l2.186,-0.043c0,-0 0.492,-0.833 0.536,-0.833c0.045,0 1.25,-0.131 1.25,-0.087c0,0.044 0.491,0.92 0.491,0.92l0.357,-1.183c-0,0 1.161,-0.481 1.161,-0.437c-0,0.043 0.937,1.488 0.937,1.488l1.607,-0.219l-0.982,-0.919l-0.402,-2.015l2.231,-1.182l0.893,1.489c0,0 0.848,0.044 0.804,0c-0.045,-0.044 -0.982,-1.708 -0.982,-1.708l-0,-3.503l1.696,-2.277l2.365,-0.263l0,-0.963l-2.365,-2.146l-0.625,-2.978l-1.339,-0.656l-0.357,0.394l-1.473,0.131l1.473,2.146l-0,1.401l0.67,0.35l-0.135,3.854c0,-0 -1.651,0.219 -1.651,0.263c-0,0.043 -0.134,2.145 -0.134,2.145l-1.026,1.008c-0,-0 -0.581,2.014 -0.625,2.014c-0.045,-0 -0.982,1.226 -0.982,1.226l-1.83,0.044c-0,-0 -1.071,-1.007 -1.071,-1.051c-0,-0.044 -0.179,-1.489 -0.179,-1.489c0,-0 -0.714,-0.219 -0.759,-0.219c-0.044,-0 -0.402,-1.62 -0.402,-1.62l-1.249,-0.701l-0.089,-0.963l-1.206,-0.526c0,0 -0.134,-0.876 -0.178,-0.919c-0.045,-0.044 -0.581,-0.394 -0.625,-0.394c-0.045,-0 -0.045,-2.409 -0.045,-2.409l1.072,-0.175l-0.6,-0.769l-0.204,-0.676l0,-0.701l0.893,-0.876c-0,0 -1.607,-0.218 -1.607,-0.175c-0,0.044 -1.562,0.701 -1.562,0.657c0.044,0 -0.045,2.846 -0.045,2.846l-1.83,0.57l-1.473,2.32l0.759,0.658Z" style="fill:#544b20;stroke:#544b21;stroke-width:0.4px;stroke-linecap:butt;"/><path id="path3523" d="M461.735,131.888l1.205,-0.701l-0.044,-1.357l-1.161,-0.263l-0.446,-0.438l1.294,0.219l1.607,-0.132l0.536,-0.262c-0.223,0.569 -0.402,0.525 -0.447,0.525c-0.044,0 -0.892,0.438 -0.892,0.438l0.044,1.314c0,-0 2.768,0.35 2.723,0.35c-0.045,-0 0,0.525 -0.089,0.525c-0.089,0 -2.857,-0.613 -2.857,-0.613l-1.74,1.051l0.267,-0.656Z" style="fill:#544b20;stroke:#544b20;stroke-width:0.4px;stroke-linecap:butt;"/><path id="path3525" d="M468.698,123.743l-1.607,1.226l-1.026,1.795l-0.536,0.088l-1.562,-2.058l-1.785,0.044c-0,-0 -0.982,2.408 -0.982,2.452c-0,0.043 -0.715,-0.088 -0.715,-0.088l-1.874,-2.014c-0,0 -0.581,-1.007 -0.491,-1.007c0.089,-0 4.686,0.044 4.686,0.044l-0.044,-2.19c-0,0 -0.714,-0.219 -1.071,-0.438c0.267,-0.087 2.544,-0.087 2.544,-0.087l-0.982,0.656l-0,1.883l4.061,0.044l1.384,-0.35Z" style="fill:#544b20;stroke:#544b20;stroke-width:0.4px;stroke-linecap:butt;"/><path id="rect3527" d="M461.11,125.319c0,-0.29 -0.235,-0.525 -0.525,-0.525l-0.02,-0c-0.29,-0 -0.526,0.235 -0.526,0.525c0,0.29 0.236,0.526 0.526,0.526l0.02,-0c0.29,-0 0.525,-0.236 0.525,-0.526Z" style="fill:#796a3a;"/><path id="rect3529" d="M466.199,125.1c-0,-0.29 -0.236,-0.525 -0.526,-0.525l-0.02,-0c-0.29,-0 -0.526,0.235 -0.526,0.525c0,0.29 0.236,0.526 0.526,0.526l0.02,-0c0.29,-0 0.526,-0.236 0.526,-0.526Z" style="fill:#7a6b3a;"/><path id="path3531" d="M457.629,121.29c1.696,-0.671 2.901,-1.211 4.999,-1.401c1.978,-0.204 3.511,0.073 5.267,0.394" style="fill:none;stroke:#544b20;stroke-width:0.4px;stroke-linecap:butt;"/><path id="path3533" d="M458.566,117.744l-1.384,-0l-1.964,-2.058l1.117,0.131l1.294,0.569l0.937,1.358Z" style="fill:#544b20;stroke:#544b20;stroke-width:0.4px;stroke-linecap:butt;"/><path id="path3535" d="M466.913,116.955l3.124,-2.364l-1.026,-0.131l-1.161,1.05l-1.384,0.219l0.447,1.226Z" style="fill:#544b20;stroke:#544b20;stroke-width:0.4px;stroke-linecap:butt;"/><path id="path3537" d="M465.071,117.39l-4.898,0.178l0.045,-0.525l1.785,-0.175l0.223,-0.701c0,0 0.536,-0.043 0.536,0c-0,0.044 0.401,0.657 0.401,0.657l1.741,0.307l0.167,0.259Z" style="fill:#544b20;stroke:#544b20;stroke-width:0.4px;stroke-linecap:butt;"/><path id="path3539" d="M464.815,115.554l-1.696,0.044l-0.134,-0.92l1.83,0.876Z" style="fill:#544b20;stroke:#544b20;stroke-width:0.4px;stroke-linecap:butt;"/><path id="path3541" d="M461.958,114.722l-0.134,0.92l-1.651,0.262l1.785,-1.182Z" style="fill:#544b20;stroke:#544b20;stroke-width:0.4px;stroke-linecap:butt;"/><path id="path3543" d="M452.585,131.493l0.848,-2.101l-0.759,-1.445l-0.758,2.145l0.669,1.401Z" style="fill:#544b20;stroke:#544b20;stroke-width:0.4px;stroke-linecap:butt;"/><path id="path3545" d="M454.281,132.632l1.027,-2.496l-1.964,2.014l0.937,0.482Z" style="fill:#544b20;stroke:#544b20;stroke-width:0.4px;stroke-linecap:butt;"/></g><g id="g3547"><path id="path3549" d="M429.48,121.874l-1.641,0.403l0.063,2.972l-2.02,0.434l-1.413,2.621l0.872,0.81c0.045,0.088 -0.688,1.939 -0.656,1.939c0.031,0 0.534,0.698 0.534,0.698l0.537,1.611l1.357,0.185l0.347,1.889l2.146,0.341l1.988,1.393l0.126,0.867l2.273,0.062l1.547,0.496l5.396,-0.62l0.726,-1.114l0.063,-1.518l2.904,-0.093l0.266,-2.419l1.539,-0l-0.192,-2.725l1.283,0.113l-0.331,-1.306l-0.798,-1.063l-0.157,-1.672l-2.273,-2.229l-0.505,-2.911c0,0 -1.452,-0.65 -1.452,-0.681c0,-0.031 -0.094,-1.951 -0.094,-1.951l1.641,-2.26l-0.158,-0.898l-1.515,-0.031l-1.136,0.929c0,-0 -1.515,0.155 -1.515,0.186l0,0.681c0,-0 0.379,1.269 0.379,1.3c0,0.031 -1.736,0 -1.736,0l-0.063,-2.012l-2.462,-1.208c0,0 -2.304,1.548 -2.304,1.579c0,0.031 -0.126,1.796 -0.126,1.796l-1.105,0.31l-1.136,-1.672l-1.988,-0.743l-1.073,-0.062l-0.032,1.3l2.083,2.694l-0.189,1.579Z" style="fill:#faf703;fill-opacity:0.99;stroke:#544b20;stroke-opacity:0.99;stroke-width:0.4px;stroke-linecap:butt;"/><path id="path3551" d="M444.951,132.763l-0.447,-1.62" style="fill:none;stroke:#544b20;stroke-width:0.4px;stroke-linecap:butt;"/><path id="path3553" d="M446.2,130.092l-0.758,-1.095" style="fill:none;stroke:#544b20;stroke-width:0.4px;stroke-linecap:butt;"/><path id="path3555" d="M425.401,128.866l2.366,-0.132l0.446,2.102l0.803,0.701l0.134,3.853l0.759,0.307l0.223,-1.533l1.83,-0.131l0.357,3.109l-0.446,0.394l0.179,0.482l2.186,-0.044c0,-0 0.492,-0.832 0.536,-0.832c0.045,-0 1.25,-0.132 1.25,-0.088c0,0.044 0.491,0.92 0.491,0.92l0.357,-1.183c0,0 1.161,-0.481 1.161,-0.437c-0,0.043 0.937,1.488 0.937,1.488l1.607,-0.218l-0.982,-0.92l-0.402,-2.014l2.232,-1.183l0.892,1.489c0,0 0.848,0.044 0.804,0c-0.045,-0.044 -0.982,-1.708 -0.982,-1.708l-0,-3.503l1.696,-2.277l2.365,-0.262l0,-0.964l-2.365,-2.146l-0.625,-2.977l-1.339,-0.657l-0.357,0.394l-1.473,0.131l1.473,2.146l-0,1.401l0.67,0.351l-0.135,3.853c0,0 -1.651,0.219 -1.651,0.263c-0,0.044 -0.134,2.145 -0.134,2.145l-1.026,1.008c-0,-0 -0.581,2.014 -0.625,2.014c-0.045,-0 -0.982,1.226 -0.982,1.226l-1.83,0.044c-0,-0 -1.071,-1.007 -1.071,-1.051c-0,-0.044 -0.179,-1.489 -0.179,-1.489c0,0 -0.714,-0.219 -0.759,-0.219c-0.044,-0 -0.402,-1.62 -0.402,-1.62l-1.249,-0.701l-0.089,-0.963l-1.206,-0.526c0,0 -0.134,-0.876 -0.178,-0.919c-0.045,-0.044 -0.58,-0.394 -0.625,-0.394c-0.045,-0 -0.045,-2.409 -0.045,-2.409l1.072,-0.175l-0.6,-0.769l-0.204,-0.676l0,-0.701l0.893,-0.875c-0,-0 -1.607,-0.219 -1.607,-0.176c-0,0.044 -1.562,0.701 -1.562,0.657c0.044,0 -0.045,2.847 -0.045,2.847l-1.83,0.569l-1.473,2.321l0.759,0.657Z" style="fill:#544b20;stroke:#544b21;stroke-width:0.4px;stroke-linecap:butt;"/><path id="path3557" d="M434.64,132.763l1.205,-0.701l-0.044,-1.357l-1.161,-0.263l-0.446,-0.438l1.294,0.219l1.607,-0.131l0.536,-0.263c-0.223,0.569 -0.402,0.525 -0.447,0.525c-0.044,0 -0.892,0.438 -0.892,0.438l0.044,1.314c0,0 2.768,0.35 2.723,0.35c-0.045,0 0,0.526 -0.089,0.526c-0.089,-0 -2.857,-0.613 -2.857,-0.613l-1.74,1.051l0.267,-0.657Z" style="fill:#544b20;stroke:#544b20;stroke-width:0.4px;stroke-linecap:butt;"/><path id="path3559" d="M441.603,124.618l-1.607,1.226l-1.026,1.795l-0.536,0.088l-1.562,-2.058l-1.785,0.044c-0,-0 -0.982,2.408 -0.982,2.452c-0,0.044 -0.715,-0.088 -0.715,-0.088l-1.874,-2.014c-0,0 -0.581,-1.007 -0.491,-1.007c0.089,-0 4.686,0.044 4.686,0.044l-0.044,-2.19c-0,0 -0.714,-0.219 -1.071,-0.438c0.267,-0.087 2.544,-0.087 2.544,-0.087l-0.982,0.657l-0,1.883l4.061,0.043l1.384,-0.35Z" style="fill:#544b20;stroke:#544b20;stroke-width:0.4px;stroke-linecap:butt;"/><path id="rect3561" d="M434.015,126.194c0,-0.29 -0.235,-0.525 -0.525,-0.525l-0.02,-0c-0.29,-0 -0.526,0.235 -0.526,0.525c0,0.29 0.236,0.526 0.526,0.526l0.02,-0c0.29,-0 0.525,-0.236 0.525,-0.526Z" style="fill:#796a3a;"/><path id="rect3563" d="M439.104,125.976c-0,-0.291 -0.236,-0.526 -0.526,-0.526l-0.02,0c-0.29,0 -0.526,0.235 -0.526,0.526c0,0.29 0.236,0.525 0.526,0.525l0.02,-0c0.29,-0 0.526,-0.235 0.526,-0.525Z" style="fill:#7a6b3a;"/><path id="path3565" d="M430.534,122.166c1.696,-0.672 2.901,-1.212 4.999,-1.401c1.979,-0.205 3.511,0.073 5.267,0.394" style="fill:none;stroke:#544b20;stroke-width:0.4px;stroke-linecap:butt;"/><path id="path3567" d="M431.471,118.619l-1.383,-0l-1.965,-2.058l1.117,0.131l1.294,0.569l0.937,1.358Z" style="fill:#544b20;stroke:#544b20;stroke-width:0.4px;stroke-linecap:butt;"/><path id="path3569" d="M439.818,117.831l3.124,-2.365l-1.026,-0.131l-1.161,1.051l-1.384,0.219l0.447,1.226Z" style="fill:#544b20;stroke:#544b20;stroke-width:0.4px;stroke-linecap:butt;"/><path id="path3571" d="M437.976,118.265l-4.898,0.179l0.045,-0.526l1.785,-0.175l0.223,-0.7c0,-0 0.536,-0.044 0.536,-0c-0,0.044 0.401,0.656 0.401,0.656l1.741,0.307l0.167,0.259Z" style="fill:#544b20;stroke:#544b20;stroke-width:0.4px;stroke-linecap:butt;"/><path id="path3573" d="M437.72,116.43l-1.696,0.043l-0.134,-0.919l1.83,0.876Z" style="fill:#544b20;stroke:#544b20;stroke-width:0.4px;stroke-linecap:butt;"/><path id="path3575" d="M434.863,115.598l-0.134,0.919l-1.651,0.262l1.785,-1.181Z" style="fill:#544b20;stroke:#544b20;stroke-width:0.4px;stroke-linecap:butt;"/><path id="path3577" d="M425.49,132.369l0.848,-2.102l-0.759,-1.445l-0.758,2.146l0.669,1.401Z" style="fill:#544b20;stroke:#544b20;stroke-width:0.4px;stroke-linecap:butt;"/><path id="path3579" d="M427.186,133.507l1.027,-2.496l-1.964,2.014l0.937,0.482Z" style="fill:#544b20;stroke:#544b20;stroke-width:0.4px;stroke-linecap:butt;"/></g><path id="path3581" d="M474.958,173.992l5.425,-62.954l33.335,-19.18l25.769,27.93l-17.174,60.651c-16.646,-3.399 -26.144,-4.856 -47.355,-6.447Z" style="fill:#001070;stroke:#001071;stroke-opacity:0.99;stroke-width:0.4px;stroke-linecap:butt;"/><g id="g3583"><path id="path3585" d="M443.529,145.393l-1.641,0.403l0.063,2.972l-2.02,0.434l-1.413,2.621l0.872,0.81c0.045,0.088 -0.688,1.939 -0.656,1.939c0.031,0 0.534,0.699 0.534,0.699l0.537,1.61l1.357,0.186l0.347,1.888l2.146,0.341l1.989,1.393l0.126,0.868l2.272,0.061l1.547,0.496l5.397,-0.62l0.726,-1.114l0.063,-1.517l2.904,-0.093l0.265,-2.42l1.539,-0l-0.192,-2.725l1.284,0.113l-0.332,-1.305l-0.797,-1.064l-0.158,-1.672l-2.272,-2.229l-0.505,-2.911c-0,0 -1.452,-0.65 -1.452,-0.681c-0,-0.031 -0.095,-1.951 -0.095,-1.951l1.641,-2.26l-0.157,-0.898l-1.515,-0.031l-1.137,0.929c0,-0 -1.515,0.155 -1.515,0.186l0,0.681c0,0 0.379,1.27 0.379,1.301c0,0.03 -1.736,-0 -1.736,-0l-0.063,-2.013l-2.462,-1.208c0,0 -2.304,1.548 -2.304,1.579c0,0.031 -0.126,1.797 -0.126,1.797l-1.104,0.309l-1.137,-1.672l-1.988,-0.743l-1.073,-0.062l-0.032,1.3l2.083,2.694l-0.189,1.579Z" style="fill:#faf703;fill-opacity:0.99;stroke:#544b20;stroke-opacity:0.99;stroke-width:0.4px;stroke-linecap:butt;"/><path id="path3587" d="M459,156.282l-0.446,-1.62" style="fill:none;stroke:#544b20;stroke-width:0.4px;stroke-linecap:butt;"/><path id="path3589" d="M460.25,153.611l-0.759,-1.095" style="fill:none;stroke:#544b20;stroke-width:0.4px;stroke-linecap:butt;"/><path id="path3591" d="M439.45,152.385l2.366,-0.132l0.446,2.102l0.803,0.701l0.134,3.853l0.759,0.307l0.224,-1.533l1.83,-0.131l0.356,3.109l-0.446,0.394l0.179,0.482l2.187,-0.044c-0,0 0.491,-0.832 0.535,-0.832c0.045,-0 1.25,-0.131 1.25,-0.088c0,0.044 0.491,0.92 0.491,0.92l0.357,-1.182c0,-0 1.161,-0.482 1.161,-0.438c-0,0.044 0.937,1.489 0.937,1.489l1.607,-0.219l-0.982,-0.92l-0.402,-2.014l2.232,-1.183l0.893,1.49c-0,-0 0.847,0.043 0.803,-0c-0.045,-0.044 -0.982,-1.708 -0.982,-1.708l-0,-3.504l1.696,-2.276l2.366,-0.263l-0,-0.964l-2.366,-2.145l-0.625,-2.978l-1.339,-0.657l-0.357,0.394l-1.473,0.132l1.473,2.145l-0,1.401l0.67,0.351l-0.134,3.853c-0,0 -1.652,0.219 -1.652,0.263c0,0.044 -0.134,2.146 -0.134,2.146l-1.026,1.007c-0,0 -0.581,2.014 -0.625,2.014c-0.045,0 -0.982,1.226 -0.982,1.226l-1.83,0.044c-0,0 -1.071,-1.007 -1.071,-1.051c-0,-0.044 -0.179,-1.489 -0.179,-1.489c0,0 -0.714,-0.219 -0.759,-0.219c-0.044,0 -0.401,-1.62 -0.401,-1.62l-1.25,-0.7l-0.089,-0.964l-1.206,-0.525c0,-0 -0.133,-0.876 -0.178,-0.92c-0.045,-0.044 -0.58,-0.394 -0.625,-0.394c-0.045,0 -0.045,-2.408 -0.045,-2.408l1.072,-0.176l-0.6,-0.768l-0.204,-0.677l0,-0.7l0.893,-0.876c0,-0 -1.607,-0.219 -1.607,-0.175c0,0.044 -1.562,0.7 -1.562,0.657c0.045,-0 -0.045,2.846 -0.045,2.846l-1.83,0.569l-1.473,2.321l0.759,0.657Z" style="fill:#544b20;stroke:#544b21;stroke-width:0.4px;stroke-linecap:butt;"/><path id="path3593" d="M448.69,156.282l1.205,-0.701l-0.045,-1.357l-1.16,-0.263l-0.447,-0.438l1.295,0.219l1.606,-0.131l0.536,-0.263c-0.223,0.57 -0.402,0.526 -0.447,0.526c-0.044,-0 -0.892,0.438 -0.892,0.438l0.045,1.313c-0,0 2.767,0.35 2.722,0.35c-0.044,0 0,0.526 -0.089,0.526c-0.089,-0 -2.856,-0.613 -2.856,-0.613l-1.741,1.051l0.268,-0.657Z" style="fill:#544b20;stroke:#544b20;stroke-width:0.4px;stroke-linecap:butt;"/><path id="path3595" d="M455.652,148.137l-1.606,1.226l-1.027,1.796l-0.536,0.087l-1.562,-2.058l-1.785,0.044c0,0 -0.982,2.408 -0.982,2.452c-0,0.044 -0.714,-0.087 -0.714,-0.087l-1.875,-2.014c0,-0 -0.58,-1.008 -0.491,-1.008c0.089,0 4.687,0.044 4.687,0.044l-0.045,-2.189c0,-0 -0.714,-0.22 -1.071,-0.438c0.268,-0.088 2.544,-0.088 2.544,-0.088l-0.982,0.657l-0,1.883l4.062,0.043l1.383,-0.35Z" style="fill:#544b20;stroke:#544b20;stroke-width:0.4px;stroke-linecap:butt;"/><path id="rect3597" d="M448.065,149.714c-0,-0.29 -0.236,-0.526 -0.526,-0.526l-0.02,0c-0.29,0 -0.526,0.236 -0.526,0.526c0,0.29 0.236,0.525 0.526,0.525l0.02,0c0.29,0 0.526,-0.235 0.526,-0.525Z" style="fill:#796a3a;"/><path id="rect3599" d="M453.153,149.495c-0,-0.29 -0.236,-0.526 -0.526,-0.526l-0.02,0c-0.29,0 -0.525,0.236 -0.525,0.526c-0,0.29 0.235,0.525 0.525,0.525l0.02,0c0.29,0 0.526,-0.235 0.526,-0.525Z" style="fill:#7a6b3a;"/><path id="path3601" d="M444.583,145.685c1.696,-0.671 2.901,-1.211 4.999,-1.401c1.979,-0.205 3.511,0.073 5.267,0.394" style="fill:none;stroke:#544b20;stroke-width:0.4px;stroke-linecap:butt;"/><path id="path3603" d="M445.52,142.138l-1.383,0l-1.964,-2.058l1.116,0.132l1.294,0.569l0.937,1.357Z" style="fill:#544b20;stroke:#544b20;stroke-width:0.4px;stroke-linecap:butt;"/><path id="path3605" d="M453.867,141.35l3.124,-2.364l-1.026,-0.132l-1.161,1.051l-1.383,0.219l0.446,1.226Z" style="fill:#544b20;stroke:#544b20;stroke-width:0.4px;stroke-linecap:butt;"/><path id="path3607" d="M452.025,141.784l-4.898,0.179l0.045,-0.526l1.785,-0.175l0.223,-0.7c0,-0 0.536,-0.044 0.536,-0c0,0.044 0.402,0.657 0.402,0.657l1.74,0.306l0.167,0.259Z" style="fill:#544b20;stroke:#544b20;stroke-width:0.4px;stroke-linecap:butt;"/><path id="path3609" d="M451.769,139.949l-1.696,0.043l-0.134,-0.919l1.83,0.876Z" style="fill:#544b20;stroke:#544b20;stroke-width:0.4px;stroke-linecap:butt;"/><path id="path3611" d="M448.913,139.117l-0.135,0.919l-1.651,0.263l1.786,-1.182Z" style="fill:#544b20;stroke:#544b20;stroke-width:0.4px;stroke-linecap:butt;"/><path id="path3613" d="M439.539,155.888l0.848,-2.102l-0.758,-1.445l-0.759,2.146l0.669,1.401Z" style="fill:#544b20;stroke:#544b20;stroke-width:0.4px;stroke-linecap:butt;"/><path id="path3615" d="M441.236,157.027l1.026,-2.496l-1.964,2.014l0.938,0.482Z" style="fill:#544b20;stroke:#544b20;stroke-width:0.4px;stroke-linecap:butt;"/></g><path id="path3617" d="M483.222,162.717l-1.671,1.954l0.128,1.64l3.471,-0.063c1.113,-0.263 1.392,-0.652 1.606,-1.104c0.343,-0.557 0.107,-0.861 0.193,-1.607l-3.727,-0.82Z" style="fill:#a0210c;stroke:#a0210c;stroke-width:0.4px;stroke-linecap:butt;"/><path id="path3619" d="M491.576,167.634l-1.414,1.324l-0,1.513l3.085,-0.063c1.114,-0.262 1.263,-0.462 1.478,-0.914c0.342,-0.557 0.236,-0.546 0.321,-1.292l-3.47,-0.568Z" style="fill:#a0210c;stroke:#a0210c;stroke-width:0.4px;stroke-linecap:butt;"/><path id="path3621" d="M505.135,163.41l-1.606,1.64l0.064,1.26l3.277,0.126c1.114,-0.262 0.943,-0.21 1.286,-0.787c0.342,-0.557 0.235,-0.673 0.321,-1.419l-3.342,-0.82Z" style="fill:#a0210c;stroke:#a0210c;stroke-width:0.4px;stroke-linecap:butt;"/><path id="path3623" d="M514.71,166.374l-1.863,1.576l-0,1.576l3.47,0.315c1.114,-0.263 1.199,-0.588 1.478,-0.977c0.343,-0.557 0.171,-0.61 0.257,-1.356l-3.342,-1.134Z" style="fill:#a0210c;stroke:#a0210c;stroke-width:0.4px;stroke-linecap:butt;"/><path id="path3625" d="M491.383,125.141l6.555,4.351c1.232,-1.023 3.795,-0.403 4.799,-0.12c1.803,0.471 3.073,1.538 4.648,1.822c2.879,0.724 6.329,1.223 8.942,0.94c2.614,-0.284 4.808,-1.65 6.737,-2.642l0,-0.631l-1.285,0c-2.086,0.751 -5.009,0.792 -7.248,0.498c-2.238,-0.294 -2.841,-1.297 -6.183,-2.263l-0.257,-0.63c4.057,0.192 4.88,0.087 6.578,-0.653c1.66,-0.441 2.408,-1.404 3.345,-2.07l-0.026,-0.745l-1.221,-0.063c-1.573,1.048 -2.576,1.237 -4.986,1.017c-2.193,-0.222 -4.169,-1.471 -5.64,-1.497c-1.561,0.012 -1.487,-0.734 -2.997,-0.807c-2.399,-0.21 -4.992,0.11 -7.262,0.656c-2.721,0.82 -3.128,1.513 -4.499,2.837Z" style="fill:#a0210c;stroke:#000;stroke-width:0.4px;stroke-linecap:butt;"/><path id="path3627" d="M492.656,124.177c0.627,0.142 1.331,0.323 1.844,0.615c0.514,0.292 0.381,0.286 0.932,0.69c-0.088,-0.522 -0.063,-0.484 -0.418,-0.895c-0.355,-0.41 -0.938,-0.783 -1.407,-1.119l-0.951,0.709Z" style="stroke:#000;stroke-width:0.4px;stroke-linecap:butt;"/><path id="path3629" d="M498.133,128.878c0.012,-0.566 -0.279,-1.057 -0.495,-1.548c-0.215,-0.491 -0.393,-0.908 -0.799,-1.399c0.507,0.142 0.786,0.36 1.218,0.876c0.43,0.516 0.405,1.032 0.494,1.772l-0.418,0.299Z" style="stroke:#000;stroke-width:0.4px;stroke-linecap:butt;"/><path id="path3631" d="M499.388,121.975c0.152,0.392 0.451,0.662 0.703,1.498c0.219,0.76 0.323,1.823 0.323,1.823c-0.082,-0.566 0.064,-1.206 -0.019,-1.772c-0.082,-0.566 -0.393,-1.057 -0.475,-1.623l-0.532,0.074Z" style="stroke:#000;stroke-width:0.4px;stroke-linecap:butt;"/><path id="path3633" d="M504.712,122.311l0.266,3.134l0.304,-2.947l-0.57,-0.187Z" style="stroke:#000;stroke-width:0.4px;stroke-linecap:butt;"/><path id="path3635" d="M503.419,128.803c0.127,-0.51 0.101,-1.02 0.038,-1.53c-0.064,-0.509 -0.241,-0.945 -0.419,-1.529c0.507,0.435 0.71,0.982 0.989,1.567c0,0.584 -0.152,1.094 -0.608,1.492Z" style="stroke:#000;stroke-width:0.4px;stroke-linecap:butt;"/><path id="path3637" d="M508.933,127.423c0.019,-0 0.162,1.063 -0.08,1.828c-0.243,0.765 -0.414,0.821 -0.87,1.231c0.608,-0.447 1.14,-0.597 1.331,-1.082c0.19,-0.746 -0.305,-1.865 -0.381,-1.977Z" style="stroke:#000;stroke-width:0.4px;stroke-linecap:butt;"/><path id="path3639" d="M509.884,126.415c-0.38,0.063 -0.456,-1.517 -0.685,-2.276c0.165,-0.087 0.33,-0.062 0.495,0.299c0.177,0.211 0.126,1.318 0.19,1.977Z" style="stroke:#000;stroke-width:0.4px;stroke-linecap:butt;"/><path id="path3641" d="M513.649,125.781l0.152,-1.306l0.418,-0.037l0,1.119c0,0.038 -0.532,0.261 -0.57,0.224Z" style="stroke:#000;stroke-width:0.4px;stroke-linecap:butt;"/><path id="path3643" d="M513.344,129.288c0.242,0.398 0.672,0.871 0.723,1.306c0.051,0.435 -0.089,0.647 -0.418,1.306l0.608,0.037c0.33,-0.528 0.432,-0.907 0.381,-1.324c-0.051,-0.417 -0.254,-0.833 -0.685,-1.175l-0.609,-0.15Z" style="stroke:#000;stroke-width:0.4px;stroke-linecap:butt;"/><path id="path3645" d="M517.87,129.624l0.152,1.828l0.495,-0.261l-0.114,-1.567l-0.533,0Z" style="stroke:#000;stroke-width:0.4px;stroke-linecap:butt;"/><path id="path3647" d="M490.977,125.464c-1.484,0.429 -2.02,1.249 -2.746,1.957l-4.18,-2.117c-0.678,0.563 -0.939,1.366 -0.613,2.189c0.326,0.822 1.638,2.108 2.57,2.745c-0.233,1.135 -0.578,1.992 -0.985,2.988c-0.455,1.12 -1.43,2.534 -1.459,2.988c-0.055,0.52 -0.225,1.634 0.553,1.931c0.778,0.297 3.279,-0.205 4.114,-0.15c-0.136,0.446 -0.461,1.228 -0.35,1.563c0.111,0.335 0.335,0.447 1.014,0.466c-0.196,0.415 -0.618,0.941 -0.415,1.189c0.524,0.397 1.125,0.328 1.63,0.297c-0.797,0.924 -2.788,2.703 -3.434,3.498c-0.684,0.924 -0.742,1.922 0.582,1.825c-0.492,0.546 -0.966,1.073 -0.891,1.545c0.114,0.565 0.398,0.944 1.345,0.616c-0.56,1.267 -0.192,2.404 0.005,3.727c-0.478,1.001 -0.275,1.927 -0.394,3.077c-0.974,0.551 -1.095,1.27 -1.729,2.38c-0.571,1.201 -1.634,1.528 -2.224,4.105l3.824,0.954c0.14,-0.53 0.64,-0.874 0.781,-1.404c0.14,-0.53 0.129,-1.19 0.061,-1.775c0.759,-1.099 2.294,-3.369 2.787,-4.579c0.835,-0.445 1.442,-0.724 2.069,-0.724c0.627,-0 1.025,0.371 1.69,0.724c-0.294,1.02 -1.119,2.132 -1.166,3.561l-0,3.943c-0.167,0.979 -1.281,0.992 -1.75,3.941l3.435,0.891c0.583,-0.992 1.507,-1.129 1.749,-1.526l0.248,-4.096c0.437,-1.933 3.148,-3.532 3.187,-5.632c0.973,-0.013 1.34,0.086 1.726,-0.113c0.518,-0.181 0.696,-0.472 1.101,-0.839c0.156,0.633 0.653,0.688 1.075,0.688c0.421,0 1.258,-0.594 1.604,-0.836c0.243,0.343 0.372,0.667 0.88,0.787c0.509,0.119 1.945,-0.096 2.529,-0.236l-2.823,4.618c-0.105,0.445 0.036,0.723 -0.183,1.242c-0.205,0.467 -0.619,0.692 -0.805,1.121l3.2,0.765l0.51,-1.348c0.679,-0.286 1.225,-0.441 1.581,-0.876c0.357,-0.434 0.353,-1.259 0.558,-1.731c1.093,-0.793 2.812,-2.516 4.018,-3.942c0.819,0.138 1.98,0.816 2.42,1.828c0.062,1.086 0.142,3.083 -0.346,4.467l-2.074,3.243l-0.235,0.531l3.265,1.164l2.074,-1.59l0.081,-2.267c1.042,-1.84 2.532,-2.846 3.953,-4.006c0,-0.064 0.152,-2.435 0.095,-2.528c-0.351,-0.267 -0.588,-0.106 -0.712,-0.597c-0.124,-0.489 -0.04,-1.835 0.026,-2.362c0.205,-0.254 0.638,-0.546 0.616,-0.763c-0.565,-0.621 -0.392,-2.226 -0.219,-3.478c-0.043,-1.426 1.905,-3.112 2.203,-3.942l0.122,-1.497c-0.199,-0.368 -0.492,-0.587 -0.502,-0.899c-0.01,-0.312 0.378,-0.829 0.615,-1.16l0.413,-0.704l-0.064,-3.688c-0.116,-0.398 -0.459,-1.019 -0.783,-1.083c-0.324,-0.064 -0.8,0.301 -1.162,0.701l-1.876,1.386c-0.9,0.275 -1.686,0.383 -3.268,-0.011l-2.412,0.048c-1.267,0.354 -1.928,0.411 -3.119,-0.109l-1.429,0.023c-0.445,0.243 -1.061,0.633 -1.544,0.727c-0.483,0.093 -1.137,0.112 -1.62,-0.036c-3.688,0.248 -2.772,0.514 -3.826,0.744c-0.846,-0.161 -0.574,-0.582 -3.864,-0.612l-1.304,-0.382c-1.646,-1.09 -2.912,-2.831 -4.009,-4.832c3.428,-0.982 4.866,-2.001 5.906,-4.34l-4.847,0.181l-6.853,-4.554Z" style="fill:#f9f704;stroke:#544b20;stroke-width:0.4px;stroke-linecap:butt;"/><path id="path3649" d="M489.261,131.445l1.373,0.582c0.167,0.199 0.492,0.429 0.707,0.443c0.214,0.013 0.397,-0.206 0.581,-0.363l1.263,-0.662c-0.748,-0.108 -0.977,-0.572 -1.772,-0.572c-0.796,-0 -1.356,0.417 -2.152,0.572Z" style="stroke:#000;stroke-width:0.4px;stroke-linecap:butt;"/><path id="path3651" d="M495.289,131.786c0.446,0.263 1.255,0.79 1.922,0.79c0.73,-0.062 0.719,-0.573 1.764,-0.914l1.534,-1.239c-0.925,0.01 -2.924,0.191 -4.022,0.527c-0.925,0.242 -1.14,0.609 -1.198,0.836Z" style="stroke:#000;stroke-width:0.4px;stroke-linecap:butt;"/><path id="path3653" d="M491.781,147.632c-0,0.113 -0.19,0.196 -0.285,0.062c-0.118,-1.609 -0.472,-2.737 -0.968,-3.99c0.559,0.953 1.025,2.495 1.253,3.928Z" style="stroke:#000;stroke-width:0.4px;stroke-linecap:butt;"/><path id="path3655" d="M495.697,154.231c-0.624,0.064 -0.87,-0.028 -1.493,0.035c-0.069,-1.618 -0.075,-3.469 -0.065,-4.622c0.238,0.029 0.934,0.755 1.345,1.899c0.108,0.845 0.263,1.797 0.213,2.688Z" style="stroke:#000;stroke-width:0.4px;stroke-linecap:butt;"/><path id="path3657" d="M499.84,147.806c0.281,0.077 0.673,0.078 0.765,-0.108c0.119,-0.345 -0.236,-0.721 -0.369,-1.143c-0.462,-0.906 -0.719,-1.89 -0.912,-2.316c-0.204,-0.128 -0.423,-0.117 -0.375,0.096c0.266,0.806 0.721,3.16 0.891,3.471Z" style="stroke:#000;stroke-width:0.4px;stroke-linecap:butt;"/><path id="path3659" d="M504.26,147.318c0.031,0.195 -0.633,-0.089 -0.745,-0.311c-0.01,-0.432 -0.904,-3.588 -0.756,-3.711c0.188,-0.092 0.77,1.055 0.958,1.583c0.044,0.313 0.436,1.461 0.543,2.439Z" style="stroke:#000;stroke-width:0.4px;stroke-linecap:butt;"/><path id="path3661" d="M503.634,153.823c-0.016,0.221 0.505,0.039 0.71,-0.127c0.595,-0.93 1.332,-1.906 1.549,-2.279c0.131,-0.398 0.782,-2.933 0.581,-2.913c-0.071,-0.073 -0.637,1.258 -1.369,2.571c-0.76,1.337 -1.479,2.62 -1.471,2.748Z" style="stroke:#000;stroke-width:0.4px;stroke-linecap:butt;"/><path id="path3663" d="M508.067,152.461c-0.216,0.104 0.435,-2.191 0.487,-2.598c0.119,-0.643 0.285,-1.797 0.546,-3.291c0.319,2.087 -0.057,4.329 -1.033,5.889Z" style="stroke:#000;stroke-width:0.4px;stroke-linecap:butt;"/><path id="path3665" d="M510.726,145.435c-0.142,0.124 -2.046,-3.024 -1.871,-3.039c0.049,-0.14 1.596,1.97 1.817,2.341c0.092,0.176 0.183,0.445 0.054,0.698Z" style="stroke:#000;stroke-width:0.4px;stroke-linecap:butt;"/><path id="path3667" d="M515.183,147.772c-0.142,-0.107 -0.085,-1.112 -0.367,-2.216c-0.282,-1.104 -0.761,-2.168 -0.666,-2.47c0.089,-0.159 0.399,-0.085 0.646,0.127c0.117,0.601 0.392,2.905 0.715,4.403c-0.004,0.145 -0.166,0.244 -0.328,0.156Z" style="stroke:#000;stroke-width:0.4px;stroke-linecap:butt;"/><path id="path3669" d="M518.298,144.975c-0.153,-0.162 0.413,1.081 0.826,2.558c0.412,1.477 0.623,4.086 0.723,3.901c0.283,-0.188 0.235,-0.422 0.676,-0.518c0.441,-0.094 2.081,0.058 1.986,-0.052c-1.015,-0.904 -1.951,-1.653 -2.65,-2.635c-0.699,-0.981 -1.162,-2.272 -1.561,-3.254Z" style="stroke:#000;stroke-width:0.4px;stroke-linecap:butt;"/><path id="path3671" d="M522.134,158.443c-0.318,0.229 -0.92,0.412 -1.096,0.317c-0.968,-2.013 -1.51,-3.328 -2.856,-5.48c-0.347,-0.511 -1.211,-0.432 -1.162,-0.633c0.032,-0.232 0.485,-0.139 0.778,-0.476c0.293,-0.337 0.331,-0.763 0.513,-0.917c-0.396,0.928 0.644,2.352 1.226,3.482c0.388,0.106 0.696,0.103 0.878,0.332c0.043,0.109 -0.419,0.186 -0.36,0.573l0.983,1.979c0.32,0.24 0.813,0.372 1.29,0.443c0.125,0.111 -0.097,0.268 -0.194,0.38Z" style="stroke:#000;stroke-width:0.4px;stroke-linecap:butt;"/><path id="path3673" d="M522.686,180.568l17.282,-60.917l36.684,-14.778l19.455,32.896l-27.846,56.55c-15.751,-5.953 -24.759,-9.133 -45.575,-13.751Z" style="fill:none;"/><path id="path3675" d="M524.146,140.853c0.607,0.034 1.156,0.087 1.336,-0.222c0.371,-0.764 0.586,-1.394 0.336,-1.891c-0.951,0.076 -1.671,0.515 -2.059,1.354c0.012,0.291 0.083,0.506 0.387,0.759Z" style="stroke:#000;stroke-width:0.4px;stroke-linecap:butt;"/><path id="path3677" d="M534.144,140.28c9.411,1.988 18.122,4.25 26.833,7.061c8.71,2.81 17.002,6.169 25.434,9.802l-14.115,28.518c-7.879,-2.998 -15.658,-5.415 -23.437,-7.928c-7.779,-2.514 -15.361,-4.737 -23.239,-7.153l8.524,-30.3Z" style="fill:#fdfcfc;stroke:#fdfcfc;stroke-width:0.4px;stroke-linecap:butt;"/><path id="path3679" d="M532.27,147.016c0,0 13.142,2.933 25.878,7.029c12.735,4.096 25.161,9.355 25.112,9.355c-0.099,-0 -8.005,16.287 -8.005,16.287c-7.674,-3.053 -15.745,-5.914 -23.716,-8.483c-7.971,-2.569 -15.942,-5.041 -24.111,-6.931l4.842,-17.257Z" style="fill:#e6151e;stroke:#e6151e;stroke-width:0.4px;stroke-linecap:butt;"/><path id="path3681" d="M533.362,154.982c1.293,-0.722 2.168,-0.917 2.864,-2.108l4.654,0.001l0.06,1.697c1.144,0.546 1.81,1.152 2.954,1.698c1.143,0.546 2.765,1.034 3.908,1.58l10.025,0.879c1.342,0.214 3.282,0.78 4.445,1.463c1.164,0.683 1.91,1.542 2.537,2.634c2.058,0.722 4.117,1.152 6.235,1.464c2.119,0.312 4.774,0.449 6.832,0.527c1.015,0.351 1.015,0.878 0.537,1.405c0,-0 -1.134,1.536 -4.229,1.551c-3.096,0.015 -6.601,-1.727 -8.123,-1.493c0.06,0.937 1.671,2.869 3.521,3.63l-0.059,4.449l-0.836,0.761l-0.895,-0.585c0.716,-1.054 0.477,-2.284 0.179,-3.337c-0.686,-0.995 -0.776,-1.405 -2.058,-1.463c-1.522,-0.294 -2.626,-0.704 -4.565,-2.05l-0.717,0.117c-0.417,0.742 -0.835,1.249 -1.79,1.698l-1.969,-0.117c0,-0 -4.535,-0.995 -4.535,-1.054c0,-0.058 -0.06,-0.702 0.06,-0.761c0.119,-0.059 1.551,-0.058 1.67,-0.058c0.955,0.292 2.984,0.292 2.984,0.292l-0.06,-1.698l3.044,-0.175c-0.617,-2.107 -0.816,-3.454 -3.64,-3.922l-8.832,0.234l0.12,1.229c-2.208,-0.292 -6.206,-0.345 -8.248,0.332c-1.193,0.117 -2.911,0.722 -3.686,0.722l-0.896,-0.234c-0.596,-0.176 -0.596,-0.351 -0.357,-0.878c3.818,-0.293 4.415,-0.586 5.549,-1.112c0.06,-0.352 -0.418,-1.113 -0.597,-1.172c-2.386,-0.116 -4.296,0.059 -4.952,-0.058c-1.014,-0.293 -2.387,-0.819 -2.387,-0.878c-0,-0.059 -0.179,-0.937 -0.119,-0.937c0.059,0 1.551,0.41 1.61,0.41c1.612,0.293 4.416,0.176 5.073,-0.175l0.06,-1.289c-0.06,-0.585 -0.478,-1.112 -0.598,-1.17c-0.119,-0.059 -2.625,-0.351 -3.52,-0.351c-1.452,-0.254 -1.233,-0.976 -1.253,-1.698Z" style="stroke:#010001;stroke-opacity:0.99;stroke-width:0.4px;stroke-linecap:butt;"/><path id="path3683" d="M552.635,165.402c1.353,0.429 2.347,0.566 4.356,0.702l3.044,-0.175c-0.617,-2.107 -0.816,-3.454 -3.64,-3.922l-8.832,0.234l0.12,1.229c2.685,0.995 3.998,1.542 4.952,1.932Z" style="fill:#fdfdfd;stroke:#010001;stroke-opacity:0.99;stroke-width:0.4px;stroke-linecap:butt;"/><path id="path3685" d="M377.252,180.556l-15.96,-59.48l24.353,-29.503l34.149,19.495l5.789,63.029c-17.425,1.291 -28.714,2.968 -48.331,6.459Z" style="fill:#011171;fill-opacity:0.99;stroke:#011171;stroke-width:0.4px;stroke-linecap:butt;"/><path id="path3687" d="M322.413,135.82l5.844,4.543l-1.095,7.947l7.524,-3.129l5.969,4.536l0.818,-7.309l6.175,-2.426l-5.106,-4.899l1.136,-7.266c-0,0 -7.424,2.688 -7.428,2.626c-0.004,-0.061 -5.335,-4.512 -5.395,-4.447c-0.059,0.066 -1.222,6.9 -1.222,6.9l-7.22,2.924Z" style="fill:#fbfd10;fill-opacity:0.99;stroke:#fdc605;stroke-opacity:0.99;stroke-width:0.4px;stroke-linecap:butt;"/><path id="path3689" d="M322.543,135.874l25.038,4.051l-6.231,2.553l-6.017,-4.285c0,-0 5.374,11.335 5.307,11.277c-0.067,-0.058 -5.694,-4.181 -5.895,-4.354l0.525,-6.919c0,-0 -7.986,10.044 -7.989,9.982c-0.004,-0.062 1.161,-7.889 1.161,-7.889l-5.899,-4.416Z" style="fill:#ffc500;"/><path id="path3691" d="M329.57,132.9l5.803,4.918l-4.525,-11.945l-1.278,7.027Z" style="fill:#ffc500;"/><path id="path3693" d="M336.191,130.509c0.067,0.058 -0.888,7.189 -0.825,7.185c0.584,-0.78 8.312,-9.877 8.249,-9.873c-0.063,0.004 -7.294,2.742 -7.424,2.688Z" style="fill:#ffc500;"/><path id="path3695" d="M558.727,120.884l1.472,7.178l-6.058,5.388l7.796,2.371l1.573,7.251l5.427,-5.076l6.305,2.054l-0.676,-6.983l5.642,-4.841c0,-0 -7.43,-2.645 -7.392,-2.694c0.037,-0.05 -1.105,-6.833 -1.193,-6.82c-0.088,0.013 -5.466,4.506 -5.466,4.506l-7.43,-2.334Z" style="fill:#fbfd10;fill-opacity:0.99;stroke:#fdc605;stroke-opacity:0.99;stroke-width:0.4px;stroke-linecap:butt;"/><path id="path3697" d="M558.791,121.007l16.438,18.957l-6.431,-1.992l-1.774,-7.09c-0,-0 -3.351,12.078 -3.363,11.991c-0.013,-0.086 -1.597,-6.805 -1.636,-7.065l4.948,-4.963c0,0 -12.693,2.63 -12.655,2.58c0.038,-0.05 6.07,-5.302 6.07,-5.302l-1.597,-7.116Z" style="fill:#ffc500;"/><path id="path3699" d="M566.106,123.182l1.194,7.439l4.398,-12.008l-5.592,4.569Z" style="fill:#fdc605;"/><path id="path3701" d="M572.728,125.545c0.012,0.086 -5.403,4.939 -5.352,4.976c0.959,-0.227 12.832,-2.296 12.782,-2.332c-0.051,-0.037 -7.367,-2.521 -7.43,-2.644Z" style="fill:#fdc605;"/><path id="path3703" d="M361.408,121.306c8.668,-4.143 18.397,-7.375 28.657,-8.785c9.861,-1.41 19.73,-1.532 29.857,-1.511c0,0 1.327,15.51 1.327,15.64c-7.96,0.065 -13.892,-0.083 -27.934,1.734c-13.964,1.936 -19.716,3.596 -28.206,6.85l-3.701,-13.928Z" style="fill:#e6141d;stroke:#e6141d;stroke-width:0.4px;stroke-linecap:butt;"/><path id="path3705" d="M368.83,148.763c-0.132,-0 4.386,16.407 4.386,16.407c8.336,-2.104 16.805,-3.688 25.273,-4.881c8.469,-1.193 17.476,-1.873 25.679,-2.415l-1.452,-16.002c-8.646,-0.521 -18.5,-0.521 -27.411,0.65c-8.911,1.172 -17.563,3.247 -26.475,6.241Z" style="fill:#e6141d;stroke:#e6141d;stroke-width:0.4px;stroke-linecap:butt;"/><path id="path3707" d="M329.04,199.428l241.935,-0l0,155.134c-6.149,60.417 -64.217,105.578 -117.278,105.233c-57.277,2.499 -120.616,-44.385 -125.184,-105.75l0.527,-154.617Z" style="fill:#fff;stroke:#e5141d;stroke-width:1.6px;stroke-linecap:butt;"/><path id="path3709" d="M334.071,204.856l231.851,0l0,148.669c-5.893,57.898 -61.541,101.177 -112.389,100.847c-54.89,2.395 -115.589,-42.536 -119.967,-101.343l0.505,-148.173Z" style="fill:#d61517;stroke:#e5141d;stroke-width:1.53px;stroke-linecap:butt;"/><rect id="rect3711" x="380.764" y="205.648" width="46.106" height="49.557" style="fill:#fff;"/><path id="path3713" d="M519.335,354.578l0.012,49.004l26.017,0.121c12.565,-18.822 18.054,-37.24 19.236,-49.115c-0.204,0 -45.085,-0.022 -45.265,-0.01Z" style="fill:#fff;stroke:#fff;stroke-width:0.41px;stroke-linecap:butt;"/><path id="path3715" d="M473.231,404.107l0.008,47.054c19.987,-4.022 36.348,-14.001 45.668,-20.732l-0.077,-26.341l-45.599,0.019Z" style="fill:#fff;stroke:#fff;stroke-width:0.41px;stroke-linecap:butt;"/><path id="path3717" d="M381.084,404.103l0.096,26.284c15.707,11.087 33.645,17.819 45.591,20.314l-0.154,-46.581l-45.533,-0.017Z" style="fill:#fff;stroke:#fff;stroke-width:0.41px;stroke-linecap:butt;"/><path id="path3719" d="M334.91,354.595c1.464,19.188 10.092,36.379 18.708,48.416l26.889,0.56l0.005,-48.997l-45.602,0.021Z" style="fill:#fff;stroke:#fff;stroke-width:0.41px;stroke-linecap:butt;"/><rect id="rect1722" x="334.658" y="255.204" width="46.106" height="49.557" style="fill:#fff;"/><rect id="rect1724" x="426.871" y="255.204" width="46.106" height="49.557" style="fill:#fff;"/><rect id="rect1726" x="472.977" y="205.422" width="46.106" height="49.557" style="fill:#fff;"/><rect id="rect1728" x="519.084" y="255.204" width="46.106" height="49.557" style="fill:#fff;"/><rect id="rect1730" x="380.764" y="304.761" width="46.106" height="49.557" style="fill:#fff;"/><rect id="rect1732" x="472.977" y="304.761" width="46.106" height="49.557" style="fill:#fff;"/><rect id="rect1734" x="426.871" y="354.318" width="46.106" height="49.557" style="fill:#fff;"/></g></svg>