<?xml version="1.0" encoding="UTF-8" standalone="no"?><!DOCTYPE svg PUBLIC "-//W3C//DTD SVG 1.1//EN" "http://www.w3.org/Graphics/SVG/1.1/DTD/svg11.dtd"><svg width="100%" height="100%" viewBox="0 0 900 600" version="1.1" xmlns="http://www.w3.org/2000/svg" xmlns:xlink="http://www.w3.org/1999/xlink" xml:space="preserve" xmlns:serif="http://www.serif.com/" style="fill-rule:evenodd;clip-rule:evenodd;stroke-linecap:round;stroke-linejoin:round;"><rect x="0" y="0" width="900" height="600" style="fill:#f00;"/><rect x="0" y="0" width="360" height="600" style="fill:#060;"/><g><path d="M477.36,393.06c-45.315,-1.365 -253.11,-131.07 -254.535,-151.725l11.474,-19.136c20.612,29.95 233.04,156.091 253.905,151.621l-10.844,19.234" style="fill:#ff0;stroke:#000;stroke-width:0.86px;"/><path d="M231.885,219.6c-4.065,10.941 54.224,46.977 124.355,89.631c70.128,42.651 130.597,69.009 135.079,65.229c0.274,-0.488 2.205,-3.811 2.028,-3.785c-0.84,1.266 -2.885,1.666 -6.076,0.746c-18.946,-5.465 -68.362,-28.147 -129.561,-65.259c-61.197,-37.114 -114.441,-71.316 -122.716,-85.848c-0.576,-1.006 -0.986,-2.844 -0.903,-4.273l-0.201,-0.003l-1.762,3.08l-0.242,0.483l-0.001,-0l-0,-0.001Zm246.54,174.06c-0.769,1.394 -2.201,1.441 -4.922,1.142c-16.95,-1.876 -68.384,-26.888 -129.243,-63.32c-70.815,-42.39 -129.3,-81.015 -122.955,-91.11l1.726,-3.052l0.34,0.106c-5.706,17.108 115.422,86.367 122.553,90.783c70.086,43.421 129.172,68.777 134.401,62.187l-1.902,3.272l0,-0.003l0.002,-0.005Z" style="fill:#ff0;stroke:#000;stroke-width:0.86px;"/><path d="M360.255,253.845c45.356,-0.359 101.325,-6.198 133.534,-19.035l-6.939,-11.275c-19.038,10.537 -75.315,17.466 -126.978,18.502c-61.104,-0.562 -104.235,-6.252 -125.846,-20.752l-6.551,12.007c39.726,16.81 80.435,20.38 132.78,20.554" style="fill:#ff0;stroke:#000;stroke-width:0.86px;"/><path d="M495.66,235.065c-1.109,1.773 -22.115,9.017 -53.06,14.363c-20.981,3.199 -48.351,5.933 -82.505,5.966c-32.45,0.031 -58.958,-2.279 -79.027,-4.999c-32.484,-5.093 -49.249,-12.18 -55.447,-14.684c0.593,-1.179 0.974,-2.006 1.545,-3.107c17.843,7.104 34.686,11.388 54.419,14.424c19.936,2.7 46.125,5.043 78.414,5.013c33.996,-0.035 61.063,-2.977 81.924,-6.08c31.732,-5.119 49.066,-11.706 51.501,-14.764l2.241,3.868l-0.005,0Zm-6.09,-11.434c-3.44,2.762 -20.577,8.84 -50.729,13.655c-20.122,2.884 -45.708,5.465 -78.397,5.497c-31.056,0.03 -56.429,-2.063 -75.728,-4.874c-30.621,-3.999 -46.918,-11.213 -52.794,-13.316c0.585,-1.011 1.18,-2.014 1.791,-3.02c4.572,2.302 20.3,8.686 51.339,13.083c19.08,2.706 44.492,4.722 75.393,4.69c32.535,-0.033 57.83,-2.664 77.825,-5.532c30.307,-4.17 46.615,-11.921 49.092,-13.862l2.209,3.676l-0,0.003l-0.001,0Z" style="fill:#ff0;stroke:#000;stroke-width:0.86px;"/><path d="M211.32,308.49c27.897,15.005 89.858,22.566 148.491,23.087c53.386,0.084 122.937,-8.253 148.945,-22.036l-0.715,-15.017c-8.137,12.715 -82.67,24.913 -148.809,24.414c-66.14,-0.499 -127.557,-10.715 -148.031,-23.939l0.119,13.487" style="fill:#ff0;stroke:#000;stroke-width:0.86px;"/><path d="M510.18,306.33l0.001,3.581c-3.909,4.674 -28.419,11.738 -59.155,16.713c-23.393,3.587 -53.891,6.292 -91.893,6.292c-36.104,-0 -64.895,-2.575 -87.222,-6.002c-35.294,-5.14 -57.869,-14.14 -62.4,-16.826l0.02,-4.178c13.612,9.051 50.491,15.671 62.875,17.697c22.182,3.406 50.802,5.96 86.726,5.96c37.824,0 68.151,-2.687 91.396,-6.249c22.052,-3.186 53.466,-11.47 59.651,-16.986l0.001,-0l0,-0.002Zm0.015,-12.738l0.001,3.581c-3.909,4.671 -28.419,11.735 -59.155,16.71c-23.393,3.586 -53.891,6.292 -91.893,6.292c-36.104,-0 -64.895,-2.572 -87.222,-6.003c-35.294,-5.136 -57.869,-14.136 -62.4,-16.824l0.02,-4.177c13.612,9.048 50.491,15.67 62.875,17.694c22.182,3.408 50.802,5.963 86.726,5.963c37.824,0 68.151,-2.688 91.396,-6.253c22.052,-3.186 53.466,-11.47 59.651,-16.986l0.001,0.003l0,-0Z" style="fill:#ff0;stroke:#000;stroke-width:0.86px;"/><path d="M359.685,390.48c-64.158,-0.382 -119.132,-17.489 -130.74,-20.316l8.465,13.252c20.505,8.625 74.136,21.48 122.89,20.056c48.756,-1.422 91.365,-5.199 121.392,-19.816l8.68,-13.734c-20.463,9.638 -90.102,20.459 -130.688,20.558" style="fill:#ff0;stroke:#000;stroke-width:0.86px;"/><path d="M484.95,380.58c-1.275,1.949 -2.576,3.873 -3.894,5.744c-14.163,4.994 -36.479,10.237 -45.896,11.766c-19.236,3.964 -48.997,6.891 -75.411,6.904c-56.835,-0.832 -103.357,-11.957 -125.244,-21.448l-1.766,-3.036l0.288,-0.457l2.995,1.162c38.922,13.925 82.637,19.48 124.047,20.478c26.307,0.092 52.643,-3.015 73.938,-6.824c32.657,-6.543 45.861,-11.475 49.913,-13.71l1.03,-0.579l-0.001,0l0.001,0Zm7.526,-12.413c0.033,0.038 0.066,0.076 0.098,0.116c-0.954,1.61 -1.937,3.248 -2.944,4.894c-7.553,2.7 -28.053,8.698 -57.988,12.884c-19.724,2.687 -31.983,5.289 -71.219,6.051c-73.522,-1.871 -121.125,-16.247 -132.433,-19.793l-1.676,-3.214c42.609,11.123 86.133,18.888 134.112,19.681c35.896,-0.764 51.168,-3.408 70.728,-6.075c34.906,-5.428 52.494,-11.174 57.772,-12.833c-0.066,-0.096 -0.144,-0.196 -0.231,-0.299l3.785,-1.415l-0.003,0.003l-0.001,0Z" style="fill:#ff0;stroke:#000;stroke-width:0.83px;"/><path d="M493.245,296.64c0.208,42.206 -21.39,80.079 -38.787,96.787c-24.612,23.639 -57.245,38.844 -95.354,39.545c-42.555,0.782 -82.68,-26.961 -93.442,-39.149c-21.042,-23.827 -38.174,-54.085 -38.723,-94.864c2.607,-46.064 20.69,-78.15 46.902,-100.154c26.213,-22.003 61.115,-32.719 90.182,-31.953c33.537,0.886 72.712,17.337 99.781,49.998c17.735,21.399 25.415,44.622 29.441,79.79Zm-133.779,-144.513c81.727,-0 148.944,66.507 148.944,148.054c-0,81.546 -67.217,148.056 -148.944,148.056c-81.728,0 -148.386,-66.508 -148.386,-148.056c-0,-81.547 66.658,-148.054 148.386,-148.054" style="fill:#ff0;stroke:#000;stroke-width:0.86px;"/><path d="M359.865,151.62c81.801,0 148.516,66.724 148.516,148.533c0,81.807 -66.717,148.53 -148.516,148.53c-81.801,0 -148.517,-66.721 -148.517,-148.53c0,-81.808 66.718,-148.533 148.517,-148.533Zm-145.248,148.534c0,79.89 65.604,145.263 145.248,145.263c79.645,-0 145.25,-65.373 145.25,-145.263c-0,-79.893 -65.606,-145.266 -145.25,-145.266c-79.644,-0 -145.248,65.376 -145.248,145.266Z" style="fill:#ff0;stroke:#000;stroke-width:0.86px;"/><path d="M359.985,163.965c74.596,0 136.039,61.232 136.039,136.056c0,74.826 -61.444,136.054 -136.039,136.054c-74.595,0 -136.039,-61.228 -136.039,-136.054c-0,-74.825 61.446,-136.056 136.039,-136.056Zm-132.772,136.055c-0,73.028 59.968,132.786 132.772,132.786c72.804,0 132.772,-59.758 132.772,-132.786c0,-73.029 -59.967,-132.787 -132.772,-132.787c-72.804,-0 -132.772,59.758 -132.772,132.787Z" style="fill:#ff0;stroke:#000;stroke-width:0.86px;"/><path d="M365.97,151.02l-12.728,0l0.015,298.44l12.772,-0l-0.059,-298.44Z" style="fill:#ff0;stroke:#000;stroke-width:0.86px;"/><path d="M364.695,149.319l3.24,0l0.027,301.875l-3.242,-0l-0.024,-301.875l-0.001,0Zm-12.632,0.003l3.265,-0l0.004,301.875l-3.267,-0l-0,-301.875l-0.002,-0Z" style="fill:#ff0;stroke:#000;stroke-width:0.86px;"/><path d="M508.485,305.903l0,-11.034l-8.985,-8.37l-51,-13.5l-73.5,-7.5l-88.5,4.5l-63,15l-12.72,9.42l0,11.036l32.22,-14.455l76.5,-12l73.5,-0l54,6l37.5,9l23.985,11.902Z" style="fill:#ff0;stroke:#000;stroke-width:0.86px;"/><path d="M359.925,277.155c35.074,-0.065 69.105,3.323 96.097,8.579c27.854,5.568 47.456,12.534 54.158,20.357l-0.008,3.873c-8.082,-9.735 -34.459,-16.872 -54.777,-20.952c-26.787,-5.211 -60.589,-8.575 -95.47,-8.51c-36.807,0.069 -71.081,3.554 -97.476,8.704c-21.18,4.203 -49.427,12.552 -52.953,20.787l-0,-4.033c1.937,-5.7 22.969,-14.219 52.476,-20.126c26.593,-5.185 60.93,-8.612 97.953,-8.679l-0,0Zm0.015,-12.738c35.074,-0.064 69.105,3.325 96.097,8.579c27.854,5.571 47.456,12.533 54.158,20.356l-0.008,3.874c-8.082,-9.733 -34.459,-16.871 -54.777,-20.949c-26.787,-5.214 -60.589,-8.578 -95.47,-8.511c-36.807,0.066 -70.914,3.555 -97.313,8.702c-20.439,3.875 -49.839,12.555 -53.118,20.79l0,-4.036c1.937,-5.638 23.396,-14.462 52.478,-20.125c26.593,-5.186 60.93,-8.61 97.953,-8.68l-0,-0Z" style="fill:#ff0;stroke:#000;stroke-width:0.86px;"/><path d="M359.22,199.44c55.274,-0.276 103.485,7.728 125.542,19.028l8.046,13.918c-19.171,-10.332 -71.184,-21.075 -133.507,-19.469c-50.781,0.313 -105.041,5.591 -132.264,20.115l9.605,-16.063c22.342,-11.586 75.033,-17.465 122.58,-17.526" style="fill:#ff0;stroke:#000;stroke-width:0.86px;"/><path d="M359.955,210.93c31.526,-0.083 61.988,1.695 86.214,6.066c22.562,4.198 44.078,10.501 47.154,13.89l2.385,4.215c-7.482,-4.886 -26.101,-10.325 -50.008,-14.859c-24.009,-4.512 -54.45,-6.007 -85.8,-5.925c-35.583,-0.122 -63.228,1.757 -86.954,5.893c-25.092,4.695 -42.501,11.403 -46.795,14.59l2.337,-4.456c8.345,-4.257 21.585,-9.389 43.835,-13.395c24.535,-4.482 52.474,-5.826 87.634,-6.019l-0.001,0l-0.001,0Zm-0.013,-12.726c30.169,-0.08 59.957,1.602 83.178,5.775c18.313,3.566 36.424,9.131 43.056,14.084l3.488,5.543c-5.93,-6.592 -28.254,-12.839 -47.961,-16.338c-23.042,-3.974 -51.593,-5.547 -81.762,-5.798c-31.662,0.089 -60.923,2.028 -83.628,6.162c-21.662,4.122 -35.64,9.003 -41.555,12.814l3.068,-4.63c8.162,-4.297 21.348,-8.243 37.955,-11.47c22.873,-4.165 52.314,-6.054 84.162,-6.142l-0.001,-0Z" style="fill:#ff0;stroke:#000;stroke-width:0.86px;"/><path d="M433.725,361.89c-27.327,-5.101 -54.704,-5.842 -73.826,-5.617c-92.11,1.079 -121.866,18.913 -125.497,24.313l-6.884,-11.222c23.451,-16.998 73.609,-26.53 132.88,-25.555c30.777,0.504 57.336,2.548 79.679,6.875l-6.354,11.209" style="fill:#ff0;stroke:#000;stroke-width:0.86px;"/><path d="M359.37,354.69c25.623,0.382 50.774,1.441 75.049,5.968l-1.758,3.103c-22.546,-4.162 -46.582,-5.755 -73.204,-5.625c-33.995,-0.266 -68.378,2.909 -98.312,11.5c-9.445,2.629 -25.081,8.701 -26.676,13.719l-1.748,-2.884c0.504,-2.966 9.954,-9.121 27.621,-14.085c34.287,-9.819 66.358,-11.474 99.028,-11.699l0,0.003l0,0Zm1.163,-12.894c26.547,0.496 53.962,1.723 80.61,7.002l-1.831,3.23c-24.063,-4.777 -47.054,-6.37 -78.623,-6.855c-34.102,0.062 -70.276,2.494 -103.167,12.056c-10.618,3.093 -28.945,9.78 -29.556,15.075l-1.748,-3.098c0.398,-4.809 16.263,-11.082 30.537,-15.234c33.144,-9.637 69.412,-12.114 103.779,-12.177l-0.001,0.001Z" style="fill:#ff0;stroke:#000;stroke-width:0.83px;"/><path d="M491.37,371.07l-11.068,17.174l-31.802,-28.244l-82.5,-55.5l-93,-51l-48.285,-16.515l10.29,-19.08l3.495,-1.905l30,7.5l99,51l57,36l48,34.5l19.5,22.5l-0.63,3.57Z" style="fill:#ff0;stroke:#000;stroke-width:0.86px;"/><path d="M222.975,237.435c8.469,-5.744 70.709,21.983 135.833,61.251c64.951,39.381 127.015,83.881 121.413,92.209l-1.843,2.899l-0.846,0.667c0.182,-0.13 1.116,-1.272 -0.091,-4.359c-2.767,-9.106 -46.792,-44.237 -119.841,-88.343c-71.212,-42.463 -130.561,-68.056 -136.495,-60.741l1.87,-3.584l-0.001,0l0.001,0.001Zm270.66,133.39c5.355,-10.578 -52.374,-54.066 -123.948,-96.408c-73.219,-41.499 -125.991,-65.926 -135.63,-58.642l-2.142,3.899c-0.018,0.214 0.078,-0.266 0.531,-0.616c1.753,-1.529 4.658,-1.426 5.969,-1.449c16.597,0.248 64,22.063 130.509,60.192c29.142,16.972 123.106,77.236 122.748,94.183c0.025,1.457 0.12,1.757 -0.428,2.478l2.391,-3.635l-0,-0.003l0,0.001Z" style="fill:#ff0;stroke:#000;stroke-width:0.86px;"/></g><g><path d="M270.9,316.515c0,24.407 9.994,46.481 26.185,62.613c16.223,16.167 38.269,26.368 62.714,26.368c24.571,0 46.87,-9.978 63.024,-26.083c16.154,-16.103 26.164,-38.328 26.169,-62.82l-0.003,0l0,-118.784l-178.11,-0.211l0.018,118.917l0.003,-0l0,0Z" style="fill:#fff;fill-rule:nonzero;stroke:#000;stroke-width:1.01px;stroke-linecap:butt;stroke-linejoin:miter;"/><path d="M274.23,316.68l0,0.067c0,23.336 9.662,44.586 25.162,60.014c15.531,15.457 36.921,25.068 60.322,25.068c23.521,-0 44.868,-9.541 60.333,-24.939c15.462,-15.398 25.045,-36.65 25.048,-60.066l-0.003,0l-0,-115.239l-170.76,-0.028l-0.105,115.122m136.533,-80.62l0.006,73.336l-0.062,7.758l0.002,-0c-0,2.041 -0.123,4.368 -0.361,6.35c-1.388,11.594 -6.721,21.7 -14.618,29.562c-9.246,9.203 -22.007,14.912 -36.071,14.912c-13.99,-0 -26.458,-5.907 -35.743,-15.15c-9.525,-9.48 -15.045,-22.479 -15.045,-35.921l-0.02,-81.034l101.91,0.184l0.003,0.003l-0.001,-0Z" style="fill:#f00;fill-rule:nonzero;stroke:#000;stroke-width:0.76px;stroke-linecap:butt;stroke-linejoin:miter;"/><g id="castle3"><g id="castle"><path d="M285.285,231.645c0.202,-8.281 6.079,-10.242 6.121,-10.271c0.042,-0.028 6.347,2.111 6.326,10.348l-12.447,-0.077" style="fill:#ff0;fill-rule:nonzero;"/><path d="M280.215,221.535l-1.023,9.517l6.211,0.014c0.06,-7.874 5.961,-9.184 6.104,-9.155c0.134,-0.008 5.983,1.741 6.139,9.155l6.227,-0l-1.124,-9.59l-22.533,0.057l-0,0.003l-0.001,-0.001Z" style="fill:#ff0;fill-rule:nonzero;stroke:#000;stroke-width:0.75px;stroke-linecap:butt;stroke-linejoin:miter;"/><path d="M278.775,231.09l25.419,0c0.536,0 0.974,0.529 0.974,1.176c-0,0.646 -0.438,1.172 -0.974,1.172l-25.419,0c-0.536,0 -0.974,-0.526 -0.974,-1.172c0,-0.647 0.438,-1.176 0.974,-1.176Z" style="fill:#ff0;fill-rule:nonzero;stroke:#000;stroke-width:0.75px;stroke-linecap:butt;stroke-linejoin:miter;"/><path d="M288.015,231.045c0.028,-4.969 3.393,-6.375 3.41,-6.372c0.002,-0 3.514,1.449 3.542,6.372l-6.952,0" style="fill:#ff0;fill-rule:nonzero;stroke:#000;stroke-width:0.75px;stroke-linecap:butt;stroke-linejoin:miter;"/><path d="M279.315,217.575l24.368,0c0.513,0 0.933,0.478 0.933,1.057c0,0.581 -0.42,1.057 -0.933,1.057l-24.368,0c-0.513,0 -0.934,-0.474 -0.934,-1.057c0,-0.579 0.421,-1.057 0.934,-1.057Z" style="fill:#ff0;fill-rule:nonzero;stroke:#000;stroke-width:0.75px;stroke-linecap:butt;stroke-linejoin:miter;"/><path d="M279.825,219.705l23.307,-0c0.491,-0 0.893,0.475 0.893,1.056c-0,0.582 -0.402,1.057 -0.893,1.057l-23.307,-0c-0.491,-0 -0.893,-0.475 -0.893,-1.057c0,-0.581 0.402,-1.056 0.893,-1.056Z" style="fill:#ff0;fill-rule:nonzero;stroke:#000;stroke-width:0.75px;stroke-linecap:butt;stroke-linejoin:miter;"/><path d="M287.355,203.82l1.84,0.003l0,1.307l1.343,0l-0,-1.336l1.885,0.006l-0,1.331l1.346,-0l0,-1.336l1.887,-0l-0.003,3.017c-0,0.474 -0.381,0.781 -0.823,0.781l-6.617,-0c-0.444,-0 -0.854,-0.356 -0.856,-0.79l-0.004,-2.982l0.001,0l0.001,-0.001Z" style="fill:#ff0;fill-rule:nonzero;stroke:#000;stroke-width:0.75px;stroke-linecap:butt;stroke-linejoin:miter;"/><path d="M294.285,207.855l0.415,9.677l-6.454,-0.024l0.427,-9.678l5.612,0.025" style="fill:#ff0;fill-rule:nonzero;stroke:#000;stroke-width:0.75px;stroke-linecap:butt;stroke-linejoin:miter;"/><path id="cp1" d="M286.41,212.34l0.197,5.216l-6.188,0.003l0.174,-5.219l5.818,0l-0.001,0l-0,0Z" style="fill:#ff0;fill-rule:nonzero;stroke:#000;stroke-width:0.75px;stroke-linecap:butt;stroke-linejoin:miter;"/><path id="cp11" serif:id="cp1" d="M302.323,212.34l0.198,5.216l-6.189,0.003l0.175,-5.219l5.818,0l-0.002,0l0.001,0Z" style="fill:#ff0;fill-rule:nonzero;stroke:#000;stroke-width:0.75px;stroke-linecap:butt;stroke-linejoin:miter;"/><path id="cp2" d="M279.45,208.56l1.799,0.004l0,1.309l1.316,-0l0,-1.339l1.844,0.006l0,1.334l1.319,-0l0,-1.339l1.846,0.003l-0.003,3.017c-0,0.471 -0.373,0.778 -0.805,0.778l-6.475,0c-0.434,0 -0.837,-0.353 -0.839,-0.788l-0.004,-2.983l0.001,-0l0.001,-0.002Z" style="fill:#ff0;fill-rule:nonzero;stroke:#000;stroke-width:0.75px;stroke-linecap:butt;stroke-linejoin:miter;"/><path id="cp21" serif:id="cp2" d="M295.364,208.56l1.799,0.004l-0,1.309l1.316,-0l-0,-1.339l1.844,0.006l-0,1.334l1.319,-0l-0,-1.339l1.845,0.003l-0.003,3.017c0,0.471 -0.373,0.778 -0.804,0.778l-6.476,0c-0.433,0 -0.837,-0.353 -0.838,-0.788l-0.005,-2.983l0.002,-0l0,-0.002Z" style="fill:#ff0;fill-rule:nonzero;stroke:#000;stroke-width:0.75px;stroke-linecap:butt;stroke-linejoin:miter;"/><path d="M290.85,210.915c-0.04,-0.941 1.315,-0.951 1.299,0l0,2.305l-1.299,-0l0,-2.304" style="fill-rule:nonzero;"/><path id="cp3" d="M282.855,214.26c-0.005,-0.909 1.255,-0.927 1.24,0l-0,1.781l-1.239,-0l-0,-1.781" style="fill-rule:nonzero;"/><path id="cp31" serif:id="cp3" d="M298.817,214.26c-0.005,-0.909 1.255,-0.927 1.239,0l0,1.781l-1.239,-0l0,-1.781" style="fill-rule:nonzero;"/></g><g id="castle1" serif:id="castle"><path d="M285.285,301.125c0.202,-8.282 6.079,-10.242 6.121,-10.271c0.042,-0.028 6.347,2.111 6.326,10.348l-12.447,-0.077" style="fill:#ff0;fill-rule:nonzero;"/><path d="M280.215,291.015l-1.023,9.517l6.211,0.013c0.06,-7.874 5.961,-9.183 6.104,-9.154c0.134,-0.008 5.983,1.74 6.139,9.154l6.227,0l-1.124,-9.59l-22.533,0.057l-0,0.003l-0.001,-0Z" style="fill:#ff0;fill-rule:nonzero;stroke:#000;stroke-width:0.75px;stroke-linecap:butt;stroke-linejoin:miter;"/><path d="M278.775,300.57l25.419,-0c0.536,-0 0.974,0.529 0.974,1.176c-0,0.645 -0.438,1.172 -0.974,1.172l-25.419,-0c-0.536,-0 -0.974,-0.527 -0.974,-1.172c0,-0.647 0.438,-1.176 0.974,-1.176Z" style="fill:#ff0;fill-rule:nonzero;stroke:#000;stroke-width:0.75px;stroke-linecap:butt;stroke-linejoin:miter;"/><path d="M288.015,300.525c0.028,-4.969 3.393,-6.375 3.41,-6.373c0.002,0 3.514,1.45 3.542,6.373l-6.952,-0" style="fill:#ff0;fill-rule:nonzero;stroke:#000;stroke-width:0.75px;stroke-linecap:butt;stroke-linejoin:miter;"/><path d="M279.315,287.055l24.368,-0c0.513,-0 0.933,0.477 0.933,1.057c0,0.58 -0.42,1.057 -0.933,1.057l-24.368,-0c-0.513,-0 -0.934,-0.474 -0.934,-1.057c0,-0.58 0.421,-1.057 0.934,-1.057Z" style="fill:#ff0;fill-rule:nonzero;stroke:#000;stroke-width:0.75px;stroke-linecap:butt;stroke-linejoin:miter;"/><path d="M279.825,289.185l23.307,-0c0.491,-0 0.893,0.475 0.893,1.055c-0,0.582 -0.402,1.057 -0.893,1.057l-23.307,0c-0.491,0 -0.893,-0.475 -0.893,-1.057c0,-0.58 0.402,-1.055 0.893,-1.055Z" style="fill:#ff0;fill-rule:nonzero;stroke:#000;stroke-width:0.75px;stroke-linecap:butt;stroke-linejoin:miter;"/><path d="M287.355,273.3l1.84,0.003l0,1.307l1.343,-0l-0,-1.336l1.885,0.006l-0,1.33l1.346,0l0,-1.336l1.887,0l-0.003,3.018c-0,0.473 -0.381,0.78 -0.823,0.78l-6.617,0c-0.444,0 -0.854,-0.355 -0.856,-0.789l-0.004,-2.982l0.001,-0l0.001,-0.001Z" style="fill:#ff0;fill-rule:nonzero;stroke:#000;stroke-width:0.75px;stroke-linecap:butt;stroke-linejoin:miter;"/><path d="M294.285,277.335l0.415,9.677l-6.454,-0.024l0.427,-9.678l5.612,0.025" style="fill:#ff0;fill-rule:nonzero;stroke:#000;stroke-width:0.75px;stroke-linecap:butt;stroke-linejoin:miter;"/><path id="cp12" serif:id="cp1" d="M286.41,281.82l0.197,5.216l-6.188,0.003l0.174,-5.219l5.818,0l-0.001,0l-0,-0Z" style="fill:#ff0;fill-rule:nonzero;stroke:#000;stroke-width:0.75px;stroke-linecap:butt;stroke-linejoin:miter;"/><path id="cp13" serif:id="cp1" d="M302.323,281.82l0.198,5.216l-6.189,0.003l0.175,-5.219l5.818,0l-0.002,0l0.001,-0Z" style="fill:#ff0;fill-rule:nonzero;stroke:#000;stroke-width:0.75px;stroke-linecap:butt;stroke-linejoin:miter;"/><path id="cp22" serif:id="cp2" d="M279.45,278.04l1.799,0.004l0,1.309l1.316,-0l0,-1.339l1.844,0.006l0,1.333l1.319,0l0,-1.339l1.846,0.003l-0.003,3.018c-0,0.471 -0.373,0.778 -0.805,0.778l-6.475,-0c-0.434,-0 -0.837,-0.353 -0.839,-0.789l-0.004,-2.983l0.001,0l0.001,-0.001Z" style="fill:#ff0;fill-rule:nonzero;stroke:#000;stroke-width:0.75px;stroke-linecap:butt;stroke-linejoin:miter;"/><path id="cp23" serif:id="cp2" d="M295.364,278.04l1.799,0.004l-0,1.309l1.316,-0l-0,-1.339l1.844,0.006l-0,1.333l1.319,0l-0,-1.339l1.845,0.003l-0.003,3.018c0,0.471 -0.373,0.778 -0.804,0.778l-6.476,-0c-0.433,-0 -0.837,-0.353 -0.838,-0.789l-0.005,-2.983l0.002,0l0,-0.001Z" style="fill:#ff0;fill-rule:nonzero;stroke:#000;stroke-width:0.75px;stroke-linecap:butt;stroke-linejoin:miter;"/><path d="M290.85,280.395c-0.04,-0.941 1.315,-0.951 1.299,-0l0,2.304l-1.299,0l0,-2.304" style="fill-rule:nonzero;"/><path id="cp32" serif:id="cp3" d="M282.855,283.74c-0.005,-0.909 1.255,-0.928 1.24,-0l-0,1.78l-1.239,0l-0,-1.78" style="fill-rule:nonzero;"/><path id="cp33" serif:id="cp3" d="M298.817,283.74c-0.005,-0.909 1.255,-0.928 1.239,-0l0,1.78l-1.239,0l0,-1.78" style="fill-rule:nonzero;"/></g><g id="castle2" serif:id="castle"><path d="M312.376,373.446c-5.733,-5.979 -2.984,-11.53 -2.975,-11.581c0.01,-0.049 5.97,-3.016 11.8,2.802l-8.824,8.778" style="fill:#ff0;fill-rule:nonzero;"/><path d="M301.63,369.92l6.033,7.431l4.386,-4.398c-5.546,-5.59 -2.317,-10.7 -2.196,-10.781c0.089,-0.1 5.452,-3.019 10.822,2.094l4.388,-4.419l-7.598,-5.959l-15.836,16.03l0.002,0.002l-0.001,-0Z" style="fill:#ff0;fill-rule:nonzero;stroke:#000;stroke-width:0.75px;stroke-linecap:butt;stroke-linejoin:miter;"/><path d="M307.396,377.674l17.91,-18.037c0.378,-0.38 1.062,-0.318 1.521,0.138c0.458,0.454 0.523,1.136 0.145,1.516l-17.91,18.038c-0.378,0.38 -1.06,0.319 -1.518,-0.135c-0.459,-0.456 -0.526,-1.14 -0.148,-1.52Z" style="fill:#ff0;fill-rule:nonzero;stroke:#000;stroke-width:0.75px;stroke-linecap:butt;stroke-linejoin:miter;"/><path d="M313.874,371.086c-3.506,-3.521 -2.133,-6.9 -2.119,-6.911c0.001,-0 3.505,-1.471 7.018,1.978l-4.899,4.932" style="fill:#ff0;fill-rule:nonzero;stroke:#000;stroke-width:0.75px;stroke-linecap:butt;stroke-linejoin:miter;"/><path d="M298.186,367.768l17.17,-17.291c0.361,-0.364 0.996,-0.326 1.408,0.082c0.412,0.409 0.453,1.043 0.092,1.407l-17.17,17.292c-0.362,0.364 -0.994,0.329 -1.408,-0.082c-0.411,-0.409 -0.454,-1.044 -0.092,-1.408Z" style="fill:#ff0;fill-rule:nonzero;stroke:#000;stroke-width:0.75px;stroke-linecap:butt;stroke-linejoin:miter;"/><path d="M300.057,368.907l16.422,-16.539c0.346,-0.348 0.966,-0.299 1.378,0.111c0.413,0.41 0.467,1.03 0.121,1.378l-16.422,16.539c-0.346,0.348 -0.966,0.299 -1.379,-0.112c-0.412,-0.409 -0.466,-1.029 -0.12,-1.377Z" style="fill:#ff0;fill-rule:nonzero;stroke:#000;stroke-width:0.75px;stroke-linecap:butt;stroke-linejoin:miter;"/><path d="M294.091,352.371l1.298,-1.304l0.928,0.921l0.946,-0.952l-0.948,-0.942l1.332,-1.333l0.944,0.937l0.949,-0.955l-0.948,-0.942l1.329,-1.338l2.14,2.128c0.336,0.334 0.285,0.82 -0.026,1.134l-4.663,4.695c-0.313,0.316 -0.854,0.356 -1.163,0.051l-2.119,-2.098l0.001,-0.001l-0,-0.001Z" style="fill:#ff0;fill-rule:nonzero;stroke:#000;stroke-width:0.75px;stroke-linecap:butt;stroke-linejoin:miter;"/><path d="M301.837,350.297l7.159,6.523l-4.564,4.563l-6.567,-7.122l3.972,-3.964" style="fill:#ff0;fill-rule:nonzero;stroke:#000;stroke-width:0.75px;stroke-linecap:butt;stroke-linejoin:miter;"/><path id="cp14" serif:id="cp1" d="M299.47,359.045l3.841,3.535l-4.359,4.394l-3.58,-3.802l4.1,-4.128l-0.001,0.001l-0.001,-0Z" style="fill:#ff0;fill-rule:nonzero;stroke:#000;stroke-width:0.75px;stroke-linecap:butt;stroke-linejoin:miter;"/><path id="cp15" serif:id="cp1" d="M310.683,347.753l3.841,3.535l-4.359,4.394l-3.58,-3.802l4.099,-4.128l-0.001,0.001l0,-0Z" style="fill:#ff0;fill-rule:nonzero;stroke:#000;stroke-width:0.75px;stroke-linecap:butt;stroke-linejoin:miter;"/><path id="cp24" serif:id="cp2" d="M291.884,361.32l1.271,-1.273l0.928,0.922l0.928,-0.934l-0.95,-0.944l1.303,-1.304l0.947,0.939l0.929,-0.935l-0.95,-0.944l1.302,-1.307l2.139,2.128c0.335,0.332 0.29,0.813 -0.014,1.119l-4.563,4.595c-0.306,0.308 -0.841,0.345 -1.15,0.04l-2.12,-2.099l0.001,-0.001l-0.001,-0.002Z" style="fill:#ff0;fill-rule:nonzero;stroke:#000;stroke-width:0.75px;stroke-linecap:butt;stroke-linejoin:miter;"/><path id="cp25" serif:id="cp2" d="M303.097,350.028l1.271,-1.273l0.928,0.921l0.928,-0.934l-0.95,-0.943l1.303,-1.304l0.946,0.939l0.93,-0.936l-0.95,-0.943l1.302,-1.307l2.139,2.128c0.334,0.332 0.289,0.813 -0.015,1.119l-4.562,4.595c-0.306,0.308 -0.841,0.345 -1.151,0.039l-2.12,-2.098l0.001,-0.001l-0,-0.002Z" style="fill:#ff0;fill-rule:nonzero;stroke:#000;stroke-width:0.75px;stroke-linecap:butt;stroke-linejoin:miter;"/><path d="M301.588,354.89c-0.696,-0.634 0.251,-1.603 0.915,-0.922l1.635,1.624l-0.915,0.922l-1.635,-1.624" style="fill-rule:nonzero;"/><path id="cp34" serif:id="cp3" d="M298.328,362.92c-0.648,-0.637 0.226,-1.544 0.873,-0.879l1.264,1.254l-0.873,0.88l-1.264,-1.255" style="fill-rule:nonzero;"/><path id="cp35" serif:id="cp3" d="M309.575,351.594c-0.648,-0.637 0.226,-1.544 0.873,-0.88l1.264,1.255l-0.873,0.879l-1.264,-1.254" style="fill-rule:nonzero;"/></g></g><g id="castle4" serif:id="castle"><path d="M353.856,231.645c0.202,-8.281 6.078,-10.242 6.121,-10.271c0.042,-0.028 6.347,2.111 6.326,10.348l-12.447,-0.077" style="fill:#ff0;fill-rule:nonzero;"/><path d="M348.786,221.535l-1.023,9.517l6.211,0.014c0.06,-7.874 5.961,-9.184 6.104,-9.155c0.133,-0.008 5.983,1.741 6.139,9.155l6.227,-0l-1.125,-9.59l-22.533,0.057l0,0.003l-0,-0.001Z" style="fill:#ff0;fill-rule:nonzero;stroke:#000;stroke-width:0.75px;stroke-linecap:butt;stroke-linejoin:miter;"/><path d="M347.346,231.09l25.419,0c0.535,0 0.973,0.529 0.973,1.176c0,0.646 -0.438,1.172 -0.973,1.172l-25.419,0c-0.536,0 -0.974,-0.526 -0.974,-1.172c0,-0.647 0.438,-1.176 0.974,-1.176Z" style="fill:#ff0;fill-rule:nonzero;stroke:#000;stroke-width:0.75px;stroke-linecap:butt;stroke-linejoin:miter;"/><path d="M356.586,231.045c0.027,-4.969 3.393,-6.375 3.41,-6.372c0.001,-0 3.514,1.449 3.541,6.372l-6.951,0" style="fill:#ff0;fill-rule:nonzero;stroke:#000;stroke-width:0.75px;stroke-linecap:butt;stroke-linejoin:miter;"/><path d="M347.886,217.575l24.367,0c0.513,0 0.934,0.478 0.934,1.057c0,0.581 -0.421,1.057 -0.934,1.057l-24.367,0c-0.514,0 -0.934,-0.474 -0.934,-1.057c-0,-0.579 0.42,-1.057 0.934,-1.057Z" style="fill:#ff0;fill-rule:nonzero;stroke:#000;stroke-width:0.75px;stroke-linecap:butt;stroke-linejoin:miter;"/><path d="M348.396,219.705l23.307,-0c0.49,-0 0.893,0.475 0.893,1.056c-0,0.582 -0.403,1.057 -0.893,1.057l-23.307,-0c-0.491,-0 -0.893,-0.475 -0.893,-1.057c-0,-0.581 0.402,-1.056 0.893,-1.056Z" style="fill:#ff0;fill-rule:nonzero;stroke:#000;stroke-width:0.75px;stroke-linecap:butt;stroke-linejoin:miter;"/><path d="M355.926,203.82l1.84,0.003l-0,1.307l1.342,0l0,-1.336l1.885,0.006l0,1.331l1.347,-0l0,-1.336l1.887,-0l-0.003,3.017c-0,0.474 -0.381,0.781 -0.823,0.781l-6.617,-0c-0.445,-0 -0.855,-0.356 -0.856,-0.79l-0.005,-2.982l0.002,0l0.001,-0.001Z" style="fill:#ff0;fill-rule:nonzero;stroke:#000;stroke-width:0.75px;stroke-linecap:butt;stroke-linejoin:miter;"/><path d="M362.856,207.855l0.415,9.677l-6.454,-0.024l0.427,-9.678l5.612,0.025" style="fill:#ff0;fill-rule:nonzero;stroke:#000;stroke-width:0.75px;stroke-linecap:butt;stroke-linejoin:miter;"/><path id="cp16" serif:id="cp1" d="M354.981,212.34l0.197,5.216l-6.189,0.003l0.175,-5.219l5.818,0l-0.001,0l-0,0Z" style="fill:#ff0;fill-rule:nonzero;stroke:#000;stroke-width:0.75px;stroke-linecap:butt;stroke-linejoin:miter;"/><path id="cp17" serif:id="cp1" d="M370.894,212.34l0.197,5.216l-6.188,0.003l0.175,-5.219l5.817,0l-0.001,0l0,0Z" style="fill:#ff0;fill-rule:nonzero;stroke:#000;stroke-width:0.75px;stroke-linecap:butt;stroke-linejoin:miter;"/><path id="cp26" serif:id="cp2" d="M348.021,208.56l1.799,0.004l-0,1.309l1.316,-0l0,-1.339l1.844,0.006l0,1.334l1.319,-0l0,-1.339l1.845,0.003l-0.003,3.017c0,0.471 -0.373,0.778 -0.804,0.778l-6.475,0c-0.434,0 -0.838,-0.353 -0.839,-0.788l-0.005,-2.983l0.002,-0l0.001,-0.002Z" style="fill:#ff0;fill-rule:nonzero;stroke:#000;stroke-width:0.75px;stroke-linecap:butt;stroke-linejoin:miter;"/><path id="cp27" serif:id="cp2" d="M363.934,208.56l1.799,0.004l0,1.309l1.317,-0l-0,-1.339l1.844,0.006l-0,1.334l1.319,-0l-0,-1.339l1.845,0.003l-0.003,3.017c-0,0.471 -0.373,0.778 -0.804,0.778l-6.476,0c-0.434,0 -0.837,-0.353 -0.839,-0.788l-0.004,-2.983l0.001,-0l0.001,-0.002Z" style="fill:#ff0;fill-rule:nonzero;stroke:#000;stroke-width:0.75px;stroke-linecap:butt;stroke-linejoin:miter;"/><path d="M359.421,210.915c-0.04,-0.941 1.315,-0.951 1.299,0l-0,2.305l-1.299,-0l-0,-2.304" style="fill-rule:nonzero;"/><path id="cp36" serif:id="cp3" d="M351.426,214.26c-0.005,-0.909 1.255,-0.927 1.239,0l0,1.781l-1.239,-0l0,-1.781" style="fill-rule:nonzero;"/><path id="cp37" serif:id="cp3" d="M367.387,214.26c-0.004,-0.909 1.256,-0.927 1.24,0l-0,1.781l-1.239,-0l-0,-1.781" style="fill-rule:nonzero;"/></g><g id="castle31" serif:id="castle3"><g id="castle5" serif:id="castle"><path d="M434.403,231.645c-0.202,-8.281 -6.079,-10.242 -6.121,-10.271c-0.042,-0.028 -6.347,2.111 -6.326,10.348l12.447,-0.077" style="fill:#ff0;fill-rule:nonzero;"/><path d="M439.473,221.535l1.023,9.517l-6.211,0.014c-0.06,-7.874 -5.961,-9.184 -6.104,-9.155c-0.134,-0.008 -5.983,1.741 -6.139,9.155l-6.227,-0l1.124,-9.59l22.533,0.057l0,0.003l0.001,-0.001Z" style="fill:#ff0;fill-rule:nonzero;stroke:#000;stroke-width:0.75px;stroke-linecap:butt;stroke-linejoin:miter;"/><path d="M440.913,231.09l-25.419,0c-0.536,0 -0.974,0.529 -0.974,1.176c0,0.646 0.438,1.172 0.974,1.172l25.419,0c0.536,0 0.974,-0.526 0.974,-1.172c-0,-0.647 -0.438,-1.176 -0.974,-1.176Z" style="fill:#ff0;fill-rule:nonzero;stroke:#000;stroke-width:0.75px;stroke-linecap:butt;stroke-linejoin:miter;"/><path d="M431.673,231.045c-0.028,-4.969 -3.393,-6.375 -3.41,-6.372c-0.002,-0 -3.514,1.449 -3.542,6.372l6.952,0" style="fill:#ff0;fill-rule:nonzero;stroke:#000;stroke-width:0.75px;stroke-linecap:butt;stroke-linejoin:miter;"/><path d="M440.373,217.575l-24.368,0c-0.513,0 -0.934,0.478 -0.934,1.057c0,0.581 0.421,1.057 0.934,1.057l24.368,0c0.513,0 0.934,-0.474 0.934,-1.057c-0,-0.579 -0.421,-1.057 -0.934,-1.057Z" style="fill:#ff0;fill-rule:nonzero;stroke:#000;stroke-width:0.75px;stroke-linecap:butt;stroke-linejoin:miter;"/><path d="M439.863,219.705l-23.307,-0c-0.491,-0 -0.893,0.475 -0.893,1.056c-0,0.582 0.402,1.057 0.893,1.057l23.307,-0c0.491,-0 0.893,-0.475 0.893,-1.057c-0,-0.581 -0.402,-1.056 -0.893,-1.056Z" style="fill:#ff0;fill-rule:nonzero;stroke:#000;stroke-width:0.75px;stroke-linecap:butt;stroke-linejoin:miter;"/><path d="M432.333,203.82l-1.84,0.003l-0,1.307l-1.343,0l0,-1.336l-1.885,0.006l0,1.331l-1.347,-0l0,-1.336l-1.886,-0l0.003,3.017c0,0.474 0.381,0.781 0.823,0.781l6.617,-0c0.444,-0 0.854,-0.356 0.856,-0.79l0.004,-2.982l-0.001,0l-0.001,-0.001Z" style="fill:#ff0;fill-rule:nonzero;stroke:#000;stroke-width:0.75px;stroke-linecap:butt;stroke-linejoin:miter;"/><path d="M425.403,207.855l-0.415,9.677l6.454,-0.024l-0.428,-9.678l-5.611,0.025" style="fill:#ff0;fill-rule:nonzero;stroke:#000;stroke-width:0.75px;stroke-linecap:butt;stroke-linejoin:miter;"/><path id="cp18" serif:id="cp1" d="M433.278,212.34l-0.197,5.216l6.188,0.003l-0.174,-5.219l-5.818,0l0.001,0l-0,0Z" style="fill:#ff0;fill-rule:nonzero;stroke:#000;stroke-width:0.75px;stroke-linecap:butt;stroke-linejoin:miter;"/><path id="cp19" serif:id="cp1" d="M417.364,212.34l-0.197,5.216l6.189,0.003l-0.175,-5.219l-5.818,0l0.002,0l-0.001,0Z" style="fill:#ff0;fill-rule:nonzero;stroke:#000;stroke-width:0.75px;stroke-linecap:butt;stroke-linejoin:miter;"/><path id="cp28" serif:id="cp2" d="M440.238,208.56l-1.799,0.004l-0,1.309l-1.316,-0l-0,-1.339l-1.845,0.006l0,1.334l-1.318,-0l-0,-1.339l-1.846,0.003l0.003,3.017c0,0.471 0.373,0.778 0.805,0.778l6.475,0c0.434,0 0.837,-0.353 0.839,-0.788l0.004,-2.983l-0.001,-0l-0.001,-0.002Z" style="fill:#ff0;fill-rule:nonzero;stroke:#000;stroke-width:0.75px;stroke-linecap:butt;stroke-linejoin:miter;"/><path id="cp29" serif:id="cp2" d="M424.324,208.56l-1.799,0.004l0,1.309l-1.316,-0l0,-1.339l-1.844,0.006l-0,1.334l-1.319,-0l0,-1.339l-1.845,0.003l0.003,3.017c-0,0.471 0.373,0.778 0.804,0.778l6.475,0c0.434,0 0.838,-0.353 0.839,-0.788l0.005,-2.983l-0.002,-0l-0.001,-0.002Z" style="fill:#ff0;fill-rule:nonzero;stroke:#000;stroke-width:0.75px;stroke-linecap:butt;stroke-linejoin:miter;"/><path d="M428.838,210.915c0.04,-0.941 -1.315,-0.951 -1.299,0l-0,2.305l1.299,-0l-0,-2.304" style="fill-rule:nonzero;"/><path id="cp38" serif:id="cp3" d="M436.833,214.26c0.004,-0.909 -1.255,-0.927 -1.24,0l0,1.781l1.239,-0l0,-1.781" style="fill-rule:nonzero;"/><path id="cp39" serif:id="cp3" d="M420.871,214.26c0.005,-0.909 -1.255,-0.927 -1.239,0l-0,1.781l1.239,-0l-0,-1.781" style="fill-rule:nonzero;"/></g><g id="castle6" serif:id="castle"><path d="M434.403,301.125c-0.202,-8.282 -6.079,-10.242 -6.121,-10.271c-0.042,-0.028 -6.347,2.111 -6.326,10.348l12.447,-0.077" style="fill:#ff0;fill-rule:nonzero;"/><path d="M439.473,291.015l1.023,9.517l-6.211,0.013c-0.06,-7.874 -5.961,-9.183 -6.104,-9.154c-0.134,-0.008 -5.983,1.74 -6.139,9.154l-6.227,0l1.124,-9.59l22.533,0.057l0,0.003l0.001,-0Z" style="fill:#ff0;fill-rule:nonzero;stroke:#000;stroke-width:0.75px;stroke-linecap:butt;stroke-linejoin:miter;"/><path d="M440.913,300.57l-25.419,-0c-0.536,-0 -0.974,0.529 -0.974,1.176c0,0.645 0.438,1.172 0.974,1.172l25.419,-0c0.536,-0 0.974,-0.527 0.974,-1.172c-0,-0.647 -0.438,-1.176 -0.974,-1.176Z" style="fill:#ff0;fill-rule:nonzero;stroke:#000;stroke-width:0.75px;stroke-linecap:butt;stroke-linejoin:miter;"/><path d="M431.673,300.525c-0.028,-4.969 -3.393,-6.375 -3.41,-6.373c-0.002,0 -3.514,1.45 -3.542,6.373l6.952,-0" style="fill:#ff0;fill-rule:nonzero;stroke:#000;stroke-width:0.75px;stroke-linecap:butt;stroke-linejoin:miter;"/><path d="M440.373,287.055l-24.368,-0c-0.513,-0 -0.934,0.477 -0.934,1.057c0,0.58 0.421,1.057 0.934,1.057l24.368,-0c0.513,-0 0.934,-0.474 0.934,-1.057c-0,-0.58 -0.421,-1.057 -0.934,-1.057Z" style="fill:#ff0;fill-rule:nonzero;stroke:#000;stroke-width:0.75px;stroke-linecap:butt;stroke-linejoin:miter;"/><path d="M439.863,289.185l-23.307,-0c-0.491,-0 -0.893,0.475 -0.893,1.055c-0,0.582 0.402,1.057 0.893,1.057l23.307,0c0.491,0 0.893,-0.475 0.893,-1.057c-0,-0.58 -0.402,-1.055 -0.893,-1.055Z" style="fill:#ff0;fill-rule:nonzero;stroke:#000;stroke-width:0.75px;stroke-linecap:butt;stroke-linejoin:miter;"/><path d="M432.333,273.3l-1.84,0.003l-0,1.307l-1.343,-0l0,-1.336l-1.885,0.006l0,1.33l-1.347,0l0,-1.336l-1.886,0l0.003,3.018c0,0.473 0.381,0.78 0.823,0.78l6.617,0c0.444,0 0.854,-0.355 0.856,-0.789l0.004,-2.982l-0.001,-0l-0.001,-0.001Z" style="fill:#ff0;fill-rule:nonzero;stroke:#000;stroke-width:0.75px;stroke-linecap:butt;stroke-linejoin:miter;"/><path d="M425.403,277.335l-0.415,9.677l6.454,-0.024l-0.428,-9.678l-5.611,0.025" style="fill:#ff0;fill-rule:nonzero;stroke:#000;stroke-width:0.75px;stroke-linecap:butt;stroke-linejoin:miter;"/><path id="cp110" serif:id="cp1" d="M433.278,281.82l-0.197,5.216l6.188,0.003l-0.174,-5.219l-5.818,0l0.001,0l-0,-0Z" style="fill:#ff0;fill-rule:nonzero;stroke:#000;stroke-width:0.75px;stroke-linecap:butt;stroke-linejoin:miter;"/><path id="cp111" serif:id="cp1" d="M417.364,281.82l-0.197,5.216l6.189,0.003l-0.175,-5.219l-5.818,0l0.002,0l-0.001,-0Z" style="fill:#ff0;fill-rule:nonzero;stroke:#000;stroke-width:0.75px;stroke-linecap:butt;stroke-linejoin:miter;"/><path id="cp210" serif:id="cp2" d="M440.238,278.04l-1.799,0.004l-0,1.309l-1.316,-0l-0,-1.339l-1.845,0.006l0,1.333l-1.318,0l-0,-1.339l-1.846,0.003l0.003,3.018c0,0.471 0.373,0.778 0.805,0.778l6.475,-0c0.434,-0 0.837,-0.353 0.839,-0.789l0.004,-2.983l-0.001,0l-0.001,-0.001Z" style="fill:#ff0;fill-rule:nonzero;stroke:#000;stroke-width:0.75px;stroke-linecap:butt;stroke-linejoin:miter;"/><path id="cp211" serif:id="cp2" d="M424.324,278.04l-1.799,0.004l0,1.309l-1.316,-0l0,-1.339l-1.844,0.006l-0,1.333l-1.319,0l0,-1.339l-1.845,0.003l0.003,3.018c-0,0.471 0.373,0.778 0.804,0.778l6.475,-0c0.434,-0 0.838,-0.353 0.839,-0.789l0.005,-2.983l-0.002,0l-0.001,-0.001Z" style="fill:#ff0;fill-rule:nonzero;stroke:#000;stroke-width:0.75px;stroke-linecap:butt;stroke-linejoin:miter;"/><path d="M428.838,280.395c0.04,-0.941 -1.315,-0.951 -1.299,-0l-0,2.304l1.299,0l-0,-2.304" style="fill-rule:nonzero;"/><path id="cp310" serif:id="cp3" d="M436.833,283.74c0.004,-0.909 -1.255,-0.928 -1.24,-0l0,1.78l1.239,0l0,-1.78" style="fill-rule:nonzero;"/><path id="cp311" serif:id="cp3" d="M420.871,283.74c0.005,-0.909 -1.255,-0.928 -1.239,-0l-0,1.78l1.239,0l-0,-1.78" style="fill-rule:nonzero;"/></g><g id="castle7" serif:id="castle"><path d="M407.311,373.446c5.734,-5.979 2.985,-11.53 2.976,-11.581c-0.01,-0.049 -5.971,-3.016 -11.8,2.802l8.824,8.778" style="fill:#ff0;fill-rule:nonzero;"/><path d="M418.058,369.92l-6.033,7.431l-4.386,-4.398c5.546,-5.59 2.317,-10.7 2.196,-10.781c-0.089,-0.1 -5.452,-3.019 -10.822,2.094l-4.388,-4.419l7.598,-5.959l15.836,16.03l-0.002,0.002l0.001,-0Z" style="fill:#ff0;fill-rule:nonzero;stroke:#000;stroke-width:0.75px;stroke-linecap:butt;stroke-linejoin:miter;"/><path d="M412.292,377.674l-17.91,-18.037c-0.378,-0.38 -1.062,-0.318 -1.521,0.138c-0.458,0.454 -0.523,1.136 -0.145,1.516l17.91,18.038c0.377,0.38 1.06,0.319 1.518,-0.135c0.459,-0.456 0.526,-1.14 0.148,-1.52Z" style="fill:#ff0;fill-rule:nonzero;stroke:#000;stroke-width:0.75px;stroke-linecap:butt;stroke-linejoin:miter;"/><path d="M405.814,371.086c3.506,-3.521 2.133,-6.9 2.118,-6.911c-0,-0 -3.504,-1.471 -7.017,1.978l4.898,4.932" style="fill:#ff0;fill-rule:nonzero;stroke:#000;stroke-width:0.75px;stroke-linecap:butt;stroke-linejoin:miter;"/><path d="M421.502,367.768l-17.17,-17.291c-0.361,-0.364 -0.997,-0.326 -1.408,0.082c-0.412,0.409 -0.453,1.043 -0.092,1.407l17.17,17.292c0.362,0.364 0.994,0.329 1.408,-0.082c0.411,-0.409 0.454,-1.044 0.092,-1.408Z" style="fill:#ff0;fill-rule:nonzero;stroke:#000;stroke-width:0.75px;stroke-linecap:butt;stroke-linejoin:miter;"/><path d="M419.631,368.907l-16.422,-16.539c-0.346,-0.348 -0.966,-0.299 -1.378,0.111c-0.413,0.41 -0.467,1.03 -0.121,1.378l16.422,16.539c0.346,0.348 0.966,0.299 1.379,-0.112c0.412,-0.409 0.466,-1.029 0.12,-1.377Z" style="fill:#ff0;fill-rule:nonzero;stroke:#000;stroke-width:0.75px;stroke-linecap:butt;stroke-linejoin:miter;"/><path d="M425.597,352.371l-1.298,-1.304l-0.928,0.921l-0.946,-0.952l0.948,-0.942l-1.332,-1.333l-0.945,0.937l-0.948,-0.955l0.948,-0.942l-1.329,-1.338l-2.14,2.128c-0.336,0.334 -0.285,0.82 0.026,1.134l4.663,4.695c0.313,0.316 0.854,0.356 1.163,0.051l2.119,-2.098l-0.001,-0.001l0,-0.001Z" style="fill:#ff0;fill-rule:nonzero;stroke:#000;stroke-width:0.75px;stroke-linecap:butt;stroke-linejoin:miter;"/><path d="M417.851,350.297l-7.159,6.523l4.564,4.563l6.567,-7.122l-3.972,-3.964" style="fill:#ff0;fill-rule:nonzero;stroke:#000;stroke-width:0.75px;stroke-linecap:butt;stroke-linejoin:miter;"/><path id="cp112" serif:id="cp1" d="M420.217,359.045l-3.84,3.535l4.358,4.394l3.581,-3.802l-4.1,-4.128l0.001,0.001l0,-0Z" style="fill:#ff0;fill-rule:nonzero;stroke:#000;stroke-width:0.75px;stroke-linecap:butt;stroke-linejoin:miter;"/><path id="cp113" serif:id="cp1" d="M409.005,347.753l-3.841,3.535l4.359,4.394l3.58,-3.802l-4.099,-4.128l0.001,0.001l-0,-0Z" style="fill:#ff0;fill-rule:nonzero;stroke:#000;stroke-width:0.75px;stroke-linecap:butt;stroke-linejoin:miter;"/><path id="cp212" serif:id="cp2" d="M427.804,361.32l-1.271,-1.273l-0.928,0.922l-0.928,-0.934l0.95,-0.944l-1.303,-1.304l-0.947,0.939l-0.929,-0.935l0.95,-0.944l-1.302,-1.307l-2.14,2.128c-0.334,0.332 -0.289,0.813 0.015,1.119l4.563,4.595c0.306,0.308 0.84,0.345 1.15,0.04l2.12,-2.099l-0.001,-0.001l0.001,-0.002Z" style="fill:#ff0;fill-rule:nonzero;stroke:#000;stroke-width:0.75px;stroke-linecap:butt;stroke-linejoin:miter;"/><path id="cp213" serif:id="cp2" d="M416.591,350.028l-1.271,-1.273l-0.928,0.921l-0.928,-0.934l0.95,-0.943l-1.303,-1.304l-0.947,0.939l-0.929,-0.936l0.95,-0.943l-1.302,-1.307l-2.139,2.128c-0.334,0.332 -0.289,0.813 0.014,1.119l4.563,4.595c0.306,0.308 0.841,0.345 1.15,0.039l2.121,-2.098l-0.001,-0.001l0,-0.002Z" style="fill:#ff0;fill-rule:nonzero;stroke:#000;stroke-width:0.75px;stroke-linecap:butt;stroke-linejoin:miter;"/><path d="M418.1,354.89c0.696,-0.634 -0.251,-1.603 -0.915,-0.922l-1.635,1.624l0.915,0.922l1.635,-1.624" style="fill-rule:nonzero;"/><path id="cp312" serif:id="cp3" d="M421.36,362.92c0.648,-0.637 -0.227,-1.544 -0.873,-0.879l-1.264,1.254l0.873,0.88l1.263,-1.255" style="fill-rule:nonzero;"/><path id="cp313" serif:id="cp3" d="M410.113,351.594c0.648,-0.637 -0.226,-1.544 -0.873,-0.88l-1.264,1.255l0.873,0.879l1.264,-1.254" style="fill-rule:nonzero;"/></g></g><g id="quina"><path d="M348.954,303.609l0,0.007c0,3.318 1.274,6.341 3.318,8.535c2.048,2.2 4.868,3.566 7.953,3.566c3.101,0 5.916,-1.357 7.954,-3.548c2.037,-2.188 3.303,-5.208 3.303,-8.539l0,-16.152l-22.488,-0.019l-0.041,16.149" style="fill:#039;fill-rule:nonzero;"/><circle cx="354.111" cy="293.603" r="2.229" style="fill:#fff;"/><circle cx="366.588" cy="293.613" r="2.229" style="fill:#fff;"/><circle cx="360.337" cy="299.603" r="2.229" style="fill:#fff;"/><circle cx="354.111" cy="305.874" r="2.229" style="fill:#fff;"/><circle cx="366.575" cy="305.858" r="2.229" style="fill:#fff;"/></g><g id="quina1" serif:id="quina"><path d="M348.954,264.585l0,0.007c0,3.318 1.274,6.341 3.318,8.535c2.048,2.2 4.868,3.566 7.953,3.566c3.101,0 5.916,-1.357 7.954,-3.548c2.037,-2.188 3.303,-5.208 3.303,-8.539l0,-16.152l-22.488,-0.019l-0.041,16.149" style="fill:#039;fill-rule:nonzero;"/><circle cx="354.111" cy="254.579" r="2.229" style="fill:#fff;"/><circle cx="366.588" cy="254.589" r="2.229" style="fill:#fff;"/><circle cx="360.337" cy="260.579" r="2.229" style="fill:#fff;"/><circle cx="354.111" cy="266.85" r="2.229" style="fill:#fff;"/><circle cx="366.575" cy="266.834" r="2.229" style="fill:#fff;"/></g><g id="quina2" serif:id="quina"><path d="M317.756,303.609l-0.001,0.007c0,3.318 1.274,6.341 3.318,8.535c2.048,2.2 4.868,3.566 7.953,3.566c3.101,0 5.916,-1.357 7.955,-3.548c2.037,-2.188 3.303,-5.208 3.303,-8.539l-0,-16.152l-22.488,-0.019l-0.041,16.149" style="fill:#039;fill-rule:nonzero;"/><circle cx="322.913" cy="293.603" r="2.229" style="fill:#fff;"/><circle cx="335.39" cy="293.613" r="2.229" style="fill:#fff;"/><circle cx="329.139" cy="299.603" r="2.229" style="fill:#fff;"/><circle cx="322.913" cy="305.874" r="2.229" style="fill:#fff;"/><circle cx="335.376" cy="305.858" r="2.229" style="fill:#fff;"/></g><g id="quina3" serif:id="quina"><path d="M380.072,303.609l-0,0.007c-0,3.318 1.273,6.341 3.317,8.535c2.048,2.2 4.868,3.566 7.953,3.566c3.101,0 5.916,-1.357 7.955,-3.548c2.037,-2.188 3.303,-5.208 3.303,-8.539l-0,-16.152l-22.488,-0.019l-0.041,16.149" style="fill:#039;fill-rule:nonzero;"/><circle cx="385.229" cy="293.603" r="2.229" style="fill:#fff;"/><circle cx="397.706" cy="293.613" r="2.229" style="fill:#fff;"/><circle cx="391.455" cy="299.603" r="2.229" style="fill:#fff;"/><circle cx="385.229" cy="305.874" r="2.229" style="fill:#fff;"/><circle cx="397.692" cy="305.858" r="2.229" style="fill:#fff;"/></g><g id="quina4" serif:id="quina"><path d="M348.954,342.285l0,0.007c0,3.318 1.274,6.341 3.318,8.535c2.048,2.2 4.868,3.566 7.953,3.566c3.101,0 5.916,-1.357 7.954,-3.548c2.037,-2.188 3.303,-5.208 3.303,-8.539l0,-16.152l-22.488,-0.019l-0.041,16.149" style="fill:#039;fill-rule:nonzero;"/><circle cx="354.111" cy="332.279" r="2.229" style="fill:#fff;"/><circle cx="366.588" cy="332.289" r="2.229" style="fill:#fff;"/><circle cx="360.337" cy="338.279" r="2.229" style="fill:#fff;"/><circle cx="354.111" cy="344.55" r="2.229" style="fill:#fff;"/><circle cx="366.575" cy="344.534" r="2.229" style="fill:#fff;"/></g></g></svg>